<?xml version="1.0" encoding="UTF-8" standalone="no"?>
<!DOCTYPE svg PUBLIC "-//W3C//DTD SVG 1.1//EN" "http://www.w3.org/Graphics/SVG/1.1/DTD/svg11.dtd">
<svg width="100%" height="100%" viewBox="0 0 2013 1773" version="1.1" xmlns="http://www.w3.org/2000/svg" xmlns:xlink="http://www.w3.org/1999/xlink" xml:space="preserve" xmlns:serif="http://www.serif.com/" style="fill-rule:evenodd;clip-rule:evenodd;stroke-linecap:round;stroke-linejoin:round;stroke-miterlimit:1.5;">
    <rect id="novaterraprime_tile_4" x="0.335" y="0.009" width="2012.61" height="1772.16" style="fill:none;"/>
    <clipPath id="_clip1">
        <rect x="0.335" y="0.009" width="2012.61" height="1772.16"/>
    </clipPath>
    <g clip-path="url(#_clip1)">
        <g id="tile4">
            <g id="tilebase">
                <path d="M2005.83,1002.75l-0,189.322l-1000.29,577.517l-0,-189.322l1000.29,-577.517Z" style="fill:#808184;stroke:#000;stroke-width:12.5px;"/>
                <path d="M1005.54,1579.31l-0,189.799l-999.462,-577.04l-0,-189.799l999.462,577.04Z" style="fill:#a6a8ab;stroke:#000;stroke-width:12.5px;"/>
                <path d="M1006.37,425.418l999.712,577.183l-999.712,577.184l-999.711,-577.184l999.711,-577.183Z" style="fill:#d0d2d3;stroke:#000;stroke-width:12.5px;"/>
            </g>
            <path d="M344.226,486.964l123.668,71.4l-123.668,71.4l-123.669,-71.4l123.669,-71.4Z" style="fill:#d0d2d3;stroke:#000;stroke-width:12.5px;"/>
            <path d="M303.023,225.153l61.942,-9.583l45.345,26.18l-16.597,35.763l-61.943,9.582l-45.345,-26.18l16.598,-35.762Z" style="fill:#d0d2d3;stroke:#000;stroke-width:12.5px;"/>
            <path d="M331.77,287.095l0,304.64l61.943,-9.582l-0,-304.64l-61.943,9.582Z" style="fill:#808184;stroke:#000;stroke-width:12.5px;"/>
            <path d="M393.713,277.513l16.597,-35.763l0,304.64l-16.597,35.763l-0,-304.64Z" style="fill:#808184;stroke:#000;stroke-width:12.5px;"/>
            <path d="M331.77,287.095l0,304.64l-45.345,-26.18l0,-304.64l45.345,26.18Z" style="fill:#a6a8ab;stroke:#000;stroke-width:12.5px;"/>
            <path id="primary-color" d="M311.12,252.09c-0.174,-1.425 -0.264,-2.877 -0.264,-4.349c0,-19.598 15.911,-35.51 35.509,-35.51c19.599,0 35.51,15.912 35.51,35.51c-0,2.557 -0.271,5.051 -0.786,7.456c-28.476,7.602 -53.542,2.648 -69.969,-3.107Z" style="fill:#4e913b;stroke:#000;stroke-width:12.5px;"/>
            <path d="M1006.64,532.919l0,142.8l-579.97,334.845l0,-142.8l579.97,-334.845Z" style="fill:#808184;stroke:#000;stroke-width:12.5px;"/>
            <path d="M882.973,461.519l123.668,71.4l-575.847,332.465l-123.669,-71.4l575.848,-332.465Z" style="fill:#d0d2d3;stroke:#000;stroke-width:12.5px;"/>
            <path id="primary-color-darker" d="M966.69,532.184l-41.223,-185.64l-498.796,283.22l24.734,195.16l515.285,-292.74Z" style="fill:#3b6d2c;stroke:#000;stroke-width:12.5px;"/>
            <path d="M344.226,629.764l-0,476l123.668,-71.4l0,-476l-123.668,71.4Z" style="fill:#808184;stroke:#000;stroke-width:12.5px;"/>
            <path d="M344.226,629.764l-0,476l-123.669,-71.4l0,-476l123.669,71.4Z" style="fill:#a6a8ab;stroke:#000;stroke-width:12.5px;"/>
            <path d="M529.725,855.866c4.252,-2.455 9.491,-2.455 13.743,0c4.252,2.455 6.872,6.992 6.872,11.902c-0,28.198 -0,71.396 -0,71.396l-41.223,23.8l-0,-74.029c-0,-13.1 6.989,-25.206 18.335,-31.756c0.755,-0.436 1.514,-0.875 2.273,-1.313Z" style="fill:#484848;stroke:#000;stroke-width:12.5px;"/>
            <path d="M385.491,891.54c1.692,-0.977 3.776,-0.977 5.468,-0c1.692,0.977 2.734,2.782 2.734,4.735c0,24.076 0,85.729 0,85.729l-16.489,9.52c-0,0 -0,-61.492 -0,-85.634c-0,-5.919 3.158,-11.389 8.284,-14.348c0.001,-0.001 0.002,-0.002 0.003,-0.002Z"/>
            <path d="M385.491,748.74c1.692,-0.977 3.776,-0.977 5.468,-0c1.692,0.977 2.734,2.782 2.734,4.735c0,24.076 0,85.729 0,85.729l-16.489,9.52l-0,-85.634c-0,-5.919 3.158,-11.389 8.284,-14.348c0.001,-0.001 0.002,-0.002 0.003,-0.002Z"/>
            <path d="M302.96,748.74c-1.691,-0.977 -3.776,-0.977 -5.468,-0c-1.691,0.977 -2.734,2.782 -2.734,4.735l0,85.729l16.489,9.52c0,0 0,-61.492 0,-85.634c0,-5.919 -3.157,-11.389 -8.284,-14.348c-0.001,-0.001 -0.002,-0.002 -0.003,-0.002Z"/>
            <path d="M302.96,891.54c-1.691,-0.977 -3.776,-0.977 -5.468,-0c-1.691,0.977 -2.734,2.782 -2.734,4.735c0,24.076 0,85.729 0,85.729l16.489,9.52c0,0 0,-61.492 0,-85.634c0,-5.919 -3.157,-11.389 -8.284,-14.348c-0.001,-0.001 -0.002,-0.002 -0.003,-0.002Z"/>
            <path d="M426.714,867.74c1.692,-0.977 3.776,-0.977 5.468,-0c1.692,0.977 2.734,2.782 2.734,4.735c-0,24.076 -0,85.729 -0,85.729l-16.489,9.52l-0,-85.634c-0,-5.919 3.158,-11.389 8.284,-14.348c0.001,-0.001 0.002,-0.002 0.003,-0.002Z"/>
            <path d="M426.714,724.94c1.692,-0.977 3.776,-0.977 5.468,-0c1.692,0.977 2.734,2.782 2.734,4.735l-0,85.729l-16.489,9.52l-0,-85.634c-0,-5.919 3.158,-11.389 8.284,-14.348c0.001,-0.001 0.002,-0.002 0.003,-0.002Z"/>
            <path d="M261.738,724.94c-1.692,-0.977 -3.777,-0.977 -5.468,-0c-1.692,0.977 -2.734,2.782 -2.734,4.735l-0,85.729l16.489,9.52c-0,0 -0,-61.492 -0,-85.634c-0,-5.919 -3.158,-11.389 -8.284,-14.348c-0.001,-0.001 -0.002,-0.002 -0.003,-0.002Z"/>
            <path d="M282.349,622.6c-1.692,-0.977 -3.776,-0.977 -5.468,-0c-1.692,0.977 -2.734,2.782 -2.734,4.735c-0,21.363 -0,71.449 -0,71.449l16.489,9.52l0,-71.354c0,-5.919 -3.158,-11.389 -8.284,-14.348c-0.001,-0.001 -0.002,-0.002 -0.003,-0.002Z"/>
            <path d="M406.102,617.84c1.692,-0.977 3.777,-0.977 5.468,-0c1.692,0.977 2.734,2.782 2.734,4.735c0,21.363 0,71.449 0,71.449l-16.489,9.52l0,-71.354c0,-5.919 3.158,-11.389 8.284,-14.348c0.001,-0.001 0.002,-0.002 0.003,-0.002Z"/>
            <path d="M261.738,867.74c-1.692,-0.977 -3.777,-0.977 -5.468,-0c-1.692,0.977 -2.734,2.782 -2.734,4.735c-0,24.076 -0,85.729 -0,85.729l16.489,9.52c-0,0 -0,-61.492 -0,-85.634c-0,-5.919 -3.158,-11.389 -8.284,-14.348c-0.001,-0.001 -0.002,-0.002 -0.003,-0.002Z"/>
            <path d="M612.171,808.266c4.252,-2.455 9.491,-2.455 13.743,0c4.252,2.455 6.871,6.992 6.871,11.902c0,28.198 0,71.396 0,71.396l-41.222,23.8l-0,-74.029c-0,-13.1 6.989,-25.206 18.334,-31.756c0.755,-0.436 1.515,-0.875 2.274,-1.313Z" style="fill:#484848;stroke:#000;stroke-width:12.5px;"/>
            <path d="M694.617,760.666c4.252,-2.455 9.49,-2.455 13.743,0c4.252,2.455 6.871,6.992 6.871,11.902c-0,28.198 -0,71.396 -0,71.396l-41.223,23.8l0,-74.029c0,-13.1 6.989,-25.206 18.335,-31.756c0.755,-0.436 1.514,-0.875 2.274,-1.313Z" style="fill:#484848;stroke:#000;stroke-width:12.5px;"/>
            <path d="M777.062,713.066c4.252,-2.455 9.491,-2.455 13.743,0c4.252,2.455 6.872,6.992 6.872,11.902c-0,28.198 -0,71.396 -0,71.396l-41.223,23.8l-0,-74.029c-0,-13.1 6.989,-25.206 18.334,-31.756c0.756,-0.436 1.515,-0.875 2.274,-1.313Z" style="fill:#484848;stroke:#000;stroke-width:12.5px;"/>
            <path d="M859.508,665.466c4.252,-2.455 9.491,-2.455 13.743,0c4.252,2.455 6.871,6.992 6.871,11.902c0,28.198 0,71.396 0,71.396l-41.223,23.8l0,-74.029c0,-13.1 6.99,-25.206 18.335,-31.756c0.755,-0.436 1.515,-0.875 2.274,-1.313Z" style="fill:#484848;stroke:#000;stroke-width:12.5px;"/>
            <path d="M941.953,617.866c4.253,-2.455 9.491,-2.455 13.743,0c4.252,2.455 6.872,6.992 6.872,11.902c-0,28.198 -0,71.396 -0,71.396l-41.223,23.8l0,-74.029c0,-13.1 6.989,-25.206 18.335,-31.756c0.755,-0.436 1.514,-0.875 2.273,-1.313Z" style="fill:#484848;stroke:#000;stroke-width:12.5px;"/>
            <path d="M1003.79,1486.56l-577.12,-333.2l123.669,-71.4l453.451,261.8l453.451,-261.8l123.668,71.4l-577.119,333.2Z" style="fill:#62b54a;stroke:#000;stroke-width:12.5px;"/>
            <path d="M1003.79,1343.76l-494.674,-285.6l41.223,-23.8l453.451,261.8l453.451,-261.8l41.222,23.8l-494.673,285.6Z" style="fill:#62b54a;stroke:#000;stroke-width:12.5px;"/>
            <path d="M880.122,939.164l288.56,166.6l-164.891,95.2l-288.56,-166.6l164.891,-95.2Z" style="fill:#7e99dc;stroke:#000;stroke-width:12.5px;"/>
            <path d="M880.122,939.164l0,-47.6l-206.114,119l41.223,23.8l164.891,-95.2Z" style="fill:#808184;stroke:#000;stroke-width:12.5px;"/>
            <path d="M880.122,939.164l0,-47.6l329.783,190.4l-41.223,23.8l-288.56,-166.6Z" style="fill:#a6a8ab;stroke:#000;stroke-width:12.5px;"/>
            <path d="M1003.79,1438.96l-0,-95.2l-494.674,-285.6l-0,95.2l494.674,285.6Z" style="fill:#4e913b;stroke:#000;stroke-width:12.5px;"/>
            <path d="M1003.79,1438.96l-0,-95.2l494.673,-285.6l0,95.2l-494.673,285.6Z" style="fill:#3b6d2c;stroke:#000;stroke-width:12.5px;"/>
            <path d="M1086.24,724.964c91.006,-52.542 238.777,-52.542 329.783,0c91.006,52.543 91.006,137.858 -0,190.4c-91.006,52.543 -238.777,52.543 -329.783,0c-91.006,-52.542 -91.006,-137.857 0,-190.4Z" style="fill:#d0d2d3;stroke:#000;stroke-width:12.5px;"/>
            <path d="M1086.24,724.964l116.074,53.019l-8.088,-37.136l39.763,29.561l17.142,-84.877l17.143,84.877l39.763,-29.561l-8.088,37.136l116.074,-53.019l-91.831,67.016l64.322,-4.67l-51.202,22.957l147.011,9.897l-147.011,9.898l51.202,22.957l-64.322,-4.67l91.831,67.015l-116.074,-53.018l8.088,37.136l-39.763,-29.561l-17.143,84.877l-17.142,-84.877l-39.763,29.561l8.088,-37.136l-116.074,53.018l91.831,-67.015l-64.322,4.67l51.202,-22.957l-147.011,-9.898l147.011,-9.897l-51.202,-22.957l64.322,4.67l-91.831,-67.016Z" style="fill:#d0d2d3;stroke:#000;stroke-width:8.33px;"/>
            <path d="M1193.42,786.844c31.852,-18.389 83.571,-18.389 115.423,0c31.853,18.39 31.853,48.251 0,66.64c-31.852,18.39 -83.571,18.39 -115.423,0c-31.853,-18.389 -31.853,-48.25 -0,-66.64Z" style="fill:#d0d2d3;stroke:#000;stroke-width:8.33px;"/>
            <g transform="matrix(0.866025,0.5,-4.80741e-17,1,-2752.91,10274)">
                <g transform="matrix(155.283,0,0,155.283,4213.42,-10730.5)">
                </g>
                <text x="3315.99px" y="-10730.5px" style="font-family:'Arial-BoldMT', 'Arial', sans-serif;font-weight:700;font-size:155.283px;">gitterra.com</text>
            </g>
        </g>
    </g>
</svg>
