<?xml version="1.0" encoding="UTF-8" standalone="no"?>
<!DOCTYPE svg PUBLIC "-//W3C//DTD SVG 1.1//EN" "http://www.w3.org/Graphics/SVG/1.1/DTD/svg11.dtd">
<svg width="100%" height="100%" viewBox="0 0 2014 2060" version="1.1" xmlns="http://www.w3.org/2000/svg" xmlns:xlink="http://www.w3.org/1999/xlink" xml:space="preserve" xmlns:serif="http://www.serif.com/" style="fill-rule:evenodd;clip-rule:evenodd;stroke-linecap:round;stroke-linejoin:round;stroke-miterlimit:1.5;">
    <rect id="novaterraprime_tile_7" x="0.96" y="0.438" width="2012.61" height="2059.25" style="fill:none;"/>
    <clipPath id="_clip1">
        <rect x="0.96" y="0.438" width="2012.61" height="2059.25"/>
    </clipPath>
    <g clip-path="url(#_clip1)">
        <g id="tile7">
            <g id="tilebase">
                <path d="M2007.02,1292.85l-0,189.322l-1000.29,577.517l0,-189.322l1000.29,-577.517Z" style="fill:#808184;stroke:#000;stroke-width:12.5px;"/>
                <path d="M1006.73,1869.41l0,189.799l-999.462,-577.04l-0,-189.799l999.462,577.04Z" style="fill:#a6a8ab;stroke:#000;stroke-width:12.5px;"/>
                <path d="M1007.56,715.521l999.711,577.183l-999.711,577.184l-999.711,-577.184l999.711,-577.183Z" style="fill:#d0d2d3;stroke:#000;stroke-width:12.5px;"/>
            </g>
            <path d="M468.519,1129.99l-0,285.6l-206.114,-119l-0,-285.6l206.114,119Z" style="fill:#a6a8ab;stroke:#000;stroke-width:8.33px;"/>
            <path d="M1004.42,582.594l206.114,119l-206.114,119l-206.114,-119l206.114,-119Z" style="fill:#d0d2d3;stroke:#000;stroke-width:8.33px;"/>
            <path id="primary-color" d="M1007.8,792.982l-163.402,-95.713l80.956,-116.63l82.446,212.343Z" style="fill:#4e913b;stroke:#000;stroke-width:8.33px;"/>
            <path id="primary-color-darker" d="M1164.43,702.553l-156.628,90.429l-82.446,-212.343l156.628,-90.429l82.446,212.343Z" style="fill:#3b6d2c;stroke:#000;stroke-width:8.33px;"/>
            <path d="M468.519,891.994c-0,-105.085 73.885,-233.058 164.891,-285.6c49.227,-28.421 93.444,-28.987 123.668,-6.886l206.114,119l-216.004,290.536l-70.329,31.996l-61.979,-44.339c-82.297,36.868 -146.361,-6.855 -146.361,-104.707Z" style="fill:#d0d2d3;stroke:#000;stroke-width:8.33px;"/>
            <path d="M1004.42,820.594l206.114,-119l0,285.6l-742.01,428.4l-0,-285.6l206.114,-119c-0,-105.085 73.885,-233.058 164.891,-285.6c91.006,-52.542 164.891,-9.885 164.891,95.2Z" style="fill:#808184;stroke:#000;stroke-width:8.33px;"/>
            <path d="M468.519,891.994l206.114,119l-206.114,119l-206.114,-119l206.114,-119Z" style="fill:#d0d2d3;stroke:#000;stroke-width:8.33px;"/>
            <path id="primary-color1" serif:id="primary-color" d="M468.519,1104.34l-163.402,-95.714l80.956,-116.63l82.446,212.344Z" style="fill:#4e913b;stroke:#000;stroke-width:8.33px;"/>
            <path id="primary-color-darker1" serif:id="primary-color-darker" d="M625.147,1013.91l-156.628,90.43l-82.446,-212.344l156.628,-90.429l82.446,212.343Z" style="fill:#3b6d2c;stroke:#000;stroke-width:8.33px;"/>
            <path d="M839.524,820.594c22.751,-13.135 41.223,-2.471 41.223,23.8c-0,26.271 -18.472,58.265 -41.223,71.4c-22.752,13.136 -41.223,2.471 -41.223,-23.8c0,-26.271 18.471,-58.264 41.223,-71.4Z"/>
            <path d="M839.524,983.693c13.049,-7.534 23.643,-1.417 23.643,13.651c0,15.067 -10.594,33.417 -23.643,40.951c-13.049,7.534 -23.644,1.417 -23.644,-13.65c0,-15.068 10.595,-33.418 23.644,-40.952Z"/>
            <path d="M757.078,1031.29c13.049,-7.534 23.644,-1.417 23.644,13.651c-0,15.067 -10.595,33.417 -23.644,40.951c-13.049,7.534 -23.643,1.417 -23.643,-13.65c-0,-15.068 10.594,-33.418 23.643,-40.952Z"/>
            <path d="M1169.31,793.293c13.049,-7.534 23.644,-1.417 23.644,13.651c-0,15.067 -10.595,33.417 -23.644,40.951c-13.049,7.534 -23.643,1.417 -23.643,-13.65c-0,-15.068 10.594,-33.418 23.643,-40.952Z"/>
            <path d="M674.633,1078.89c13.049,-7.534 23.643,-1.417 23.643,13.651c0,15.067 -10.594,33.417 -23.643,40.951c-13.05,7.534 -23.644,1.417 -23.644,-13.65c0,-15.068 10.594,-33.418 23.644,-40.952Z"/>
            <path d="M1086.86,840.893c13.049,-7.534 23.643,-1.417 23.643,13.651c0,15.067 -10.594,33.417 -23.643,40.951c-13.049,7.534 -23.644,1.417 -23.644,-13.65c0,-15.068 10.595,-33.418 23.644,-40.952Z"/>
            <path d="M592.187,1126.49c13.049,-7.534 23.643,-1.417 23.643,13.651c0,15.067 -10.594,33.417 -23.643,40.951c-13.049,7.534 -23.643,1.417 -23.643,-13.65c-0,-15.068 10.594,-33.418 23.643,-40.952Z"/>
            <path d="M1004.42,888.493c13.049,-7.534 23.644,-1.417 23.644,13.651c-0,15.067 -10.595,33.417 -23.644,40.951c-13.049,7.534 -23.643,1.417 -23.643,-13.65c-0,-15.068 10.594,-33.418 23.643,-40.952Z"/>
            <path d="M509.741,1174.09c13.05,-7.534 23.644,-1.417 23.644,13.651c-0,15.067 -10.594,33.417 -23.644,40.951c-13.049,7.534 -23.643,1.417 -23.643,-13.65c-0,-15.068 10.594,-33.418 23.643,-40.952Z"/>
            <path d="M427.296,1174.09c-13.049,-7.534 -23.644,-1.417 -23.644,13.651c0,15.067 10.595,33.417 23.644,40.951c13.049,7.534 23.643,1.417 23.643,-13.65c0,-15.068 -10.594,-33.418 -23.643,-40.952Z"/>
            <path d="M364.89,1138.06c-13.049,-7.534 -23.643,-1.417 -23.643,13.651c-0,15.068 10.594,33.417 23.643,40.951c13.049,7.534 23.644,1.418 23.644,-13.65c-0,-15.068 -10.595,-33.418 -23.644,-40.952Z"/>
            <path d="M303.627,1102.69c-13.049,-7.534 -23.643,-1.417 -23.643,13.651c-0,15.067 10.594,33.417 23.643,40.951c13.049,7.534 23.644,1.417 23.644,-13.65c-0,-15.068 -10.595,-33.418 -23.644,-40.952Z"/>
            <path d="M921.969,936.093c13.05,-7.534 23.644,-1.417 23.644,13.651c-0,15.067 -10.594,33.417 -23.644,40.951c-13.049,7.534 -23.643,1.417 -23.643,-13.65c0,-15.068 10.594,-33.418 23.643,-40.952Z"/>
            <path d="M847.448,1054.02c-0,3.022 1.612,5.814 4.229,7.325c2.617,1.511 5.841,1.511 8.458,0c0,36.422 0,128.15 0,128.15l-41.223,23.8l0,-129.264c7.254,-4.188 11.723,-11.928 11.723,-20.304c5.25,-3.031 11.453,-6.612 16.813,-9.707Z"/>
            <path d="M592.187,1296.59l535.897,309.4l-82.446,47.6l-535.897,-309.4l82.446,-47.6Z" style="fill:#62b54a;stroke:#000;stroke-width:8.33px;"/>
            <path d="M1251.75,915.794l535.896,309.4l-82.445,47.6l-535.897,-309.4l82.446,-47.6Z" style="fill:#62b54a;stroke:#000;stroke-width:8.33px;"/>
            <path d="M1045.64,1653.59l-0,95.2l-535.897,-309.4l0,-95.2l535.897,309.4Z" style="fill:#4e913b;stroke:#000;stroke-width:8.33px;"/>
            <path d="M1705.2,1272.79l-0,95.2l-535.897,-309.4l0,-95.2l535.897,309.4Z" style="fill:#4e913b;stroke:#000;stroke-width:8.33px;"/>
            <path d="M1128.08,1605.99l-0,95.2l-82.446,47.6l-0,-95.2l82.446,-47.6Z" style="fill:#3b6d2c;stroke:#000;stroke-width:8.33px;"/>
            <path d="M1787.65,1225.19l0,95.2l-82.445,47.6l-0,-95.2l82.445,-47.6Z" style="fill:#3b6d2c;stroke:#000;stroke-width:8.33px;"/>
            <g>
                <path d="M715.855,1320.31l41.293,23.841l-41.293,23.84l-41.292,-23.84l41.292,-23.841Z" style="fill:#62b54a;stroke:#000;stroke-width:4.17px;"/>
                <path d="M715.855,1201.11l20.647,11.92l-20.647,11.92l-20.646,-11.92l20.646,-11.92Z" style="fill:#62b54a;stroke:#000;stroke-width:4.17px;"/>
                <path d="M719.452,1341.72c0.038,0.208 0.058,0.422 0.058,0.641c0,1.984 -1.638,3.594 -3.655,3.594c-2.017,0 -3.654,-1.61 -3.654,-3.594c-0,-0.219 0.02,-0.433 0.058,-0.641l-0,-62.147l7.193,-0l0,62.147Z" style="fill:#c06100;stroke:#000;stroke-width:4.17px;"/>
                <path d="M715.855,1224.95l0,71.522l-20.646,-11.921l-0,-71.521l20.646,11.92Z" style="fill:#4e913b;stroke:#000;stroke-width:4.17px;"/>
                <path d="M715.855,1224.95l0,71.522l20.647,-11.921l-0,-71.521l-20.647,11.92Z" style="fill:#3b6d2c;stroke:#000;stroke-width:4.17px;"/>
            </g>
            <g>
                <path d="M1086.86,1106.11l41.293,23.841l-41.293,23.84l-41.293,-23.84l41.293,-23.841Z" style="fill:#62b54a;stroke:#000;stroke-width:4.17px;"/>
                <path d="M1086.86,986.911l20.646,11.92l-20.646,11.92l-20.647,-11.92l20.647,-11.92Z" style="fill:#62b54a;stroke:#000;stroke-width:4.17px;"/>
                <path d="M1090.46,1127.52c0.038,0.208 0.058,0.422 0.058,0.641c0,1.984 -1.637,3.594 -3.654,3.594c-2.017,0 -3.655,-1.61 -3.655,-3.594c0,-0.219 0.02,-0.433 0.058,-0.641l0,-62.147l7.193,-0l0,62.147Z" style="fill:#c06100;stroke:#000;stroke-width:4.17px;"/>
                <path d="M1086.86,1010.75l-0,71.522l-20.647,-11.921l0,-71.521l20.647,11.92Z" style="fill:#4e913b;stroke:#000;stroke-width:4.17px;"/>
                <path d="M1086.86,1010.75l-0,71.522l20.646,-11.921l0,-71.521l-20.646,11.92Z" style="fill:#3b6d2c;stroke:#000;stroke-width:4.17px;"/>
            </g>
            <g>
                <path d="M796.502,1366.88l41.293,23.84l-41.293,23.841l-41.293,-23.841l41.293,-23.84Z" style="fill:#62b54a;stroke:#000;stroke-width:4.17px;"/>
                <path d="M796.502,1247.67l20.647,11.92l-20.647,11.921l-20.646,-11.921l20.646,-11.92Z" style="fill:#62b54a;stroke:#000;stroke-width:4.17px;"/>
                <path d="M800.099,1388.28c0.038,0.208 0.058,0.422 0.058,0.641c-0,1.984 -1.638,3.595 -3.655,3.595c-2.017,-0 -3.654,-1.611 -3.654,-3.595c-0,-0.219 0.02,-0.433 0.058,-0.641l-0,-62.147l7.193,0l-0,62.147Z" style="fill:#c06100;stroke:#000;stroke-width:4.17px;"/>
                <path d="M796.502,1271.51l0,71.521l-20.646,-11.92l-0,-71.522l20.646,11.921Z" style="fill:#4e913b;stroke:#000;stroke-width:4.17px;"/>
                <path d="M796.502,1271.51l0,71.521l20.647,-11.92l-0,-71.522l-20.647,11.921Z" style="fill:#3b6d2c;stroke:#000;stroke-width:4.17px;"/>
            </g>
            <g>
                <path d="M1167.51,1152.67l41.292,23.84l-41.292,23.841l-41.293,-23.841l41.293,-23.84Z" style="fill:#62b54a;stroke:#000;stroke-width:4.17px;"/>
                <path d="M1167.51,1033.47l20.646,11.92l-20.646,11.921l-20.647,-11.921l20.647,-11.92Z" style="fill:#62b54a;stroke:#000;stroke-width:4.17px;"/>
                <path d="M1171.1,1174.08c0.038,0.208 0.058,0.422 0.058,0.641c0,1.984 -1.637,3.595 -3.654,3.595c-2.018,-0 -3.655,-1.611 -3.655,-3.595c-0,-0.219 0.02,-0.433 0.058,-0.641l-0,-62.147l7.193,0l0,62.147Z" style="fill:#c06100;stroke:#000;stroke-width:4.17px;"/>
                <path d="M1167.51,1057.31l-0,71.521l-20.647,-11.92l0,-71.522l20.647,11.921Z" style="fill:#4e913b;stroke:#000;stroke-width:4.17px;"/>
                <path d="M1167.51,1057.31l-0,71.521l20.646,-11.92l-0,-71.522l-20.646,11.921Z" style="fill:#3b6d2c;stroke:#000;stroke-width:4.17px;"/>
            </g>
            <g>
                <path d="M880.747,1415.51l41.293,23.841l-41.293,23.84l-41.293,-23.84l41.293,-23.841Z" style="fill:#62b54a;stroke:#000;stroke-width:4.17px;"/>
                <path d="M880.747,1296.31l20.646,11.92l-20.646,11.92l-20.647,-11.92l20.647,-11.92Z" style="fill:#62b54a;stroke:#000;stroke-width:4.17px;"/>
                <path d="M884.343,1436.92c0.038,0.208 0.058,0.422 0.058,0.641c0,1.984 -1.637,3.594 -3.654,3.594c-2.017,0 -3.655,-1.61 -3.655,-3.594c0,-0.219 0.02,-0.433 0.058,-0.641l0,-62.147l7.193,-0l0,62.147Z" style="fill:#c06100;stroke:#000;stroke-width:4.17px;"/>
                <path d="M880.747,1320.15l-0,71.522l-20.647,-11.921l0,-71.521l20.647,11.92Z" style="fill:#4e913b;stroke:#000;stroke-width:4.17px;"/>
                <path d="M880.747,1320.15l-0,71.522l20.646,-11.921l0,-71.521l-20.646,11.92Z" style="fill:#3b6d2c;stroke:#000;stroke-width:4.17px;"/>
            </g>
            <g>
                <path d="M1251.75,1201.31l41.293,23.841l-41.293,23.84l-41.293,-23.84l41.293,-23.841Z" style="fill:#62b54a;stroke:#000;stroke-width:4.17px;"/>
                <path d="M1251.75,1082.11l20.646,11.92l-20.646,11.92l-20.647,-11.92l20.647,-11.92Z" style="fill:#62b54a;stroke:#000;stroke-width:4.17px;"/>
                <path d="M1255.35,1222.72c0.038,0.208 0.058,0.422 0.058,0.641c-0,1.984 -1.638,3.594 -3.655,3.594c-2.017,0 -3.655,-1.61 -3.655,-3.594c0,-0.219 0.02,-0.433 0.058,-0.641l0,-62.147l7.194,-0l-0,62.147Z" style="fill:#c06100;stroke:#000;stroke-width:4.17px;"/>
                <path d="M1251.75,1105.95l-0,71.522l-20.647,-11.921l0,-71.521l20.647,11.92Z" style="fill:#4e913b;stroke:#000;stroke-width:4.17px;"/>
                <path d="M1251.75,1105.95l-0,71.522l20.646,-11.921l0,-71.521l-20.646,11.92Z" style="fill:#3b6d2c;stroke:#000;stroke-width:4.17px;"/>
            </g>
            <g>
                <path d="M963.192,1463.11l41.293,23.841l-41.293,23.84l-41.293,-23.84l41.293,-23.841Z" style="fill:#62b54a;stroke:#000;stroke-width:4.17px;"/>
                <path d="M963.192,1343.91l20.647,11.92l-20.647,11.92l-20.646,-11.92l20.646,-11.92Z" style="fill:#62b54a;stroke:#000;stroke-width:4.17px;"/>
                <path d="M966.789,1484.52c0.038,0.208 0.058,0.422 0.058,0.641c-0,1.984 -1.638,3.594 -3.655,3.594c-2.017,0 -3.654,-1.61 -3.654,-3.594c-0,-0.219 0.02,-0.433 0.058,-0.641l-0,-62.147l7.193,-0l-0,62.147Z" style="fill:#c06100;stroke:#000;stroke-width:4.17px;"/>
                <path d="M963.192,1367.75l0,71.522l-20.646,-11.921l-0,-71.521l20.646,11.92Z" style="fill:#4e913b;stroke:#000;stroke-width:4.17px;"/>
                <path d="M963.192,1367.75l0,71.522l20.647,-11.921l-0,-71.521l-20.647,11.92Z" style="fill:#3b6d2c;stroke:#000;stroke-width:4.17px;"/>
            </g>
            <g>
                <path d="M1334.2,1248.91l41.292,23.841l-41.292,23.84l-41.293,-23.84l41.293,-23.841Z" style="fill:#62b54a;stroke:#000;stroke-width:4.17px;"/>
                <path d="M1334.2,1129.71l20.646,11.92l-20.646,11.92l-20.647,-11.92l20.647,-11.92Z" style="fill:#62b54a;stroke:#000;stroke-width:4.17px;"/>
                <path d="M1337.79,1270.32c0.038,0.208 0.058,0.422 0.058,0.641c0,1.984 -1.637,3.594 -3.654,3.594c-2.017,0 -3.655,-1.61 -3.655,-3.594c-0,-0.219 0.02,-0.433 0.058,-0.641l-0,-62.147l7.193,-0l0,62.147Z" style="fill:#c06100;stroke:#000;stroke-width:4.17px;"/>
                <path d="M1334.2,1153.55l-0,71.522l-20.647,-11.921l0,-71.521l20.647,11.92Z" style="fill:#4e913b;stroke:#000;stroke-width:4.17px;"/>
                <path d="M1334.2,1153.55l-0,71.522l20.646,-11.921l0,-71.521l-20.646,11.92Z" style="fill:#3b6d2c;stroke:#000;stroke-width:4.17px;"/>
            </g>
            <g>
                <path d="M1045.64,1510.71l41.293,23.841l-41.293,23.84l-41.293,-23.84l41.293,-23.841Z" style="fill:#62b54a;stroke:#000;stroke-width:4.17px;"/>
                <path d="M1045.64,1391.51l20.646,11.92l-20.646,11.92l-20.647,-11.92l20.647,-11.92Z" style="fill:#62b54a;stroke:#000;stroke-width:4.17px;"/>
                <path d="M1049.24,1532.12c0.038,0.208 0.058,0.422 0.058,0.641c-0,1.984 -1.638,3.594 -3.655,3.594c-2.017,0 -3.655,-1.61 -3.655,-3.594c0,-0.219 0.02,-0.433 0.058,-0.641l0,-62.147l7.194,-0l-0,62.147Z" style="fill:#c06100;stroke:#000;stroke-width:4.17px;"/>
                <path d="M1045.64,1415.35l-0,71.522l-20.647,-11.921l0,-71.521l20.647,11.92Z" style="fill:#4e913b;stroke:#000;stroke-width:4.17px;"/>
                <path d="M1045.64,1415.35l-0,71.522l20.646,-11.921l0,-71.521l-20.646,11.92Z" style="fill:#3b6d2c;stroke:#000;stroke-width:4.17px;"/>
            </g>
            <g>
                <path d="M1416.64,1296.51l41.293,23.841l-41.293,23.84l-41.293,-23.84l41.293,-23.841Z" style="fill:#62b54a;stroke:#000;stroke-width:4.17px;"/>
                <path d="M1416.64,1177.31l20.647,11.92l-20.647,11.92l-20.646,-11.92l20.646,-11.92Z" style="fill:#62b54a;stroke:#000;stroke-width:4.17px;"/>
                <path d="M1420.24,1317.92c0.038,0.208 0.058,0.422 0.058,0.641c-0,1.984 -1.638,3.594 -3.655,3.594c-2.017,0 -3.654,-1.61 -3.654,-3.594c-0,-0.219 0.019,-0.433 0.058,-0.641l-0,-62.147l7.193,-0l-0,62.147Z" style="fill:#c06100;stroke:#000;stroke-width:4.17px;"/>
                <path d="M1416.64,1201.15l0,71.522l-20.646,-11.921l-0,-71.521l20.646,11.92Z" style="fill:#4e913b;stroke:#000;stroke-width:4.17px;"/>
                <path d="M1416.64,1201.15l0,71.522l20.647,-11.921l-0,-71.521l-20.647,11.92Z" style="fill:#3b6d2c;stroke:#000;stroke-width:4.17px;"/>
            </g>
            <g>
                <path d="M1128.08,1558.31l41.292,23.841l-41.292,23.84l-41.293,-23.84l41.293,-23.841Z" style="fill:#62b54a;stroke:#000;stroke-width:4.17px;"/>
                <path d="M1128.08,1439.11l20.646,11.92l-20.646,11.92l-20.647,-11.92l20.647,-11.92Z" style="fill:#62b54a;stroke:#000;stroke-width:4.17px;"/>
                <path d="M1131.68,1579.72c0.038,0.208 0.058,0.422 0.058,0.641c0,1.984 -1.637,3.594 -3.654,3.594c-2.018,0 -3.655,-1.61 -3.655,-3.594c-0,-0.219 0.02,-0.433 0.058,-0.641l-0,-62.147l7.193,-0l0,62.147Z" style="fill:#c06100;stroke:#000;stroke-width:4.17px;"/>
                <path d="M1128.08,1462.95l-0,71.522l-20.647,-11.921l0,-71.521l20.647,11.92Z" style="fill:#4e913b;stroke:#000;stroke-width:4.17px;"/>
                <path d="M1128.08,1462.95l-0,71.522l20.646,-11.921l-0,-71.521l-20.646,11.92Z" style="fill:#3b6d2c;stroke:#000;stroke-width:4.17px;"/>
            </g>
            <g>
                <path d="M1499.09,1344.11l41.293,23.841l-41.293,23.84l-41.293,-23.84l41.293,-23.841Z" style="fill:#62b54a;stroke:#000;stroke-width:4.17px;"/>
                <path d="M1499.09,1224.91l20.646,11.92l-20.646,11.92l-20.647,-11.92l20.647,-11.92Z" style="fill:#62b54a;stroke:#000;stroke-width:4.17px;"/>
                <path d="M1502.68,1365.52c0.039,0.208 0.058,0.422 0.058,0.641c0,1.984 -1.637,3.594 -3.654,3.594c-2.017,0 -3.655,-1.61 -3.655,-3.594c0,-0.219 0.02,-0.433 0.058,-0.641l0,-62.147l7.193,-0l0,62.147Z" style="fill:#c06100;stroke:#000;stroke-width:4.17px;"/>
                <path d="M1499.09,1248.75l-0,71.522l-20.647,-11.921l0,-71.521l20.647,11.92Z" style="fill:#4e913b;stroke:#000;stroke-width:4.17px;"/>
                <path d="M1499.09,1248.75l-0,71.522l20.646,-11.921l0,-71.521l-20.646,11.92Z" style="fill:#3b6d2c;stroke:#000;stroke-width:4.17px;"/>
            </g>
            <g>
                <path d="M1210.67,1605.83l41.293,23.841l-41.293,23.84l-41.293,-23.84l41.293,-23.841Z" style="fill:#62b54a;stroke:#000;stroke-width:4.17px;"/>
                <path d="M1210.67,1486.63l20.647,11.92l-20.647,11.92l-20.646,-11.92l20.646,-11.92Z" style="fill:#62b54a;stroke:#000;stroke-width:4.17px;"/>
                <path d="M1214.27,1627.24c0.038,0.208 0.058,0.422 0.058,0.641c-0,1.984 -1.638,3.594 -3.655,3.594c-2.017,0 -3.654,-1.61 -3.654,-3.594c-0,-0.219 0.02,-0.433 0.058,-0.641l-0,-62.147l7.193,0l-0,62.147Z" style="fill:#c06100;stroke:#000;stroke-width:4.17px;"/>
                <path d="M1210.67,1510.47l0,71.522l-20.646,-11.921l-0,-71.521l20.646,11.92Z" style="fill:#4e913b;stroke:#000;stroke-width:4.17px;"/>
                <path d="M1210.67,1510.47l0,71.522l20.647,-11.921l-0,-71.521l-20.647,11.92Z" style="fill:#3b6d2c;stroke:#000;stroke-width:4.17px;"/>
            </g>
            <g>
                <path d="M1581.67,1391.63l41.293,23.841l-41.293,23.84l-41.293,-23.84l41.293,-23.841Z" style="fill:#62b54a;stroke:#000;stroke-width:4.17px;"/>
                <path d="M1581.67,1272.43l20.646,11.92l-20.646,11.92l-20.647,-11.92l20.647,-11.92Z" style="fill:#62b54a;stroke:#000;stroke-width:4.17px;"/>
                <path d="M1585.27,1413.04c0.038,0.208 0.058,0.422 0.058,0.641c0,1.984 -1.637,3.594 -3.654,3.594c-2.017,0 -3.655,-1.61 -3.655,-3.594c-0,-0.219 0.02,-0.433 0.058,-0.641l0,-62.147l7.193,0l0,62.147Z" style="fill:#c06100;stroke:#000;stroke-width:4.17px;"/>
                <path d="M1581.67,1296.27l-0,71.522l-20.647,-11.921l0,-71.521l20.647,11.92Z" style="fill:#4e913b;stroke:#000;stroke-width:4.17px;"/>
                <path d="M1581.67,1296.27l-0,71.522l20.646,-11.921l0,-71.521l-20.646,11.92Z" style="fill:#3b6d2c;stroke:#000;stroke-width:4.17px;"/>
            </g>
            <g transform="matrix(0.866025,0.5,-4.80741e-17,1,-2753.71,10277)">
                <g transform="matrix(155.283,0,0,155.283,4207.46,-10444.5)">
                </g>
                <text x="3310.03px" y="-10444.5px" style="font-family:'Arial-BoldMT', 'Arial', sans-serif;font-weight:700;font-size:155.283px;">gitterra.com</text>
            </g>
        </g>
    </g>
</svg>
