<?xml version="1.0" encoding="UTF-8" standalone="no"?>
<!DOCTYPE svg PUBLIC "-//W3C//DTD SVG 1.1//EN" "http://www.w3.org/Graphics/SVG/1.1/DTD/svg11.dtd">
<svg width="100%" height="100%" viewBox="0 0 2014 2710" version="1.1" xmlns="http://www.w3.org/2000/svg" xmlns:xlink="http://www.w3.org/1999/xlink" xml:space="preserve" xmlns:serif="http://www.serif.com/" style="fill-rule:evenodd;clip-rule:evenodd;stroke-linecap:round;stroke-linejoin:round;stroke-miterlimit:1.5;">
    <rect id="novaterraprime_tile_8" x="0.591" y="0" width="2012.61" height="2709.69" style="fill:none;"/>
    <clipPath id="_clip1">
        <rect x="0.591" y="0" width="2012.61" height="2709.69"/>
    </clipPath>
    <g clip-path="url(#_clip1)">
        <g id="tile8">
            <g id="tilebase">
                <path d="M2006.65,1942.85l0,189.322l-1000.29,577.517l-0,-189.322l1000.29,-577.517Z" style="fill:#808184;stroke:#000;stroke-width:12.5px;"/>
                <path d="M1006.36,2519.41l-0,189.799l-999.463,-577.04l0,-189.799l999.463,577.04Z" style="fill:#a6a8ab;stroke:#000;stroke-width:12.5px;"/>
                <path d="M1007.19,1365.52l999.711,577.183l-999.711,577.184l-999.711,-577.184l999.711,-577.183Z" style="fill:#d0d2d3;stroke:#000;stroke-width:12.5px;"/>
            </g>
            <g transform="matrix(0.866025,0.5,-4.80741e-17,1,-2753.76,10277.2)">
                <g transform="matrix(155.283,0,0,155.283,4207.09,-9794.53)">
                </g>
                <text x="3309.66px" y="-9794.53px" style="font-family:'Arial-BoldMT', 'Arial', sans-serif;font-weight:700;font-size:155.283px;">gitterra.com</text>
            </g>
            <path d="M1127.71,1246.79l-0,666.4l-288.56,-166.6l0,-666.4l288.56,166.6Z" style="fill:#a6a8ab;stroke:#000;stroke-width:8.33px;"/>
            <path d="M1127.71,1246.79l-0,666.4l209.254,-120.813l-0,-666.4l-209.254,120.813Z" style="fill:#808184;stroke:#000;stroke-width:8.33px;"/>
            <path d="M1045.27,961.186l288.56,166.6l-206.114,119l-288.56,-166.6l206.114,-119Z" style="fill:#d0d2d3;stroke:#000;stroke-width:8.33px;"/>
            <path d="M1127.71,770.786l-0,428.4l-247.337,-142.8l0,-428.4l247.337,142.8Z" style="fill:#a6a8ab;stroke:#000;stroke-width:8.33px;"/>
            <path d="M1292.61,675.586l0,428.4l-164.891,95.2l-0,-428.4l164.891,-95.2Z" style="fill:#808184;stroke:#000;stroke-width:8.33px;"/>
            <path d="M1045.27,532.786l247.337,142.8l-164.891,95.2l-247.337,-142.8l164.891,-95.2Z" style="fill:#d0d2d3;stroke:#000;stroke-width:8.33px;"/>
            <path d="M921.601,1175.39l41.223,23.8l-41.223,23.8l-41.223,-23.8l41.223,-23.8Z" style="fill:#d0d2d3;stroke:#000;stroke-width:8.33px;"/>
            <path d="M1251.38,1270.59l-41.222,23.8l41.222,23.8l41.223,-23.8l-41.223,-23.8Z" style="fill:#d0d2d3;stroke:#000;stroke-width:8.33px;"/>
            <path d="M921.601,1222.99l-0,238l-41.223,-23.8l0,-238l41.223,23.8Z" style="fill:#a6a8ab;stroke:#000;stroke-width:8.33px;"/>
            <path d="M1251.38,1318.19l0,238l41.223,-23.8l0,-238l-41.223,23.8Z" style="fill:#808184;stroke:#000;stroke-width:8.33px;"/>
            <path d="M962.824,1199.19l-0,285.6l-41.223,-23.8l-0,-238l41.223,-23.8Z" style="fill:#808184;stroke:#000;stroke-width:8.33px;"/>
            <path d="M1210.16,1294.39l-0,285.6l41.222,-23.8l0,-238l-41.222,-23.8Z" style="fill:#a6a8ab;stroke:#000;stroke-width:8.33px;"/>
            <path d="M1168.94,413.786l-0,428.4l-329.783,-190.4l0,-428.4l329.783,190.4Z" style="fill:#a6a8ab;stroke:#000;stroke-width:8.33px;"/>
            <path d="M1375.05,294.786l-0,428.4l-206.114,119l-0,-428.4l206.114,-119Z" style="fill:#808184;stroke:#000;stroke-width:8.33px;"/>
            <path d="M1045.27,104.386l329.783,190.4l-206.114,119l-329.783,-190.4l206.114,-119Z" style="fill:#d0d2d3;stroke:#000;stroke-width:8.33px;"/>
            <path d="M1086.49,413.786l41.223,23.8l-123.668,71.4l-41.223,-23.8l123.668,-71.4Z" style="fill:#d0d2d3;stroke:#000;stroke-width:8.33px;"/>
            <path d="M1004.05,508.986l-0,190.4l-41.223,-23.8l-0,-190.4l41.223,23.8Z" style="fill:#a6a8ab;stroke:#000;stroke-width:8.33px;"/>
            <path d="M1127.71,437.586l-0,333.2l-123.668,-71.4l-0,-190.4l123.668,-71.4Z" style="fill:#808184;stroke:#000;stroke-width:8.33px;"/>
            <path d="M1313.71,615.8c1.775,-1.025 3.962,-1.025 5.738,0c1.775,1.025 2.869,2.919 2.869,4.969c-0,24.397 -0,85.262 -0,85.262l-20.612,11.9l0,-81.341c0,-8.576 4.575,-16.501 12.002,-20.789c0.001,0 0.002,-0 0.003,-0.001Z"/>
            <path d="M1231.65,663.179c1.775,-1.025 3.962,-1.025 5.738,0c1.775,1.025 2.869,2.92 2.869,4.97c-0,24.396 -0,85.261 -0,85.261l-20.612,11.9c0,0 0,-54.932 0,-81.341c0,-8.576 4.575,-16.5 12.002,-20.788c0.001,-0.001 0.002,-0.001 0.003,-0.002Z"/>
            <path d="M1180.94,930.455c1.776,-1.025 3.963,-1.025 5.738,0c1.776,1.025 2.869,2.919 2.869,4.969c0,24.397 0,85.262 0,85.262l-20.611,11.9c-0,-0 -0,-54.932 -0,-81.341c-0,-8.576 4.575,-16.501 12.002,-20.788c0.001,-0.001 0.001,-0.001 0.002,-0.002Z"/>
            <path d="M1222.16,954.255c1.775,-1.025 3.963,-1.025 5.738,0c1.775,1.025 2.869,2.919 2.869,4.969c0,24.397 0,85.262 0,85.262l-20.611,11.9l-0,-81.341c-0,-8.576 4.575,-16.501 12.002,-20.788c0,-0.001 0.001,-0.001 0.002,-0.002Z"/>
            <path d="M1263.39,978.055c1.775,-1.025 3.962,-1.025 5.738,0c1.775,1.025 2.869,2.919 2.869,4.969c-0,24.397 -0,85.262 -0,85.262l-20.612,11.9c0,-0 0,-54.932 0,-81.341c0,-8.576 4.576,-16.501 12.002,-20.788c0.001,-0.001 0.002,-0.001 0.003,-0.002Z"/>
            <path d="M1053.88,966.155c-1.775,-1.025 -3.962,-1.025 -5.738,0c-1.775,1.025 -2.869,2.919 -2.869,4.969c0,24.397 0,85.262 0,85.262l20.612,11.9l-0,-81.341c-0,-8.576 -4.575,-16.501 -12.002,-20.788c-0.001,-0.001 -0.002,-0.001 -0.003,-0.002Z"/>
            <path d="M971.431,823.355c-1.776,-1.025 -3.963,-1.025 -5.738,0c-1.776,1.025 -2.869,2.919 -2.869,4.969c-0,24.397 -0,85.262 -0,85.262l20.611,11.9c0,-0 0,-54.932 0,-81.341c0,-8.576 -4.575,-16.501 -12.002,-20.788c-0.001,-0.001 -0.001,-0.001 -0.002,-0.002Z"/>
            <path d="M930.208,561.555c-1.775,-1.025 -3.963,-1.025 -5.738,0c-1.775,1.025 -2.869,2.919 -2.869,4.969c-0,24.397 -0,85.262 -0,85.262l20.611,11.9l0,-81.341c0,-8.576 -4.575,-16.501 -12.002,-20.788c-0,-0.001 -0.001,-0.001 -0.002,-0.002Z"/>
            <path d="M888.985,490.155c-1.775,-1.025 -3.963,-1.025 -5.738,0c-1.775,1.025 -2.869,2.919 -2.869,4.969c0,24.397 0,85.262 0,85.262l20.612,11.9l-0,-81.341c-0,-8.576 -4.576,-16.501 -12.002,-20.788c-0.001,-0.001 -0.002,-0.001 -0.003,-0.002Z"/>
            <path d="M888.985,347.355c-1.775,-1.025 -3.963,-1.025 -5.738,0c-1.775,1.025 -2.869,2.919 -2.869,4.969c0,24.397 0,85.262 0,85.262l20.612,11.9l-0,-81.341c-0,-8.576 -4.576,-16.501 -12.002,-20.788c-0.001,-0.001 -0.002,-0.001 -0.003,-0.002Z"/>
            <path d="M1015.5,1277.2c-1.775,-1.025 -3.963,-1.025 -5.738,-0c-1.775,1.025 -2.869,2.919 -2.869,4.969c0,24.397 0,85.262 0,85.262l20.612,11.9c-0,-0 -0,-54.932 -0,-81.342c-0,-8.575 -4.576,-16.5 -12.002,-20.788c-0.001,-0 -0.002,-0.001 -0.003,-0.001Z"/>
            <path d="M1053.88,1489.76c-1.775,-1.025 -3.962,-1.025 -5.738,0c-1.775,1.025 -2.869,2.919 -2.869,4.969c0,24.397 0,85.262 0,85.262l20.612,11.9l-0,-81.341c-0,-8.576 -4.575,-16.501 -12.002,-20.788c-0.001,-0.001 -0.002,-0.001 -0.003,-0.002Z"/>
            <path d="M888.985,1632.56c-1.775,-1.025 -3.963,-1.025 -5.738,0c-1.775,1.025 -2.869,2.919 -2.869,4.969c0,24.397 0,85.262 0,85.262l20.612,11.9l-0,-81.341c-0,-8.576 -4.576,-16.501 -12.002,-20.788c-0.001,-0.001 -0.002,-0.001 -0.003,-0.002Z"/>
            <path d="M971.431,1680.15c-1.776,-1.025 -3.963,-1.025 -5.738,0c-1.776,1.025 -2.869,2.919 -2.869,4.969c-0,24.397 -0,85.262 -0,85.262l20.611,11.9c0,-0 0,-54.932 0,-81.341c0,-8.576 -4.575,-16.501 -12.002,-20.788c-0.001,-0.001 -0.001,-0.001 -0.002,-0.002Z"/>
            <path d="M1053.88,1727.76c-1.775,-1.025 -3.962,-1.025 -5.738,0c-1.775,1.025 -2.869,2.919 -2.869,4.969c0,24.397 0,85.262 0,85.262l20.612,11.9l-0,-81.341c-0,-8.576 -4.575,-16.501 -12.002,-20.788c-0.001,-0.001 -0.002,-0.001 -0.003,-0.002Z"/>
            <path d="M1180.94,1692.06c1.776,-1.025 3.963,-1.025 5.738,0c1.776,1.025 2.869,2.919 2.869,4.969c0,24.397 0,85.262 0,85.262l-20.611,11.9c-0,-0 -0,-54.932 -0,-81.341c-0,-8.576 4.575,-16.501 12.002,-20.788c0.001,-0.001 0.001,-0.001 0.002,-0.002Z"/>
            <path d="M1304.61,1620.65c1.775,-1.025 3.962,-1.025 5.738,0c1.775,1.025 2.869,2.919 2.869,4.969c-0,24.397 -0,85.262 -0,85.262l-20.612,11.9l0,-81.341c0,-8.576 4.575,-16.501 12.002,-20.788c0.001,-0.001 0.002,-0.001 0.003,-0.002Z"/>
            <path d="M1253.08,1650.4c1.775,-1.025 3.963,-1.025 5.738,0c1.775,1.025 2.869,2.919 2.869,4.969c0,39.134 0,180.462 0,180.462l-20.611,11.9c-0,-0 -0,-132.715 -0,-176.541c-0,-8.576 4.575,-16.501 12.002,-20.788c0.001,-0.001 0.001,-0.001 0.002,-0.002Z"/>
            <path d="M1273.69,496.105c1.775,-1.025 3.962,-1.025 5.738,0c1.775,1.025 2.869,2.919 2.869,4.969c-0,24.397 -0,85.262 -0,85.262l-20.612,11.9l0,-81.341c0,-8.576 4.575,-16.501 12.002,-20.788c0.001,-0.001 0.002,-0.001 0.003,-0.002Z"/>
            <path d="M1273.69,400.905c1.775,-1.025 3.962,-1.025 5.738,0c1.775,1.025 2.869,2.919 2.869,4.969c-0,13.953 -0,37.662 -0,37.662l-20.612,11.9c0,-0 0,-19.689 0,-33.741c0,-8.576 4.575,-16.501 12.002,-20.788c0.001,-0.001 0.002,-0.001 0.003,-0.002Z"/>
            <path d="M1128.78,199.552l163.822,94.583l-29.145,16.827l-163.823,-94.583l29.146,-16.827Z"/>
            <path d="M1281.44,291.601l4.732,2.731l-23.157,13.37l-4.731,-2.732l23.156,-13.369Z" style="fill:#d0d2d3;"/>
            <path d="M1258.36,287.349l4.731,2.732l-15.298,8.832l-4.732,-2.732l15.299,-8.832Z" style="fill:#d0d2d3;"/>
            <path d="M1235.65,283.07l4.732,2.732l-7.65,4.416l-4.731,-2.732l7.649,-4.416Z" style="fill:#d0d2d3;"/>
            <path d="M1270.53,289.396l4.732,2.732l-19.611,11.322l-4.732,-2.731l19.611,-11.323Z" style="fill:#d0d2d3;"/>
            <path d="M1246.18,285.873l4.732,2.732l-10.491,6.057l-4.731,-2.732l10.49,-6.057Z" style="fill:#d0d2d3;"/>
            <path d="M1224.46,281.026l4.731,2.732l-3.824,2.208l-4.732,-2.731l3.825,-2.209Z" style="fill:#d0d2d3;"/>
            <path d="M1004.05,175.786l82.445,47.6l-82.445,47.6l-82.446,-47.6l82.446,-47.6Z" style="fill:#62b54a;stroke:#000;stroke-width:8.33px;"/>
            <path id="primary-color-darker" d="M1004.05,270.986l-0,-238l82.445,190.4l-82.445,47.6Z" style="fill:#3b6d2c;stroke:#000;stroke-width:8.33px;"/>
            <path id="primary-color" d="M1004.05,270.986l-0,-238l-82.446,190.4l82.446,47.6Z" style="fill:#4e913b;stroke:#000;stroke-width:8.33px;"/>
            <path id="primary-color-darker1" serif:id="primary-color-darker" d="M1086.49,461.386l0,476l-17.881,-84.876l-23.342,108.676l0,-476l41.223,-23.8Z" style="fill:#4e913b;stroke:#000;stroke-width:8.33px;"/>
            <path id="primary-color-darker2" serif:id="primary-color-darker" d="M1210.16,389.986l-0,476l-17.882,-84.876l-23.341,108.676l-0,-476l41.223,-23.8Z" style="fill:#4e913b;stroke:#000;stroke-width:8.33px;"/>
            <path id="primary-color-darker3" serif:id="primary-color-darker" d="M1375.05,294.786l-0,476l-17.882,-84.876l-23.341,108.676l0,-476l41.223,-23.8Z" style="fill:#4e913b;stroke:#000;stroke-width:8.33px;"/>
            <path id="primary-color-darker4" serif:id="primary-color-darker" d="M1168.94,1222.99l-0,380.8l-17.882,-84.876l-23.341,108.676l-0,-380.8l41.223,-23.8Z" style="fill:#4e913b;stroke:#000;stroke-width:8.33px;"/>
            <path id="primary-color-darker5" serif:id="primary-color-darker" d="M1333.83,1127.79l0,380.8l-17.882,-84.876l-23.341,108.676l0,-380.8l41.223,-23.8Z" style="fill:#4e913b;stroke:#000;stroke-width:8.33px;"/>
            <path d="M913.896,1912.59c40.268,32.23 35.288,77.524 -14.94,106.524c-55.756,32.191 -146.291,32.191 -202.047,-0c-55.756,-32.191 -55.756,-84.461 0,-116.652c50.228,-28.999 128.68,-31.875 184.505,-8.625l65.169,-37.626l222.355,128.377l157.879,-91.151l-63.128,-36.447l31.624,-18.258l104.35,60.247l-230.725,133.209l-231.096,-133.424l-23.946,13.826Zm-189.034,6.01c-40.329,23.284 -40.329,61.092 -0,84.375c40.329,23.284 105.813,23.284 146.142,0c40.328,-23.283 40.328,-61.091 -0,-84.375c-40.329,-23.284 -105.813,-23.284 -146.142,0Z" style="fill:#a6a8ab;stroke:#000;stroke-width:8.33px;"/>
            <path d="M739.648,1961.08l-0.515,0l-0,-51.448l116.333,-0l-0,45.746c2.892,10.317 -2.545,21.264 -16.311,29.212c-22.751,13.136 -59.694,13.136 -82.445,-0c-11.248,-6.494 -16.935,-14.991 -17.062,-23.51Z" style="fill:#a6a8ab;stroke:#000;stroke-width:8.33px;"/>
            <path d="M756.71,1889.39c22.751,-13.136 59.694,-13.136 82.445,-0c22.752,13.136 22.752,34.464 0,47.6c-22.751,13.136 -59.694,13.136 -82.445,-0c-22.752,-13.136 -22.752,-34.464 -0,-47.6Z" style="fill:#d0d2d3;stroke:#000;stroke-width:8.33px;"/>
            <path d="M781.252,1913.54l-0.054,0l-0,-104.505l32.501,-0l0,104.505l-0.21,0c-0.302,5.073 -7.409,9.136 -16.119,9.136c-8.709,0 -15.816,-4.063 -16.118,-9.136Z" style="fill:#d0d2d3;stroke:#000;stroke-width:8.33px;"/>
            <circle cx="789.776" cy="1749.92" r="101.863" style="fill:#ffb430;stroke:#000;stroke-width:8.33px;"/>
            <path d="M875.934,1698.11c53.2,-9.152 90.139,-9.89 92.75,-0.148c3.999,14.927 -74.092,48.84 -174.279,75.685c-100.186,26.845 -184.772,36.521 -188.772,21.595c-2.654,-9.907 30.849,-28.176 82.973,-47.192l0.231,11.636c-29.166,11.052 -46.907,20.549 -45.586,25.476c2.437,9.095 68.898,-0.8 148.323,-22.082c79.425,-21.281 141.929,-45.943 139.492,-55.038c-1.287,-4.804 -20.442,-4.31 -49.936,0.364l-5.196,-10.296Z" style="fill:#ffb430;stroke:#000;stroke-width:8.33px;"/>
            <path d="M633.041,1830.99l71.185,41.099l-71.185,41.098l-71.184,-41.098l71.184,-41.099Z" style="fill:#ffb430;stroke:#000;stroke-width:8.33px;"/>
            <path d="M591.818,2032.19c22.752,-13.136 59.695,-13.136 82.446,-0c22.752,13.136 22.752,34.464 0,47.6c-22.751,13.136 -59.694,13.136 -82.446,-0c-22.751,-13.136 -22.751,-34.464 0,-47.6Z" style="fill:#ffb430;stroke:#000;stroke-width:8.33px;"/>
            <path d="M912.388,2026.87l36.144,7.054l16.919,-19.744l16.919,19.744l36.145,-7.054l-12.218,20.868l34.197,9.768l-34.197,9.768l12.218,20.868l-36.145,-7.054l-16.919,19.744l-16.919,-19.744l-36.144,7.054l12.218,-20.868l-34.198,-9.768l34.198,-9.768l-12.218,-20.868Z" style="fill:#ffb430;stroke:#000;stroke-width:8.33px;"/>
            <g>
                <path d="M1007.19,2297.95l78.976,45.597l-78.976,45.597l-78.976,-45.597l78.976,-45.597Z" style="fill:#62b54a;stroke:#000;stroke-width:4.17px;"/>
                <path d="M1007.19,2069.97l39.488,22.798l-39.488,22.799l-39.488,-22.799l39.488,-22.798Z" style="fill:#62b54a;stroke:#000;stroke-width:4.17px;"/>
                <path d="M1014.07,2338.89c0.073,0.397 0.111,0.807 0.111,1.225c-0,3.795 -3.132,6.875 -6.99,6.875c-3.858,0 -6.99,-3.08 -6.99,-6.875c0,-0.418 0.038,-0.828 0.111,-1.225l0,-118.861l13.758,-0l-0,118.861Z" style="fill:#c06100;stroke:#000;stroke-width:4.17px;"/>
                <path d="M1007.19,2115.56l0,136.79l-39.488,-22.798l-0,-136.791l39.488,22.799Z" style="fill:#4e913b;stroke:#000;stroke-width:4.17px;"/>
                <path d="M1007.19,2115.56l0,136.79l39.488,-22.798l0,-136.791l-39.488,22.799Z" style="fill:#3b6d2c;stroke:#000;stroke-width:4.17px;"/>
            </g>
            <g>
                <path d="M1251.38,2156.96l78.977,45.597l-78.977,45.597l-78.976,-45.597l78.976,-45.597Z" style="fill:#62b54a;stroke:#000;stroke-width:4.17px;"/>
                <path d="M1251.38,1928.98l39.489,22.799l-39.489,22.798l-39.488,-22.798l39.488,-22.799Z" style="fill:#62b54a;stroke:#000;stroke-width:4.17px;"/>
                <path d="M1258.26,2197.9c0.073,0.398 0.111,0.807 0.111,1.226c0,3.794 -3.132,6.875 -6.99,6.875c-3.857,-0 -6.989,-3.081 -6.989,-6.875c-0,-0.419 0.038,-0.828 0.111,-1.226l-0,-118.861l13.757,0l0,118.861Z" style="fill:#c06100;stroke:#000;stroke-width:4.17px;"/>
                <path d="M1251.38,1974.57l0,136.791l-39.488,-22.798l0,-136.791l39.488,22.798Z" style="fill:#4e913b;stroke:#000;stroke-width:4.17px;"/>
                <path d="M1251.38,1974.57l0,136.791l39.489,-22.798l-0,-136.791l-39.489,22.798Z" style="fill:#3b6d2c;stroke:#000;stroke-width:4.17px;"/>
            </g>
            <g>
                <path d="M1498.72,2014.16l78.976,45.597l-78.976,45.597l-78.976,-45.597l78.976,-45.597Z" style="fill:#62b54a;stroke:#000;stroke-width:4.17px;"/>
                <path d="M1498.72,1786.18l39.488,22.799l-39.488,22.798l-39.488,-22.798l39.488,-22.799Z" style="fill:#62b54a;stroke:#000;stroke-width:4.17px;"/>
                <path d="M1505.6,2055.1c0.073,0.398 0.111,0.807 0.111,1.226c0,3.794 -3.132,6.875 -6.99,6.875c-3.857,-0 -6.989,-3.081 -6.989,-6.875c-0,-0.419 0.038,-0.828 0.11,-1.226l0,-118.861l13.758,0l0,118.861Z" style="fill:#c06100;stroke:#000;stroke-width:4.17px;"/>
                <path d="M1498.72,1831.77l0,136.791l-39.488,-22.798l0,-136.791l39.488,22.798Z" style="fill:#4e913b;stroke:#000;stroke-width:4.17px;"/>
                <path d="M1498.72,1831.77l0,136.791l39.488,-22.798l0,-136.791l-39.488,22.798Z" style="fill:#3b6d2c;stroke:#000;stroke-width:4.17px;"/>
            </g>
            <g>
                <path d="M1127.71,2228.36l78.976,45.597l-78.976,45.597l-78.976,-45.597l78.976,-45.597Z" style="fill:#62b54a;stroke:#000;stroke-width:4.17px;"/>
                <path d="M1127.71,2000.38l39.488,22.799l-39.488,22.798l-39.488,-22.798l39.488,-22.799Z" style="fill:#62b54a;stroke:#000;stroke-width:4.17px;"/>
                <path d="M1134.59,2269.3c0.073,0.398 0.111,0.807 0.111,1.226c-0,3.794 -3.132,6.875 -6.99,6.875c-3.858,-0 -6.99,-3.081 -6.99,-6.875c0,-0.419 0.038,-0.828 0.111,-1.226l0,-118.861l13.758,0l-0,118.861Z" style="fill:#c06100;stroke:#000;stroke-width:4.17px;"/>
                <path d="M1127.71,2045.97l-0,136.791l-39.488,-22.798l-0,-136.791l39.488,22.798Z" style="fill:#4e913b;stroke:#000;stroke-width:4.17px;"/>
                <path d="M1127.71,2045.97l-0,136.791l39.488,-22.798l0,-136.791l-39.488,22.798Z" style="fill:#3b6d2c;stroke:#000;stroke-width:4.17px;"/>
            </g>
            <g>
                <path d="M1375.05,2085.56l78.976,45.597l-78.976,45.597l-78.976,-45.597l78.976,-45.597Z" style="fill:#62b54a;stroke:#000;stroke-width:4.17px;"/>
                <path d="M1375.05,1857.58l39.488,22.799l-39.488,22.798l-39.488,-22.798l39.488,-22.799Z" style="fill:#62b54a;stroke:#000;stroke-width:4.17px;"/>
                <path d="M1381.93,2126.5c0.073,0.398 0.111,0.807 0.111,1.226c-0,3.794 -3.132,6.875 -6.99,6.875c-3.858,-0 -6.99,-3.081 -6.99,-6.875c0,-0.419 0.038,-0.828 0.111,-1.226l0,-118.861l13.758,0l-0,118.861Z" style="fill:#c06100;stroke:#000;stroke-width:4.17px;"/>
                <path d="M1375.05,1903.17l-0,136.791l-39.488,-22.798l-0,-136.791l39.488,22.798Z" style="fill:#4e913b;stroke:#000;stroke-width:4.17px;"/>
                <path d="M1375.05,1903.17l-0,136.791l39.488,-22.798l-0,-136.791l-39.488,22.798Z" style="fill:#3b6d2c;stroke:#000;stroke-width:4.17px;"/>
            </g>
            <g>
                <path d="M1622.39,1942.76l78.976,45.597l-78.976,45.597l-78.977,-45.597l78.977,-45.597Z" style="fill:#62b54a;stroke:#000;stroke-width:4.17px;"/>
                <path d="M1622.39,1714.78l39.488,22.799l-39.488,22.798l-39.488,-22.798l39.488,-22.799Z" style="fill:#62b54a;stroke:#000;stroke-width:4.17px;"/>
                <path d="M1629.27,1983.7c0.072,0.398 0.11,0.807 0.11,1.226c0,3.794 -3.132,6.875 -6.989,6.875c-3.858,-0 -6.99,-3.081 -6.99,-6.875c-0,-0.419 0.038,-0.828 0.111,-1.226l-0,-118.861l13.758,0l-0,118.861Z" style="fill:#c06100;stroke:#000;stroke-width:4.17px;"/>
                <path d="M1622.39,1760.37l-0,136.791l-39.488,-22.798l-0,-136.791l39.488,22.798Z" style="fill:#4e913b;stroke:#000;stroke-width:4.17px;"/>
                <path d="M1622.39,1760.37l-0,136.791l39.488,-22.798l-0,-136.791l-39.488,22.798Z" style="fill:#3b6d2c;stroke:#000;stroke-width:4.17px;"/>
            </g>
            <g>
                <path d="M1746.06,1871.36l78.976,45.597l-78.976,45.597l-78.976,-45.597l78.976,-45.597Z" style="fill:#62b54a;stroke:#000;stroke-width:4.17px;"/>
                <path d="M1746.06,1643.38l39.488,22.799l-39.488,22.798l-39.488,-22.798l39.488,-22.799Z" style="fill:#62b54a;stroke:#000;stroke-width:4.17px;"/>
                <path d="M1752.94,1912.3c0.073,0.398 0.111,0.807 0.111,1.226c-0,3.794 -3.132,6.875 -6.99,6.875c-3.858,-0 -6.99,-3.081 -6.99,-6.875c0,-0.419 0.038,-0.828 0.111,-1.226l0,-118.861l13.758,0l-0,118.861Z" style="fill:#c06100;stroke:#000;stroke-width:4.17px;"/>
                <path d="M1746.06,1688.97l0,136.791l-39.488,-22.798l0,-136.791l39.488,22.798Z" style="fill:#4e913b;stroke:#000;stroke-width:4.17px;"/>
                <path d="M1746.06,1688.97l0,136.791l39.488,-22.798l0,-136.791l-39.488,22.798Z" style="fill:#3b6d2c;stroke:#000;stroke-width:4.17px;"/>
            </g>
        </g>
    </g>
</svg>
