<?xml version="1.0" encoding="UTF-8" standalone="no"?>
<!DOCTYPE svg PUBLIC "-//W3C//DTD SVG 1.1//EN" "http://www.w3.org/Graphics/SVG/1.1/DTD/svg11.dtd">
<svg width="100%" height="100%" viewBox="0 0 2014 2711" version="1.1" xmlns="http://www.w3.org/2000/svg" xmlns:xlink="http://www.w3.org/1999/xlink" xml:space="preserve" xmlns:serif="http://www.serif.com/" style="fill-rule:evenodd;clip-rule:evenodd;stroke-linecap:round;stroke-linejoin:round;stroke-miterlimit:1.5;">
    <rect id="novaterraprime_tile_17" x="0.789" y="0.774" width="2012.61" height="2709.69" style="fill:none;"/>
    <clipPath id="_clip1">
        <rect x="0.789" y="0.774" width="2012.61" height="2709.69"/>
    </clipPath>
    <g clip-path="url(#_clip1)">
        <g id="tile18">
            <g id="tilebase">
                <path d="M2006.85,1943.62l-0,189.322l-1000.29,577.517l-0,-189.322l1000.29,-577.517Z" style="fill:#808184;stroke:#000;stroke-width:12.5px;"/>
                <path d="M1006.56,2520.18l-0,189.799l-999.463,-577.04l0,-189.799l999.463,577.04Z" style="fill:#a6a8ab;stroke:#000;stroke-width:12.5px;"/>
                <path d="M1007.38,1366.3l999.711,577.184l-999.711,577.183l-999.711,-577.183l999.711,-577.184Z" style="fill:#d0d2d3;stroke:#000;stroke-width:12.5px;"/>
            </g>
            <g transform="matrix(0.866025,0.5,-4.80741e-17,1,-2753.73,10277.1)">
                <g transform="matrix(155.283,0,0,155.283,4207.29,-9793.76)">
                </g>
                <text x="3309.86px" y="-9793.76px" style="font-family:'Arial-BoldMT', 'Arial', sans-serif;font-weight:700;font-size:155.283px;">gitterra.com</text>
            </g>
            <path d="M304.236,1841.62l-0,112.351l508.284,293.458l-0,-105.819l-508.284,-299.99Z" style="fill:#a6a8ab;stroke:#000;stroke-width:12.5px;"/>
            <path d="M470.42,1601.24l503.589,290.747l-129.795,74.938l-503.589,-290.747l129.795,-74.938Z" style="fill:#e4e4e4;stroke:#000;stroke-width:12.5px;"/>
            <path d="M340.625,1676.18l-71.939,165.595l555.489,320.711l23.895,-193.259l-507.445,-293.047Z" style="fill:#a6a8ab;stroke:#000;stroke-width:12.5px;"/>
            <path d="M1007.09,1591.74l129.796,74.937l-129.796,74.938l-129.795,-74.938l129.795,-74.937Z" style="fill:#e4e4e4;stroke:#000;stroke-width:12.5px;"/>
            <path d="M1007.09,1741.61l0,651.239l-251.808,-145.382l122.013,-580.795l129.795,74.938Z" style="fill:#a6a8ab;stroke:#000;stroke-width:12.5px;"/>
            <path d="M1007.09,1741.61l0,651.239l251.809,-145.382l-122.013,-580.795l-129.796,74.938Z" style="fill:#808184;stroke:#000;stroke-width:12.5px;"/>
            <path id="primary-color" d="M852.333,1858.05l135.454,78.204l-0,93.892l-48.139,-76.415l-55.878,-31.131l-49.749,29.339l18.312,-93.889Z" style="fill:#fb6f45;"/>
            <path id="primary-color-darker" d="M1158.85,1854.57l-135.454,78.204l0,93.893l48.139,-76.416l55.878,-31.131l49.749,29.339l-18.312,-93.889Z" style="fill:#b24d30;"/>
            <path id="primary-color1" serif:id="primary-color" d="M840.019,2018.73c9.569,5.525 17.338,18.981 17.338,30.03c0,11.05 -7.769,15.535 -17.338,10.01c-9.569,-5.524 -17.337,-18.98 -17.337,-30.03c-0,-11.049 7.768,-15.534 17.337,-10.01Z" style="fill:#fb6f45;"/>
            <path id="primary-color2" serif:id="primary-color" d="M1171.5,2018.17c-9.569,5.524 -17.338,18.98 -17.338,30.03c0,11.049 7.769,15.534 17.338,10.009c9.569,-5.524 17.338,-18.98 17.338,-30.029c-0,-11.05 -7.769,-15.535 -17.338,-10.01Z" style="fill:#b24d30;"/>
            <path id="primary-color3" serif:id="primary-color" d="M898.585,2052.55c9.568,5.525 17.337,18.981 17.337,30.03c0,11.049 -7.769,15.534 -17.337,10.01c-9.569,-5.525 -17.338,-18.981 -17.338,-30.03c-0,-11.049 7.769,-15.535 17.338,-10.01Z" style="fill:#fb6f45;"/>
            <path id="primary-color4" serif:id="primary-color" d="M1112.94,2051.98c-9.569,5.525 -17.338,18.981 -17.338,30.03c0,11.049 7.769,15.535 17.338,10.01c9.569,-5.525 17.338,-18.981 17.338,-30.03c-0,-11.049 -7.769,-15.534 -17.338,-10.01Z" style="fill:#b24d30;"/>
            <path id="primary-color5" serif:id="primary-color" d="M958.993,2087.42c9.568,5.524 17.337,18.98 17.337,30.029c0,11.05 -7.769,15.535 -17.337,10.01c-9.569,-5.524 -17.338,-18.98 -17.338,-30.029c-0,-11.05 7.769,-15.535 17.338,-10.01Z" style="fill:#fb6f45;"/>
            <path id="primary-color6" serif:id="primary-color" d="M1052.53,2086.86c-9.569,5.525 -17.338,18.98 -17.338,30.03c0,11.049 7.769,15.534 17.338,10.01c9.569,-5.525 17.338,-18.981 17.338,-30.03c-0,-11.049 -7.769,-15.535 -17.338,-10.01Z" style="fill:#b24d30;"/>
            <path d="M719.969,2008.63c-1.797,-1.038 -4.012,-1.038 -5.81,0c-1.797,1.038 -2.905,2.956 -2.905,5.032c0,15.061 0,41.715 0,41.715l17.074,9.857c0,0 0,-27.147 0,-42.128c0,-5.971 -3.185,-11.489 -8.357,-14.474c-0,-0.001 -0.001,-0.001 -0.002,-0.002Z"/>
            <path d="M882.218,2234.21c-3.155,-1.822 -7.043,-1.822 -10.198,-0c-3.155,1.821 -5.099,5.188 -5.099,8.831c0,25.311 0,68.879 0,68.879l28.538,16.477l0,-71.256c0,-9.459 -5.046,-18.2 -13.239,-22.93c-0,-0.001 -0.001,-0.001 -0.002,-0.001Z"/>
            <path d="M340.446,1910.2c-2.477,-1.43 -5.529,-1.43 -8.006,0c-2.477,1.43 -4.003,4.073 -4.003,6.934l0,50.806l21.327,12.313c-0,-0 -0,-35.526 -0,-53.917c-0,-6.656 -3.551,-12.806 -9.315,-16.134c-0.001,-0.001 -0.002,-0.001 -0.003,-0.002Z"/>
            <path d="M421.474,1956.99c-2.477,-1.43 -5.529,-1.43 -8.006,-0c-2.477,1.43 -4.003,4.073 -4.003,6.933c0,19.003 0,50.807 0,50.807l21.327,12.313c-0,-0 -0,-35.526 -0,-53.918c-0,-6.655 -3.551,-12.806 -9.315,-16.134c-0.001,-0 -0.002,-0.001 -0.003,-0.001Z"/>
            <path d="M501.63,2003.26c-2.477,-1.431 -5.529,-1.431 -8.006,-0c-2.477,1.43 -4.003,4.073 -4.003,6.933c-0,19.002 -0,50.806 -0,50.806l21.326,12.313c0,0 0,-35.526 0,-53.917c0,-6.656 -3.551,-12.806 -9.315,-16.134c-0.001,-0 -0.001,-0.001 -0.002,-0.001Z"/>
            <path d="M583.729,2050.66c-2.477,-1.43 -5.529,-1.43 -8.006,-0c-2.477,1.43 -4.003,4.073 -4.003,6.933l0,50.807l21.327,12.312c-0,0 -0,-35.525 -0,-53.917c-0,-6.655 -3.551,-12.806 -9.315,-16.134c-0.001,-0 -0.002,-0.001 -0.003,-0.001Z"/>
            <path d="M667.252,2098.89c-2.477,-1.43 -5.529,-1.43 -8.006,-0c-2.477,1.43 -4.003,4.073 -4.003,6.933c0,19.002 0,50.807 0,50.807l21.327,12.312c-0,0 -0,-35.525 -0,-53.917c-0,-6.655 -3.551,-12.806 -9.315,-16.134c-0.001,-0 -0.002,-0.001 -0.003,-0.001Z"/>
            <path d="M378.005,1931.89c-2.477,-1.43 -5.528,-1.43 -8.006,0c-2.477,1.43 -4.003,4.073 -4.003,6.934c0,19.002 0,50.806 0,50.806l21.327,12.313c0,-0 0,-35.526 0,-53.917c0,-6.656 -3.551,-12.806 -9.315,-16.134c-0.001,-0.001 -0.002,-0.001 -0.003,-0.002Z"/>
            <path d="M459.034,1978.67c-2.477,-1.43 -5.529,-1.43 -8.006,-0c-2.477,1.43 -4.003,4.073 -4.003,6.933c-0,19.002 -0,50.807 -0,50.807l21.326,12.312c0,0 0,-35.525 0,-53.917c0,-6.655 -3.551,-12.806 -9.315,-16.134c-0.001,-0 -0.001,-0.001 -0.002,-0.001Z"/>
            <path d="M539.189,2024.95c-2.477,-1.431 -5.529,-1.431 -8.006,-0c-2.477,1.43 -4.003,4.073 -4.003,6.933c0,19.002 0,50.806 0,50.806l21.327,12.313c-0,0 -0,-35.526 -0,-53.917c-0,-6.656 -3.551,-12.806 -9.315,-16.134c-0.001,-0 -0.002,-0.001 -0.003,-0.001Z"/>
            <path d="M621.289,2072.35c-2.477,-1.43 -5.529,-1.43 -8.006,-0c-2.477,1.43 -4.003,4.073 -4.003,6.933c-0,19.002 -0,50.807 -0,50.807l21.326,12.312c0,0 0,-35.525 0,-53.917c0,-6.655 -3.551,-12.806 -9.315,-16.134c-0.001,-0 -0.001,-0.001 -0.002,-0.001Z"/>
            <path d="M704.812,2120.57c-2.477,-1.43 -5.529,-1.43 -8.006,-0c-2.477,1.43 -4.003,4.073 -4.003,6.933c-0,19.002 -0,50.807 -0,50.807l21.326,12.312l0,-53.917c0,-6.656 -3.551,-12.806 -9.315,-16.134c-0.001,-0 -0.002,-0.001 -0.002,-0.001Z"/>
            <path d="M747.202,2145.04c-2.477,-1.43 -5.529,-1.43 -8.006,-0c-2.477,1.43 -4.003,4.073 -4.003,6.933c0,19.003 0,50.807 0,50.807l21.327,12.313c-0,-0 -0,-35.526 -0,-53.917c-0,-6.656 -3.551,-12.807 -9.315,-16.135c-0.001,-0 -0.002,-0.001 -0.003,-0.001Z"/>
            <path d="M625.89,1885.37c-1.798,-1.038 -4.013,-1.038 -5.81,-0c-1.798,1.038 -2.905,2.956 -2.905,5.031c-0,15.061 -0,41.715 -0,41.715l17.074,9.858c-0,-0 -0,-27.148 -0,-42.128c-0,-5.972 -3.186,-11.489 -8.357,-14.475c-0.001,-0 -0.002,-0.001 -0.002,-0.001Z"/>
            <path d="M391.848,1819.18c-1.798,-1.037 -4.012,-1.037 -5.81,0c-1.798,1.038 -2.905,2.956 -2.905,5.032c-0,15.061 -0,41.715 -0,41.715l17.074,9.858c0,-0 0,-27.148 0,-42.129c0,-5.971 -3.185,-11.489 -8.357,-14.474c-0.001,-0.001 -0.001,-0.001 -0.002,-0.002Z"/>
            <path d="M391.848,1750.25c-1.798,-1.038 -4.012,-1.038 -5.81,-0c-1.798,1.038 -2.905,2.956 -2.905,5.031c-0,15.061 -0,41.715 -0,41.715l17.074,9.858c0,-0 0,-27.148 0,-42.128c0,-5.972 -3.185,-11.489 -8.357,-14.475c-0.001,-0 -0.001,-0.001 -0.002,-0.001Z"/>
            <path d="M419.543,1766.24c-1.797,-1.038 -4.012,-1.038 -5.81,-0c-1.797,1.038 -2.905,2.956 -2.905,5.031c0,15.061 0,41.715 0,41.715l17.075,9.858c-0,-0 -0,-27.148 -0,-42.128c-0,-5.972 -3.186,-11.489 -8.357,-14.475c-0.001,-0 -0.002,-0.001 -0.003,-0.001Z"/>
            <path d="M362.399,1802.18c-1.798,-1.038 -4.013,-1.038 -5.81,-0c-1.798,1.038 -2.905,2.956 -2.905,5.031c-0,15.061 -0,41.715 -0,41.715l17.074,9.858l-0,-42.128c-0,-5.971 -3.186,-11.489 -8.357,-14.475c-0.001,-0 -0.002,-0.001 -0.002,-0.001Z"/>
        </g>
    </g>
</svg>
