<?xml version="1.0" encoding="UTF-8" standalone="no"?>
<!DOCTYPE svg PUBLIC "-//W3C//DTD SVG 1.1//EN" "http://www.w3.org/Graphics/SVG/1.1/DTD/svg11.dtd">
<svg width="100%" height="100%" viewBox="0 0 2013 2060" version="1.1" xmlns="http://www.w3.org/2000/svg" xmlns:xlink="http://www.w3.org/1999/xlink" xml:space="preserve" xmlns:serif="http://www.serif.com/" style="fill-rule:evenodd;clip-rule:evenodd;stroke-linecap:round;stroke-linejoin:round;stroke-miterlimit:1.5;">
    <rect id="novaterraprime_tile_6" x="0.349" y="0.438" width="2012.61" height="2059.25" style="fill:none;"/>
    <clipPath id="_clip1">
        <rect x="0.349" y="0.438" width="2012.61" height="2059.25"/>
    </clipPath>
    <g clip-path="url(#_clip1)">
        <g id="tile6">
            <g id="tilebase">
                <path d="M2006.41,1292.85l-0,189.322l-1000.29,577.517l-0,-189.322l1000.29,-577.517Z" style="fill:#808184;stroke:#000;stroke-width:12.5px;"/>
                <path d="M1006.12,1869.41l-0,189.799l-999.463,-577.04l0,-189.799l999.463,577.04Z" style="fill:#a6a8ab;stroke:#000;stroke-width:12.5px;"/>
                <path d="M1006.94,715.521l999.711,577.183l-999.711,577.184l-999.711,-577.184l999.711,-577.183Z" style="fill:#d0d2d3;stroke:#000;stroke-width:12.5px;"/>
            </g>
            <path d="M499.902,1125.93l0,333.2l-206.114,-119l0,-333.2l206.114,119Z" style="fill:#a6a8ab;stroke:#000;stroke-width:8.33px;"/>
            <path d="M1241.91,697.531l-0,333.2l-742.011,428.4l0,-333.2l742.011,-428.4Z" style="fill:#808184;stroke:#000;stroke-width:8.33px;"/>
            <path d="M1216.24,805.677c-9.622,5.556 -15.55,15.823 -15.55,26.934c-0,47.762 -0,174.32 -0,174.32l26.444,-15.267c-0,-0 -0,-139.271 -0,-180.753c-0,-2.377 -1.268,-4.573 -3.327,-5.762c-2.058,-1.188 -4.594,-1.188 -6.653,0c-0.302,0.175 -0.607,0.351 -0.914,0.528Z"/>
            <path d="M1133.79,853.277c-9.622,5.556 -15.55,15.823 -15.55,26.934c0,47.762 0,174.32 0,174.32l26.444,-15.267c0,-0 0,-139.271 0,-180.753c0,-2.377 -1.268,-4.573 -3.326,-5.762c-2.059,-1.188 -4.595,-1.188 -6.654,0c-0.302,0.175 -0.607,0.351 -0.914,0.528Z"/>
            <path d="M1051.35,901.815c-9.623,5.556 -15.55,15.823 -15.55,26.934c-0,47.762 -0,174.32 -0,174.32l26.443,-15.267c0,-0 0,-139.271 0,-180.753c0,-2.377 -1.268,-4.573 -3.326,-5.762c-2.059,-1.188 -4.595,-1.188 -6.653,0c-0.303,0.175 -0.608,0.351 -0.914,0.528Z"/>
            <g>
                <path d="M1612.21,1314.08c18.916,-10.921 49.631,-10.921 68.547,0c18.916,10.921 18.916,28.655 0,39.576c-18.916,10.921 -49.631,10.921 -68.547,-0c-18.916,-10.921 -18.916,-28.655 0,-39.576Z" style="fill:#a6a8ab;stroke:#000;stroke-width:8.33px;"/>
                <path d="M1617.34,1319.21l0,-288.152l58.287,-0l-0,288.152c-0,4.308 -2.844,8.616 -8.532,11.9c-11.376,6.568 -29.847,6.568 -41.223,0c-5.688,-3.284 -8.532,-7.592 -8.532,-11.9Z" style="fill:#a6a8ab;stroke:#000;stroke-width:8.33px;"/>
                <path d="M1625.87,1019.15c11.376,-6.568 29.847,-6.568 41.223,-0c11.376,6.568 11.376,17.232 0,23.8c-11.376,6.568 -29.847,6.568 -41.223,-0c-11.376,-6.568 -11.376,-17.232 0,-23.8Z" style="fill:#d0d2d3;stroke:#000;stroke-width:8.33px;"/>
            </g>
            <g>
                <path d="M1447.14,1216.94c18.916,-10.922 49.631,-10.922 68.547,-0c18.916,10.921 18.916,28.654 -0,39.575c-18.916,10.922 -49.631,10.922 -68.547,0c-18.917,-10.921 -18.917,-28.654 -0,-39.575Z" style="fill:#a6a8ab;stroke:#000;stroke-width:8.33px;"/>
                <path d="M1452.27,1222.07l-0,-288.153l58.286,0l0,288.153c0,4.308 -2.844,8.616 -8.532,11.9c-11.375,6.568 -29.847,6.568 -41.222,-0c-5.688,-3.284 -8.532,-7.592 -8.532,-11.9Z" style="fill:#a6a8ab;stroke:#000;stroke-width:8.33px;"/>
                <path d="M1460.8,922.015c11.375,-6.567 29.847,-6.567 41.222,0c11.376,6.568 11.376,17.233 0,23.8c-11.375,6.568 -29.847,6.568 -41.222,0c-11.376,-6.567 -11.376,-17.232 -0,-23.8Z" style="fill:#d0d2d3;stroke:#000;stroke-width:8.33px;"/>
            </g>
            <g>
                <path d="M1280.71,1117.08c18.916,-10.921 49.631,-10.921 68.548,0c18.916,10.921 18.916,28.654 -0,39.576c-18.917,10.921 -49.632,10.921 -68.548,-0c-18.916,-10.922 -18.916,-28.655 0,-39.576Z" style="fill:#a6a8ab;stroke:#000;stroke-width:8.33px;"/>
                <path d="M1285.84,1122.21l-0,-288.152l58.286,-0l0,288.152c0,4.308 -2.844,8.616 -8.532,11.9c-11.375,6.568 -29.847,6.568 -41.222,0c-5.688,-3.284 -8.532,-7.592 -8.532,-11.9Z" style="fill:#a6a8ab;stroke:#000;stroke-width:8.33px;"/>
                <path d="M1294.38,822.16c11.375,-6.568 29.847,-6.568 41.222,-0c11.376,6.567 11.376,17.232 0,23.8c-11.375,6.567 -29.847,6.567 -41.222,-0c-11.376,-6.568 -11.376,-17.233 -0,-23.8Z" style="fill:#d0d2d3;stroke:#000;stroke-width:8.33px;"/>
            </g>
            <path d="M747.239,983.131l-247.337,142.8l-206.114,-119l742.011,-428.4l206.114,119l-288.56,166.6l494.674,285.6l-206.114,119l-494.674,-285.6Z" style="fill:#d0d2d3;stroke:#000;stroke-width:8.33px;"/>
            <path d="M1241.91,1268.73l-0,333.2l-494.674,-285.6l0,-333.2l494.674,285.6Z" style="fill:#a6a8ab;stroke:#000;stroke-width:8.33px;"/>
            <path d="M1448.03,1149.73l-0,333.2l-206.114,119l-0,-333.2l206.114,-119Z" style="fill:#808184;stroke:#000;stroke-width:8.33px;"/>
            <path id="primary-color-darker" d="M499.902,1101.38l701.216,-404.847l-84.123,-258.24l-699.4,405.945l82.307,257.142Z" style="fill:#3b6d2c;stroke:#000;stroke-width:8.33px;"/>
            <path id="primary-color" d="M499.902,1101.38l-166.304,-95.042l83.997,-162.1l82.307,257.142Z" style="fill:#4e913b;stroke:#000;stroke-width:8.33px;"/>
            <path id="primary-color1" serif:id="primary-color" d="M1241.91,1242.38l65.799,-154.437l-535.897,-309.4l-23.379,179.352l493.477,284.485Z" style="fill:#4e913b;stroke:#000;stroke-width:8.33px;"/>
            <path id="primary-color-darker1" serif:id="primary-color-darker" d="M1241.91,1242.38l165.581,-95.599l-99.782,-58.838l-65.799,154.437Z" style="fill:#3b6d2c;stroke:#000;stroke-width:8.33px;"/>
            <path d="M1143.92,1305.48c9.622,5.556 15.55,15.823 15.55,26.934c0,47.762 0,174.32 0,174.32l-26.444,-15.267c0,-0 0,-139.271 0,-180.753c0,-2.377 1.268,-4.573 3.327,-5.762c2.058,-1.188 4.594,-1.188 6.653,0c0.302,0.175 0.607,0.351 0.914,0.528Z"/>
            <path d="M1061.47,1257.88c9.623,5.556 15.55,15.823 15.55,26.934c0,47.762 0,174.32 0,174.32l-26.443,-15.267c-0,-0 -0,-139.271 -0,-180.753c-0,-2.377 1.268,-4.573 3.326,-5.762c2.059,-1.188 4.595,-1.188 6.653,0c0.303,0.175 0.608,0.351 0.914,0.528Z"/>
            <path d="M979.026,1210.28c9.622,5.556 15.55,15.823 15.55,26.934c-0,47.762 -0,174.32 -0,174.32l-26.444,-15.267c0,-0 0,-139.271 0,-180.753c0,-2.377 1.268,-4.573 3.327,-5.762c2.058,-1.188 4.594,-1.188 6.653,0c0.302,0.175 0.607,0.351 0.914,0.528Z"/>
            <path d="M896.58,1162.68c9.623,5.556 15.55,15.823 15.55,26.934l0,174.32l-26.443,-15.267l-0,-180.753c-0,-2.377 1.268,-4.573 3.326,-5.762c2.058,-1.188 4.595,-1.188 6.653,0c0.303,0.175 0.608,0.351 0.914,0.528Z"/>
            <path d="M814.135,1115.08c9.622,5.556 15.55,15.823 15.55,26.934c-0,47.762 -0,174.32 -0,174.32l-26.444,-15.267c-0,-0 -0,-139.271 -0,-180.753c-0,-2.377 1.268,-4.573 3.326,-5.762c2.059,-1.188 4.595,-1.188 6.653,0c0.303,0.175 0.608,0.351 0.915,0.528Z"/>
            <path d="M428.35,1177.94c9.623,5.555 15.55,15.822 15.55,26.933c0,47.763 0,174.32 0,174.32l-26.443,-15.267c-0,-0 -0,-139.27 -0,-180.753c-0,-2.376 1.268,-4.573 3.326,-5.761c2.059,-1.189 4.595,-1.189 6.653,-0c0.303,0.174 0.608,0.35 0.914,0.528Z"/>
            <path d="M556.675,1186.48c-9.622,5.556 -15.55,15.823 -15.55,26.934c-0,47.762 -0,174.32 -0,174.32l26.444,-15.267l-0,-180.753c-0,-2.377 -1.268,-4.573 -3.327,-5.762c-2.058,-1.188 -4.594,-1.188 -6.653,0c-0.302,0.175 -0.607,0.351 -0.914,0.528Z"/>
            <path d="M639.121,1138.88c-9.623,5.556 -15.55,15.823 -15.55,26.934c-0,47.762 -0,174.32 -0,174.32l26.443,-15.267c0,-0 0,-139.271 0,-180.753c0,-2.377 -1.268,-4.573 -3.326,-5.762c-2.059,-1.188 -4.595,-1.188 -6.653,0c-0.303,0.175 -0.608,0.351 -0.914,0.528Z"/>
            <path d="M721.566,1091.28c-9.622,5.556 -15.55,15.823 -15.55,26.934l0,174.32l26.444,-15.267c-0,-0 -0,-139.271 -0,-180.753c-0,-2.377 -1.268,-4.573 -3.327,-5.762c-2.058,-1.188 -4.594,-1.188 -6.653,0c-0.302,0.175 -0.607,0.351 -0.914,0.528Z"/>
            <path d="M1342.77,1305.7c-11.391,6.577 -18.409,18.731 -18.409,31.884c0,58.357 0,216.744 0,216.744l41.223,-23.8c0,-0 0,-155.953 0,-215.376c0,-4.667 -2.489,-8.979 -6.531,-11.312c-4.041,-2.333 -9.021,-2.333 -13.062,-0c-1.074,0.62 -2.152,1.242 -3.221,1.86Z"/>
            <path d="M345.905,1130.35c9.622,5.555 15.55,15.822 15.55,26.933c-0,47.763 -0,174.32 -0,174.32l-26.444,-15.267c-0,-0 -0,-139.27 -0,-180.753c-0,-2.376 1.268,-4.573 3.326,-5.761c2.059,-1.189 4.595,-1.189 6.653,-0c0.303,0.174 0.608,0.35 0.915,0.528Z"/>
            <g>
                <path d="M1000.85,1636.74c18.916,-10.921 49.631,-10.921 68.547,0c18.916,10.921 18.916,28.655 -0,39.576c-18.916,10.921 -49.631,10.921 -68.547,-0c-18.916,-10.921 -18.916,-28.655 -0,-39.576Z" style="fill:#a6a8ab;stroke:#000;stroke-width:8.33px;"/>
                <path d="M1005.98,1641.87l0,-288.152l58.287,-0l-0,288.152c-0,4.308 -2.844,8.616 -8.532,11.9c-11.376,6.568 -29.847,6.568 -41.223,0c-5.688,-3.284 -8.532,-7.592 -8.532,-11.9Z" style="fill:#a6a8ab;stroke:#000;stroke-width:8.33px;"/>
                <path d="M1014.51,1341.82c11.376,-6.568 29.847,-6.568 41.223,-0c11.376,6.568 11.376,17.232 -0,23.8c-11.376,6.568 -29.847,6.568 -41.223,-0c-11.376,-6.568 -11.376,-17.232 -0,-23.8Z" style="fill:#d0d2d3;stroke:#000;stroke-width:8.33px;"/>
            </g>
            <g>
                <path d="M835.778,1539.6c18.916,-10.922 49.631,-10.922 68.547,-0c18.916,10.921 18.916,28.654 0,39.575c-18.916,10.921 -49.631,10.921 -68.547,0c-18.916,-10.921 -18.916,-28.654 0,-39.575Z" style="fill:#a6a8ab;stroke:#000;stroke-width:8.33px;"/>
                <path d="M840.909,1544.73l-0,-288.153l58.286,0l0,288.153c0,4.308 -2.844,8.616 -8.532,11.9c-11.376,6.567 -29.847,6.567 -41.223,-0c-5.687,-3.284 -8.531,-7.592 -8.531,-11.9Z" style="fill:#a6a8ab;stroke:#000;stroke-width:8.33px;"/>
                <path d="M849.44,1244.68c11.376,-6.568 29.847,-6.568 41.223,0c11.376,6.568 11.376,17.232 0,23.8c-11.376,6.568 -29.847,6.568 -41.223,0c-11.375,-6.568 -11.375,-17.232 0,-23.8Z" style="fill:#d0d2d3;stroke:#000;stroke-width:8.33px;"/>
            </g>
            <g>
                <path d="M669.352,1439.74c18.916,-10.921 49.631,-10.921 68.547,-0c18.916,10.921 18.916,28.654 0,39.576c-18.916,10.921 -49.631,10.921 -68.547,-0c-18.916,-10.922 -18.916,-28.655 0,-39.576Z" style="fill:#a6a8ab;stroke:#000;stroke-width:8.33px;"/>
                <path d="M674.482,1444.88l0,-288.152l58.287,-0l-0,288.152c-0,4.308 -2.844,8.616 -8.532,11.9c-11.376,6.568 -29.847,6.568 -41.223,-0c-5.688,-3.284 -8.532,-7.592 -8.532,-11.9Z" style="fill:#a6a8ab;stroke:#000;stroke-width:8.33px;"/>
                <path d="M683.014,1144.82c11.376,-6.568 29.847,-6.568 41.223,-0c11.376,6.567 11.376,17.232 0,23.8c-11.376,6.567 -29.847,6.567 -41.223,-0c-11.375,-6.568 -11.375,-17.233 0,-23.8Z" style="fill:#d0d2d3;stroke:#000;stroke-width:8.33px;"/>
            </g>
            <g transform="matrix(0.866025,0.5,-4.80741e-17,1,-2752.83,10273.7)">
                <g transform="matrix(155.283,0,0,155.283,4214,-10440.4)">
                </g>
                <text x="3316.57px" y="-10440.4px" style="font-family:'Arial-BoldMT', 'Arial', sans-serif;font-weight:700;font-size:155.283px;">gitterra.com</text>
            </g>
        </g>
    </g>
</svg>
