<?xml version="1.0" encoding="UTF-8" standalone="no"?>
<!DOCTYPE svg PUBLIC "-//W3C//DTD SVG 1.1//EN" "http://www.w3.org/Graphics/SVG/1.1/DTD/svg11.dtd">
<svg width="100%" height="100%" viewBox="0 0 2013 1774" version="1.1" xmlns="http://www.w3.org/2000/svg" xmlns:xlink="http://www.w3.org/1999/xlink" xml:space="preserve" xmlns:serif="http://www.serif.com/" style="fill-rule:evenodd;clip-rule:evenodd;stroke-linecap:round;stroke-linejoin:round;stroke-miterlimit:1.5;">
    <rect id="novaterraprime_tile_3" x="0.364" y="0.983" width="2012.61" height="1772.16" style="fill:none;"/>
    <clipPath id="_clip1">
        <rect x="0.364" y="0.983" width="2012.61" height="1772.16"/>
    </clipPath>
    <g clip-path="url(#_clip1)">
        <g id="tile3">
            <g id="tilebase">
                <path d="M2010.1,1005l-0,189.322l-1000.29,577.517l-0,-189.321l1000.29,-577.518Z" style="fill:#808184;stroke:#000;stroke-width:12.5px;"/>
                <path d="M1009.81,1581.56l-0,189.799l-999.463,-577.04l0,-189.799l999.463,577.04Z" style="fill:#a6a8ab;stroke:#000;stroke-width:12.5px;"/>
                <path d="M1010.64,427.672l999.711,577.184l-999.711,577.183l-999.711,-577.183l999.711,-577.184Z" style="fill:#d0d2d3;stroke:#000;stroke-width:12.5px;"/>
            </g>
            <path d="M1003.82,487.939l206.114,119l-659.565,380.8l-206.114,-119l659.565,-380.8Z" style="fill:#d0d2d3;stroke:#000;stroke-width:12.5px;"/>
            <path d="M550.368,987.739l0,142.8l-206.114,-119l0,-142.8l206.114,119Z" style="fill:#a6a8ab;stroke:#000;stroke-width:12.5px;"/>
            <path d="M1209.93,606.939l0,142.8l-659.565,380.8l0,-142.8l659.565,-380.8Z" style="fill:#808184;stroke:#000;stroke-width:12.5px;"/>
            <path id="primary-color" d="M550.368,940.139l-123.668,-71.4l61.834,-107.1l61.834,178.5Z" style="fill:#4e913b;stroke:#000;stroke-width:12.5px;"/>
            <path id="primary-color-darker" d="M550.368,940.139l577.12,-333.2l-61.835,-178.5l-577.119,333.2l61.834,178.5Z" style="fill:#3b6d2c;stroke:#000;stroke-width:12.5px;"/>
            <path d="M906.756,829.578c3.015,-1.741 6.73,-1.741 9.745,-0c3.015,1.741 4.873,4.958 4.873,8.439c-0,27.349 -0,78.322 -0,78.322l-41.223,23.8l-0,-73.619c-0,-13.354 7.124,-25.695 18.69,-32.372c2.655,-1.533 5.353,-3.091 7.915,-4.57Z"/>
            <path d="M818.317,880.639c11.375,-6.568 20.611,-1.236 20.611,11.9c-0,13.135 -9.236,29.132 -20.611,35.7c-11.376,6.567 -20.612,1.235 -20.612,-11.9c0,-13.136 9.236,-29.133 20.612,-35.7Z"/>
            <path d="M735.871,928.239c11.376,-6.568 20.611,-1.236 20.611,11.9c0,13.135 -9.235,29.132 -20.611,35.7c-11.376,6.567 -20.611,1.235 -20.611,-11.9c-0,-13.136 9.235,-29.133 20.611,-35.7Z"/>
            <path d="M653.425,975.839c11.376,-6.568 20.612,-1.236 20.612,11.9c-0,13.135 -9.236,29.132 -20.612,35.7c-11.375,6.567 -20.611,1.235 -20.611,-11.9c-0,-13.136 9.236,-29.133 20.611,-35.7Z"/>
            <path d="M488.534,999.639c-11.376,-6.568 -20.611,-1.236 -20.611,11.9c-0,13.135 9.235,29.132 20.611,35.7c11.376,6.567 20.611,1.235 20.611,-11.9c0,-13.136 -9.235,-29.133 -20.611,-35.7Z"/>
            <path d="M406.088,952.039c-11.375,-6.568 -20.611,-1.236 -20.611,11.9c0,13.135 9.236,29.132 20.611,35.7c11.376,6.567 20.612,1.235 20.612,-11.9c-0,-13.136 -9.236,-29.133 -20.612,-35.7Z"/>
            <path d="M983.208,785.439c11.376,-6.568 20.611,-1.236 20.611,11.9c0,13.135 -9.235,29.132 -20.611,35.7c-11.376,6.567 -20.612,1.235 -20.612,-11.9c0,-13.136 9.236,-29.133 20.612,-35.7Z"/>
            <path d="M1416.05,1011.54l0,47.6l-371.005,-214.2l-0,-47.6l371.005,214.2Z" style="fill:#a6a8ab;stroke:#000;stroke-width:12.5px;"/>
            <path d="M1209.93,702.139l366.883,211.82l-164.891,95.2l-366.883,-211.82l164.891,-95.2Z" style="fill:#d0d2d3;stroke:#000;stroke-width:12.5px;"/>
            <path d="M1580.94,963.939l-206.115,119l41.223,-71.4l164.892,-95.2l-0,47.6Z" style="fill:#808184;stroke:#000;stroke-width:12.5px;"/>
            <path d="M1374.82,1082.94l-41.222,-23.8l41.222,-71.4l41.223,23.8l-41.223,71.4Z" style="fill:#d0d2d3;stroke:#000;stroke-width:12.5px;"/>
            <path d="M1168.71,725.939l82.446,47.6l-82.446,-142.8l0,95.2Z" style="fill:#a6a8ab;stroke:#000;stroke-width:12.5px;"/>
            <path d="M1209.93,606.939l-41.223,23.8l82.446,142.8l41.223,-23.8l-82.446,-142.8Z" style="fill:#d0d2d3;stroke:#000;stroke-width:12.5px;"/>
            <path d="M1045.04,987.739l123.668,71.4l-288.559,166.6l-123.669,-71.4l288.56,-166.6Z" style="fill:#7e99dc;stroke:#000;stroke-width:12.5px;"/>
            <path d="M1045.04,987.739l-0,-47.6l-329.782,190.4l41.222,23.8l288.56,-166.6Z" style="fill:#808184;stroke:#000;stroke-width:12.5px;"/>
            <path d="M1209.93,1035.34l-41.223,23.8l-123.668,-71.4l-0,-47.6l164.891,95.2Z" style="fill:#a6a8ab;stroke:#000;stroke-width:12.5px;"/>
            <path d="M1087.69,1153.52c44.716,-25.817 117.324,-25.817 162.041,-0c44.716,25.817 44.716,67.737 -0,93.554c-44.717,25.817 -117.325,25.817 -162.041,-0c-44.716,-25.817 -44.716,-67.737 0,-93.554Z" style="fill:#a6a8ab;stroke:#000;stroke-width:12.5px;"/>
            <path d="M1149.37,1190.77c32.638,-18.844 85.635,-18.844 118.274,-0c32.639,18.844 32.639,49.442 0,68.286c-32.639,18.844 -85.636,18.844 -118.274,-0c-32.639,-18.844 -32.639,-49.442 -0,-68.286Z" style="fill:#a6a8ab;stroke:#000;stroke-width:12.5px;"/>
            <path d="M1209.93,844.939l0,47.6l-27.834,-16.07l0,-47.6l27.834,16.07Z" style="fill:#a6a8ab;stroke:#000;stroke-width:12.5px;"/>
            <path d="M1214.06,842.559l0,47.6l65.957,-38.08l-0,-47.6l-65.957,38.08Z" style="fill:#a6a8ab;stroke:#000;stroke-width:12.5px;"/>
            <path d="M1252.18,788.409l27.834,16.07l-70.079,40.46l-27.834,-16.07l70.079,-40.46Z" style="fill:#d0d2d3;stroke:#000;stroke-width:12.5px;"/>
            <path d="M1237.66,856.188l61.831,35.698c-0,0 18.956,2.699 20.614,-11.898l-61.958,-35.771c0,-0 -16.226,-2.806 -20.487,11.971Z" style="fill:#d87b00;stroke:#000;stroke-width:12.5px;"/>
            <g transform="matrix(0.866025,0.5,-4.80741e-17,1,-2753.3,10275.4)">
                <g transform="matrix(155.283,0,0,155.283,4210.54,-10732.4)">
                </g>
                <text x="3313.12px" y="-10732.4px" style="font-family:'Arial-BoldMT', 'Arial', sans-serif;font-weight:700;font-size:155.283px;">gitterra.com</text>
            </g>
        </g>
    </g>
</svg>
