<?xml version="1.0" encoding="UTF-8" standalone="no"?>
<!DOCTYPE svg PUBLIC "-//W3C//DTD SVG 1.1//EN" "http://www.w3.org/Graphics/SVG/1.1/DTD/svg11.dtd">
<svg width="100%" height="100%" viewBox="0 0 2013 1774" version="1.1" xmlns="http://www.w3.org/2000/svg" xmlns:xlink="http://www.w3.org/1999/xlink" xml:space="preserve" xmlns:serif="http://www.serif.com/" style="fill-rule:evenodd;clip-rule:evenodd;stroke-linecap:round;stroke-linejoin:round;stroke-miterlimit:1.5;">
    <rect id="novaterraprime_tile_1" x="0" y="0.983" width="2012.61" height="1772.16" style="fill:none;"/>
    <clipPath id="_clip1">
        <rect x="0" y="0.983" width="2012.61" height="1772.16"/>
    </clipPath>
    <g clip-path="url(#_clip1)">
        <g id="tile1">
            <g id="tilebase">
                <path d="M2006.11,1006.3l0,189.322l-1000.29,577.517l0,-189.322l1000.29,-577.517Z" style="fill:#808184;stroke:#000;stroke-width:12.5px;"/>
                <path d="M1005.82,1582.86l0,189.799l-999.462,-577.039l0,-189.8l999.462,577.04Z" style="fill:#a6a8ab;stroke:#000;stroke-width:12.5px;"/>
                <path d="M1006.65,428.973l999.711,577.183l-999.711,577.183l-999.711,-577.183l999.711,-577.183Z" style="fill:#d0d2d3;stroke:#000;stroke-width:12.5px;"/>
            </g>
            <path d="M1770.68,516.565l-0,543.321l-117.633,67.915l0,-543.32l117.633,-67.916Z" style="fill:#808184;stroke:#000;stroke-width:12.5px;"/>
            <path d="M1653.05,448.65l0,543.321l-117.632,67.915l0,-543.321l117.632,-67.915Z" style="fill:#808184;stroke:#000;stroke-width:12.5px;"/>
            <path d="M1535.42,380.735l0,543.321l-117.632,67.915l-0,-543.321l117.632,-67.915Z" style="fill:#808184;stroke:#000;stroke-width:12.5px;"/>
            <path d="M1417.79,312.82l-0,543.321l-117.633,67.915l0,-543.321l117.633,-67.915Z" style="fill:#808184;stroke:#000;stroke-width:12.5px;"/>
            <path d="M1300.15,244.905l0,543.321l-117.632,67.915l-0,-543.321l117.632,-67.915Z" style="fill:#808184;stroke:#000;stroke-width:12.5px;"/>
            <path d="M1182.52,176.99l-0,543.321l-117.633,67.915l0,-543.321l117.633,-67.915Z" style="fill:#808184;stroke:#000;stroke-width:12.5px;"/>
            <path d="M1065.05,108.98l-0,543.321l-117.633,67.915l0,-543.321l117.633,-67.915Z" style="fill:#808184;stroke:#000;stroke-width:12.5px;"/>
            <path d="M947.257,41.16l-0,543.321l-117.633,67.915l0,-543.321l117.633,-67.915Z" style="fill:#808184;stroke:#000;stroke-width:12.5px;"/>
            <path d="M888.441,7.202l882.243,509.363l-117.633,67.916l-882.243,-509.364l117.633,-67.915Z" style="fill:#d0d2d3;stroke:#000;stroke-width:12.5px;"/>
            <path d="M1653.05,584.481l0,543.32l-58.816,-33.957l0,-458.908c0,-10.209 -5.446,-19.642 -14.288,-24.747c-0.001,-0.001 -0.001,-0.001 -0.002,-0.001c-9.184,-5.303 -20.5,-5.303 -29.684,-0c-9.184,5.302 -14.842,15.102 -14.842,25.707l0,423.991l-58.816,-33.957l-0,-458.908c-0,-10.209 -5.447,-19.643 -14.288,-24.747c-0.001,-0.001 -0.002,-0.001 -0.002,-0.001c-9.185,-5.303 -20.5,-5.303 -29.684,-0c-9.185,5.302 -14.842,15.102 -14.842,25.707l-0,423.991l-58.817,-33.957l0,-458.908c0,-10.209 -5.446,-19.643 -14.288,-24.747c-0,-0.001 -0.001,-0.001 -0.002,-0.002c-9.184,-5.302 -20.5,-5.302 -29.684,0c-9.184,5.303 -14.842,15.102 -14.842,25.707l0,423.992l-58.816,-33.957l-0,-458.908c-0,-10.209 -5.447,-19.643 -14.288,-24.747c-0.001,-0.001 -0.002,-0.001 -0.002,-0.002c-9.185,-5.302 -20.5,-5.302 -29.684,0c-9.185,5.303 -14.842,15.102 -14.842,25.707l-0,423.992l-58.816,-33.958l-0,-458.907c-0,-10.209 -5.447,-19.643 -14.289,-24.748c-0,0 -0.001,-0 -0.002,-0.001c-9.184,-5.302 -20.499,-5.302 -29.684,0c-9.184,5.303 -14.842,15.102 -14.842,25.707l0,423.992l-58.816,-33.958l0,-458.993c0,-10.156 -5.418,-19.541 -14.214,-24.619c-0,-0 -0.001,-0 -0.001,-0.001c-9.168,-5.293 -20.463,-5.294 -29.632,-0.002c-9.169,5.291 -14.819,15.071 -14.822,25.658c-0.043,122.9 -0.147,424 -0.147,424l-58.816,-33.958l-0,-458.907c-0,-10.209 -5.447,-19.643 -14.288,-24.748c-0.001,-0 -0.002,-0.001 -0.003,-0.001c-9.184,-5.303 -20.499,-5.303 -29.684,-0c-9.184,5.302 -14.842,15.102 -14.842,25.707l0,423.992l-58.816,-33.958l0,-543.321l882.243,509.364Z" style="fill:#a6a8ab;stroke:#000;stroke-width:12.5px;"/>
            <path d="M594.524,720.216l117.633,-67.915l176.448,101.872l-117.632,67.915l-176.449,-101.872Z" style="fill:#d0d2d3;stroke:#000;stroke-width:12.5px;"/>
            <path d="M888.605,754.173l0,67.915l-117.632,67.916l-0,-67.916l117.632,-67.915Z" style="fill:#808184;stroke:#000;stroke-width:12.5px;"/>
            <path d="M770.973,822.088l-0,67.916l-176.449,-101.873l0,-67.915l176.449,101.872Z" style="fill:#a6a8ab;stroke:#000;stroke-width:12.5px;"/>
            <path d="M653.34,754.173l-117.632,135.831l117.632,-67.916l0,-67.915Z" style="fill:#808184;stroke:#000;stroke-width:12.5px;"/>
            <path d="M653.34,754.173l-117.632,135.831l-58.816,-33.958l117.632,-135.83l58.816,33.957Z" style="fill:#d0d2d3;stroke:#000;stroke-width:12.5px;"/>
            <path d="M1006.4,1433.42l-353.062,-203.84l58.817,-33.957l117.632,67.915l176.613,-101.968l176.419,101.998l235.13,-135.861l58.816,33.958l-235.264,135.83l-235.101,135.925Z" style="fill:#d0d2d3;stroke:#000;stroke-width:12.5px;"/>
            <path d="M1006.4,1433.42l-0.164,67.821l-411.714,-237.703l58.816,-33.958l353.062,203.84Z" style="fill:#a6a8ab;stroke:#000;stroke-width:12.5px;"/>
            <path d="M1006.4,1501.14l529.182,-305.523l-58.817,-33.958l-470.365,271.755l0,67.726Z" style="fill:#808184;stroke:#000;stroke-width:12.5px;"/>
            <path d="M359.259,923.961l117.633,67.915l-117.633,67.915l-117.632,-67.915l117.632,-67.915Z" style="fill:#62b54a;stroke:#000;stroke-width:12.5px;"/>
            <path d="M359.259,584.386l58.817,33.957l-58.817,33.958l-58.816,-33.958l58.816,-33.957Z" style="fill:#62b54a;stroke:#000;stroke-width:12.5px;"/>
            <path d="M369.505,984.934c0.109,0.593 0.165,1.203 0.165,1.826c0,5.652 -4.665,10.24 -10.411,10.24c-5.746,0 -10.411,-4.588 -10.411,-10.24c0,-0.623 0.057,-1.233 0.166,-1.826l-0,-177.039l20.491,-0l0,177.039Z" style="fill:#c06100;stroke:#000;stroke-width:12.5px;"/>
            <path d="M359.259,652.301l0,203.745l-58.816,-33.958l0,-203.745l58.816,33.958Z" style="fill:#4e913b;stroke:#000;stroke-width:12.5px;"/>
            <path d="M359.259,652.301l0,203.745l58.817,-33.958l-0,-203.745l-58.817,33.958Z" style="fill:#3b6d2c;stroke:#000;stroke-width:12.5px;"/>
            <g transform="matrix(0.866025,0.5,-4.80741e-17,1,-2752.87,10273.9)">
                <g transform="matrix(155.283,0,0,155.283,4213.7,-10727)">
                </g>
                <text x="3316.28px" y="-10727px" style="font-family:'Arial-BoldMT', 'Arial', sans-serif;font-weight:700;font-size:155.283px;">gitterra.com</text>
            </g>
        </g>
    </g>
</svg>
