<?xml version="1.0" encoding="UTF-8" standalone="no"?>
<!DOCTYPE svg PUBLIC "-//W3C//DTD SVG 1.1//EN" "http://www.w3.org/Graphics/SVG/1.1/DTD/svg11.dtd">
<svg width="100%" height="100%" viewBox="0 0 2013 2711" version="1.1" xmlns="http://www.w3.org/2000/svg" xmlns:xlink="http://www.w3.org/1999/xlink" xml:space="preserve" xmlns:serif="http://www.serif.com/" style="fill-rule:evenodd;clip-rule:evenodd;stroke-linecap:round;stroke-linejoin:round;stroke-miterlimit:1.5;">
    <rect id="novaterraprime_tile_15" x="0.215" y="0.584" width="2012.61" height="2709.69" style="fill:none;"/>
    <clipPath id="_clip1">
        <rect x="0.215" y="0.584" width="2012.61" height="2709.69"/>
    </clipPath>
    <g clip-path="url(#_clip1)">
        <g id="tile15">
            <g id="tilebase">
                <path d="M2006.27,1943.43l-0,189.322l-1000.29,577.517l-0,-189.322l1000.29,-577.517Z" style="fill:#808184;stroke:#000;stroke-width:12.5px;"/>
                <path d="M1005.98,2519.99l-0,189.799l-999.463,-577.04l0,-189.799l999.463,577.04Z" style="fill:#a6a8ab;stroke:#000;stroke-width:12.5px;"/>
                <path d="M1006.81,1366.11l999.711,577.183l-999.711,577.184l-999.711,-577.184l999.711,-577.183Z" style="fill:#d0d2d3;stroke:#000;stroke-width:12.5px;"/>
            </g>
            <path d="M837.632,2106.27l0,143.131l-164.604,-95.034l-0,-143.131l164.604,95.034Z" style="fill:#a6a8ab;stroke:#000;stroke-width:12.5px;"/>
            <g transform="matrix(0.866025,0.5,-4.80741e-17,1,-2753.81,10277.4)">
                <g transform="matrix(155.283,0,0,155.283,4206.71,-9793.95)">
                </g>
                <text x="3309.29px" y="-9793.95px" style="font-family:'Arial-BoldMT', 'Arial', sans-serif;font-weight:700;font-size:155.283px;">gitterra.com</text>
            </g>
            <path d="M797.27,1939.51l205.827,118.835l-123.382,71.234l-205.827,-118.834l123.382,-71.235Z" style="fill:#d0d2d3;stroke:#000;stroke-width:12.5px;"/>
            <path d="M1168.56,1963.31l-0,333.035l-164.604,-95.035l-0,-333.034l164.604,95.034Z" style="fill:#a6a8ab;stroke:#000;stroke-width:12.5px;"/>
            <path d="M1168.56,2058.34l-0,-95.531l80.459,-188.922l83.859,94.053l-0,333.531l-164.318,94.869l-0,-0.994l-165.178,95.366l-0,-237.007l165.178,-95.365Z" style="fill:#808184;stroke:#000;stroke-width:12.5px;"/>
            <path d="M1003.1,1963.47l164.891,95.2l-164.317,94.869l-164.892,-95.2l164.318,-94.869Z" style="fill:#d0d2d3;stroke:#000;stroke-width:12.5px;"/>
            <path d="M1003.38,2153.7l-0,237.007l-164.605,-95.035l0,-237.006l164.605,95.034Z" style="fill:#a6a8ab;stroke:#000;stroke-width:12.5px;"/>
            <path d="M1249.02,1773.89l-164.891,-95.2l-81.033,188.922l165.035,95.282l80.889,-189.004Z" style="fill:#ff8559;stroke:#000;stroke-width:12.5px;"/>
            <path d="M917.374,2230.68c-3.929,-2.269 -8.77,-2.269 -12.699,-0c-3.93,2.268 -6.35,6.461 -6.35,10.998l-0,89.04l36.615,21.14l0,-91.342c0,-12.187 -6.501,-23.448 -17.056,-29.542c-0.17,-0.098 -0.34,-0.196 -0.51,-0.294Z"/>
            <path d="M724.948,2070.09c-2.531,-1.462 -5.649,-1.462 -8.18,-0c-2.531,1.461 -4.09,4.161 -4.09,7.084c-0,19.586 -0,52.549 -0,52.549l22.001,12.702c-0,-0 -0,-36.47 -0,-55.482c-0,-6.952 -3.709,-13.377 -9.73,-16.853c-0.001,-0 -0.001,-0 -0.001,-0Z"/>
            <path d="M762.768,2091.92c-2.531,-1.461 -5.649,-1.461 -8.18,0c-2.531,1.461 -4.09,4.162 -4.09,7.084c0,19.587 0,52.549 0,52.549l22.001,12.702c-0,0 -0,-36.47 -0,-55.482c-0,-6.952 -3.709,-13.376 -9.73,-16.852c-0.001,-0.001 -0.001,-0.001 -0.001,-0.001Z"/>
            <path d="M1127.75,1966.56c-2.531,-1.461 -5.649,-1.461 -8.18,0c-2.531,1.462 -4.09,4.162 -4.09,7.084c0,19.587 0,52.549 0,52.549l22.001,12.703c-0,-0 -0,-36.47 -0,-55.482c-0,-6.953 -3.709,-13.377 -9.73,-16.853c-0,-0 -0.001,-0 -0.001,-0.001Z"/>
            <path d="M1059.79,1923.47c-1.425,-0.823 -3.18,-0.823 -4.604,-0c-1.425,0.822 -2.302,2.342 -2.302,3.987c-0,12.212 -0,34.147 -0,34.147l13.89,8.02l-0,-34.06c-0,-4.989 -2.662,-9.599 -6.982,-12.093c-0.001,-0 -0.001,-0.001 -0.002,-0.001Z"/>
            <path d="M1030.83,1906.75c-1.425,-0.822 -3.18,-0.822 -4.604,0c-1.425,0.823 -2.302,2.343 -2.302,3.988c-0,12.212 -0,34.147 -0,34.147l13.89,8.019c-0,0 -0,-21.83 -0,-34.059c-0,-4.989 -2.662,-9.599 -6.982,-12.093c-0.001,-0.001 -0.001,-0.001 -0.002,-0.002Z"/>
            <path d="M1053.62,2248.69c2.531,-1.461 5.649,-1.461 8.18,-0c2.531,1.461 4.09,4.162 4.09,7.084c-0,19.587 -0,52.549 -0,52.549l-22.001,12.702c0,0 0,-36.47 0,-55.482c0,-6.952 3.709,-13.377 9.73,-16.853c0,0 0.001,0 0.001,-0Z"/>
            <path d="M1095.24,2224.65c2.531,-1.462 5.649,-1.462 8.18,-0c2.531,1.461 4.09,4.161 4.09,7.084c-0,19.586 -0,52.549 -0,52.549l-22.001,12.702c0,-0 0,-36.47 0,-55.482c0,-6.953 3.709,-13.377 9.73,-16.853c0,-0 0,-0 0.001,-0Z"/>
            <path d="M1095.24,2131.4c2.531,-1.462 5.649,-1.462 8.18,-0c2.531,1.461 4.09,4.161 4.09,7.084c-0,19.586 -0,52.549 -0,52.549l-22.001,12.702c0,-0 0,-36.47 0,-55.482c0,-6.953 3.709,-13.377 9.73,-16.853c0,-0 0,-0 0.001,-0Z"/>
            <path d="M1137.76,2106.86c2.531,-1.461 5.649,-1.461 8.18,-0c2.531,1.461 4.09,4.162 4.09,7.084c0,19.587 0,52.549 0,52.549l-22,12.702l-0,-55.482c-0,-6.952 3.709,-13.377 9.73,-16.853c-0,0 0,-0 0,-0Z"/>
            <path d="M1278.21,2119.02c2.531,-1.462 5.649,-1.462 8.18,-0c2.531,1.461 4.09,4.161 4.09,7.084c0,19.586 0,52.549 0,52.549l-22.001,12.702l0,-55.482c0,-6.952 3.709,-13.377 9.73,-16.853c0.001,-0 0.001,-0 0.001,-0Z"/>
            <path d="M1278.21,1976.21c2.531,-1.462 5.649,-1.462 8.18,-0c2.531,1.461 4.09,4.161 4.09,7.084c0,19.586 0,52.549 0,52.549l-22.001,12.702l0,-55.482c0,-6.953 3.709,-13.377 9.73,-16.853c0.001,-0 0.001,-0 0.001,-0Z"/>
            <path d="M1278.21,1879.71c2.531,-1.461 5.649,-1.461 8.18,0c2.531,1.461 4.09,4.162 4.09,7.084c0,19.587 0,52.549 0,52.549l-22.001,12.702l0,-55.482c0,-6.952 3.709,-13.376 9.73,-16.852c0.001,-0.001 0.001,-0.001 0.001,-0.001Z"/>
            <path d="M1236.83,2000.1c2.531,-1.462 5.649,-1.462 8.18,-0c2.531,1.461 4.09,4.161 4.09,7.084c-0,19.586 -0,52.549 -0,52.549l-22.001,12.702l0,-55.482c0,-6.953 3.709,-13.377 9.73,-16.853c0,-0 0.001,-0 0.001,-0Z"/>
            <g>
                <path d="M298.838,1893.41l78.977,45.597l-78.977,45.597l-78.976,-45.597l78.976,-45.597Z" style="fill:#62b54a;stroke:#000;stroke-width:4.17px;"/>
                <path d="M298.838,1665.43l39.489,22.799l-39.489,22.798l-39.488,-22.798l39.488,-22.799Z" style="fill:#62b54a;stroke:#000;stroke-width:4.17px;"/>
                <path d="M305.717,1934.35c0.073,0.398 0.111,0.807 0.111,1.226c0,3.794 -3.132,6.875 -6.99,6.875c-3.857,-0 -6.989,-3.081 -6.989,-6.875c-0,-0.419 0.038,-0.828 0.111,-1.226l-0,-118.861l13.757,0l0,118.861Z" style="fill:#c06100;stroke:#000;stroke-width:4.17px;"/>
                <path d="M298.838,1711.02l0,136.791l-39.488,-22.799l0,-136.79l39.488,22.798Z" style="fill:#4e913b;stroke:#000;stroke-width:4.17px;"/>
                <path d="M298.838,1711.02l0,136.791l39.489,-22.799l-0,-136.79l-39.489,22.798Z" style="fill:#3b6d2c;stroke:#000;stroke-width:4.17px;"/>
            </g>
            <g>
                <path d="M1003.67,1491.15l78.976,45.597l-78.976,45.597l-78.977,-45.597l78.977,-45.597Z" style="fill:#62b54a;stroke:#000;stroke-width:4.17px;"/>
                <path d="M1003.67,1263.16l39.488,22.799l-39.488,22.798l-39.488,-22.798l39.488,-22.799Z" style="fill:#62b54a;stroke:#000;stroke-width:4.17px;"/>
                <path d="M1010.55,1532.08c0.072,0.398 0.11,0.807 0.11,1.226c0,3.794 -3.132,6.875 -6.989,6.875c-3.858,-0 -6.99,-3.081 -6.99,-6.875c-0,-0.419 0.038,-0.828 0.111,-1.226l-0,-118.861l13.758,0l-0,118.861Z" style="fill:#c06100;stroke:#000;stroke-width:4.17px;"/>
                <path d="M1003.67,1308.76l-0,136.791l-39.488,-22.799l-0,-136.79l39.488,22.798Z" style="fill:#4e913b;stroke:#000;stroke-width:4.17px;"/>
                <path d="M1003.67,1308.76l-0,136.791l39.488,-22.799l-0,-136.79l-39.488,22.798Z" style="fill:#3b6d2c;stroke:#000;stroke-width:4.17px;"/>
            </g>
            <g>
                <path d="M1745.68,1871.95l78.976,45.597l-78.976,45.597l-78.976,-45.597l78.976,-45.597Z" style="fill:#62b54a;stroke:#000;stroke-width:4.17px;"/>
                <path d="M1745.68,1643.96l39.488,22.799l-39.488,22.798l-39.488,-22.798l39.488,-22.799Z" style="fill:#62b54a;stroke:#000;stroke-width:4.17px;"/>
                <path d="M1752.56,1912.88c0.073,0.398 0.111,0.807 0.111,1.226c0,3.794 -3.132,6.875 -6.99,6.875c-3.857,-0 -6.989,-3.081 -6.989,-6.875c-0,-0.419 0.038,-0.828 0.11,-1.226l0,-118.861l13.758,0l0,118.861Z" style="fill:#c06100;stroke:#000;stroke-width:4.17px;"/>
                <path d="M1745.68,1689.56l0,136.791l-39.488,-22.799l0,-136.79l39.488,22.798Z" style="fill:#4e913b;stroke:#000;stroke-width:4.17px;"/>
                <path d="M1745.68,1689.56l0,136.791l39.488,-22.799l0,-136.79l-39.488,22.798Z" style="fill:#3b6d2c;stroke:#000;stroke-width:4.17px;"/>
            </g>
        </g>
    </g>
</svg>
