<?xml version="1.0" encoding="UTF-8" standalone="no"?>
<!DOCTYPE svg PUBLIC "-//W3C//DTD SVG 1.1//EN" "http://www.w3.org/Graphics/SVG/1.1/DTD/svg11.dtd">
<svg width="100%" height="100%" viewBox="0 0 2013 2060" version="1.1" xmlns="http://www.w3.org/2000/svg"
    xmlns:xlink="http://www.w3.org/1999/xlink" xml:space="preserve" xmlns:serif="http://www.serif.com/"
    style="fill-rule:evenodd;clip-rule:evenodd;stroke-linecap:round;stroke-linejoin:round;stroke-miterlimit:1.5;">
    <g transform="matrix(1,0,0,1,-8738.7,-615.916)">
        <g id="novaterraprime_tile_5" transform="matrix(10.0631,0,0,6.86416,8738.7,615.916)">
            <rect x="0" y="0" width="200" height="300" style="fill:none;" />
            <clipPath id="_clip1">
                <rect x="0" y="0" width="200" height="300" />
            </clipPath>
            <g clip-path="url(#_clip1)">
                <g transform="matrix(0.0860598,-0.0728421,0.0993734,0.0841108,-819.237,-69.3457)">
                    <path
                        d="M4014.99,5722.09C3997.75,5737.01 3973.95,5746.25 3947.68,5746.25C3895.14,5746.25 3852.48,5709.3 3852.48,5663.8C3852.48,5641.05 3863.15,5620.44 3880.38,5605.52L4356.2,5193.44L4490.81,5310.02L4014.99,5722.09Z"
                        style="fill:#a6a8ab;stroke:#000;stroke-width:6.31px;" />
                </g>
                <g transform="matrix(0.0860598,-0.0728421,0.0993734,0.0841108,-819.237,-138.691)">
                    <ellipse cx="3947.68" cy="5663.8" rx="95.2" ry="82.446"
                        style="fill:#d0d2d3;stroke:#000;stroke-width:6.31px;" />
                </g>
                <g transform="matrix(0.0606773,-0.051358,0.0700642,0.0593032,-553.033,-82.998)">
                    <ellipse cx="3947.68" cy="5663.8" rx="95.2" ry="82.446" style="fill:#a6a8ab;" />
                    <clipPath id="_clip2">
                        <ellipse cx="3947.68" cy="5663.8" rx="95.2" ry="82.446" />
                    </clipPath>
                    <g clip-path="url(#_clip2)">
                        <g transform="matrix(1,2.22045e-16,2.22045e-16,1,-51.3815,44.4977)">
                            <ellipse cx="3947.68" cy="5663.8" rx="95.2" ry="82.446"
                                style="fill:#d0d2d3;stroke:#000;stroke-width:8.95px;" />
                        </g>
                    </g>
                    <ellipse cx="3947.68" cy="5663.8" rx="95.2" ry="82.446"
                        style="fill:none;stroke:#000;stroke-width:8.95px;" />
                </g>
                <g transform="matrix(0.0645449,-0.0546316,0.07453,0.0630831,-581.306,-84.5494)">
                    <path
                        d="M3971.74,5526.39L4134.25,5385.66L4268.85,5502.23L3606.29,6076.03C3589.06,6090.95 3565.26,6100.19 3538.99,6100.19C3512.72,6100.19 3488.91,6090.95 3471.68,6076.03C3469.86,6074.45 3468.11,6072.81 3466.44,6071.11L3966.5,5638.04C3952.37,5623.66 3943.85,5605.02 3943.85,5584.68C3943.85,5561.93 3954.51,5541.32 3971.74,5526.39Z"
                        style="fill:#a6a8ab;stroke:#000;stroke-width:8.41px;" />
                </g>
                <g transform="matrix(0.0645449,-0.0546316,0.07453,0.0630831,-581.306,-112.288)">
                    <ellipse cx="3947.68" cy="5663.8" rx="95.2" ry="82.446" style="fill:#d0d2d3;" />
                    <clipPath id="_clip3">
                        <ellipse cx="3947.68" cy="5663.8" rx="95.2" ry="82.446" />
                    </clipPath>
                    <g clip-path="url(#_clip3)">
                        <g transform="matrix(0.706968,1.11022e-16,1.11022e-16,0.706968,1156.8,1659.67)">
                            <ellipse cx="3947.68" cy="5663.8" rx="95.2" ry="82.446" style="fill:#a6a8ab;" />
                            <clipPath id="_clip4">
                                <ellipse cx="3947.68" cy="5663.8" rx="95.2" ry="82.446" />
                            </clipPath>
                            <g clip-path="url(#_clip4)">
                                <g transform="matrix(1,1.11022e-16,2.22045e-16,1,-85.9548,74.4391)">
                                    <ellipse cx="3947.68" cy="5663.8" rx="95.2" ry="82.446"
                                        style="fill:#d0d2d3;stroke:#000;stroke-width:11.9px;" />
                                </g>
                            </g>
                            <ellipse cx="3947.68" cy="5663.8" rx="95.2" ry="82.446"
                                style="fill:none;stroke:#000;stroke-width:11.9px;" />
                        </g>
                    </g>
                    <ellipse cx="3947.68" cy="5663.8" rx="95.2" ry="82.446"
                        style="fill:none;stroke:#000;stroke-width:8.41px;" />
                </g>
                <g id="tilebase" transform="matrix(1,0,0,0.860584,-0.0613793,41.449)">
                    <g transform="matrix(0.860633,-0.846461,8.27483e-17,2.72465,0.632214,-446.354)">
                        <rect x="115.403" y="298.016" width="115.499" height="11.763"
                            style="fill:#808184;stroke:#000;stroke-width:1.26px;" />
                    </g>
                    <g transform="matrix(0.860633,0.846461,-5.51655e-17,1.82101,0.632214,-179.805)">
                        <rect x="0" y="192.151" width="115.403" height="17.644"
                            style="fill:#a6a8ab;stroke:#000;stroke-width:0.98px;" />
                    </g>
                    <g transform="matrix(0.860633,-0.846461,0.993774,0.977409,0.656928,-205.459)">
                        <rect x="-221.858" y="192.167" width="115.432" height="99.967"
                            style="fill:#d0d2d3;stroke:#000;stroke-width:0.95px;" />
                    </g>
                </g>
                <g transform="matrix(0.0860598,0.0728421,2.20653e-17,0.168222,-868.394,4.80309e-13)">
                    <rect x="11868.1" y="-4160.8" width="238" height="41.223"
                        style="fill:#a6a8ab;stroke:#000;stroke-width:6.31px;" />
                </g>
                <g transform="matrix(0.0860598,-0.0728421,0.080873,0.0684519,-753.698,97.0805)">
                    <path
                        d="M4852.08,6402.31L3947.68,6402.31L3947.68,6405.81L3900.08,6405.81L3900.08,6199.7L3947.68,6199.7L3947.68,6351.66L4804.48,6351.66L4804.48,6047.74L4852.08,6047.74L4852.08,6402.31Z"
                        style="fill:#d0d2d3;stroke:#000;stroke-width:7.01px;" />
                </g>
                <g transform="matrix(0.0860598,-0.0728421,5.51633e-18,0.168222,-864.298,-3.46728)">
                    <rect x="10297.3" y="5581.52" width="523.6" height="41.061"
                        style="fill:#808184;stroke:#000;stroke-width:10.86px;" />
                </g>
                <g transform="matrix(0.0860598,-0.0728421,0.0993734,0.0841108,-864.298,-3.46728)">
                    <path
                        d="M3852.86,5540.46L3852.86,5540.13L3900.08,5540.13L3900.08,5540.46L4471.28,5540.46L4471.28,5581.36L3900.08,5581.36L3900.08,6117.25L3852.86,6117.25L3852.86,5581.36L3852.48,5581.36L3852.48,5540.46L3852.86,5540.46Z"
                        style="fill:#d0d2d3;stroke:#000;stroke-width:6.31px;" />
                </g>
                <g transform="matrix(0.0851141,0.0720416,-5.18313e-18,0.124368,-861.852,-110.312)">
                    <rect x="10816.1" y="-4361.04" width="433.16" height="614.22"
                        style="fill:#a6a8ab;stroke:#000;stroke-width:7.38px;" />
                </g>
                <g transform="matrix(0.0860598,-0.0728421,-1.75497e-17,0.132551,-868.394,255.387)">
                    <rect x="11201.7" y="5418.22" width="714" height="577.119"
                        style="fill:#808184;stroke:#000;stroke-width:12.3px;" />
                </g>
                <g transform="matrix(0.0993734,0,0,0.145684,-868.394,0)">
                    <path d="M9700.94,1080.46L9618.49,796.356L10236.8,439.356L10319.3,724.956L9700.94,1080.46Z"
                        style="fill:#3b6d2c;stroke:#000;stroke-width:8.33px;" />
                </g>
                <g transform="matrix(0.0993734,0,0,0.145684,-868.394,0)">
                    <path d="M9618.49,796.356L9412.38,677.356L9329.93,868.502L9700.94,1082.7L9618.49,796.356Z"
                        style="fill:#4e913b;stroke:#000;stroke-width:8.33px;" />
                </g>
                <g transform="matrix(0.0860598,-0.0728421,0.070981,0.0600792,-715.193,129.671)">
                    <rect x="4756.88" y="5251.57" width="714" height="288.56"
                        style="fill:#62b54a;stroke:#000;stroke-width:7.45px;" />
                </g>
                <g transform="matrix(0.0860598,0.0728421,-5.51633e-18,0.294388,-864.298,440.004)">
                    <path
                        d="M10937.6,-3624.91C10953.7,-3624.91 10963.7,-3619.98 10963.7,-3611.98C10963.7,-3573.12 10963.7,-3460.02 10963.7,-3460.02L10916.1,-3460.02C10916.1,-3460.02 10916.1,-3581.2 10916.1,-3615.79C10916.1,-3617.67 10918.4,-3619.99 10922.2,-3621.87C10926,-3623.75 10930.7,-3624.91 10934.5,-3624.91L10937.6,-3624.91Z" />
                </g>
                <g transform="matrix(0.0375846,0.031812,-2.40912e-18,0.294388,-326.945,887.892)">
                    <path
                        d="M10954.3,-3624.91C10960.1,-3624.91 10963.7,-3624.13 10963.7,-3622.88C10963.7,-3604.02 10963.7,-3460.02 10963.7,-3460.02L10916.1,-3460.02C10916.1,-3460.02 10916.1,-3586.74 10916.1,-3618C10916.1,-3619.43 10920.1,-3621.18 10926.7,-3622.61C10933.3,-3624.03 10941.4,-3624.91 10948,-3624.91C10950.3,-3624.91 10952.4,-3624.91 10954.3,-3624.91Z" />
                </g>
                <g transform="matrix(0.0375846,0.031812,-2.40912e-18,0.294388,-345.12,872.508)">
                    <path
                        d="M10954.3,-3624.91C10960.1,-3624.91 10963.7,-3624.13 10963.7,-3622.88C10963.7,-3604.02 10963.7,-3460.02 10963.7,-3460.02L10916.1,-3460.02C10916.1,-3460.02 10916.1,-3586.74 10916.1,-3618C10916.1,-3619.43 10920.1,-3621.18 10926.7,-3622.61C10933.3,-3624.03 10941.4,-3624.91 10948,-3624.91C10950.3,-3624.91 10952.4,-3624.91 10954.3,-3624.91Z" />
                </g>
                <g transform="matrix(0.0375846,0.031812,-2.40912e-18,0.294388,-322.849,891.359)">
                    <path
                        d="M10954.3,-3624.91C10960.1,-3624.91 10963.7,-3624.13 10963.7,-3622.88C10963.7,-3604.02 10963.7,-3460.02 10963.7,-3460.02L10916.1,-3460.02C10916.1,-3460.02 10916.1,-3586.74 10916.1,-3618C10916.1,-3619.43 10920.1,-3621.18 10926.7,-3622.61C10933.3,-3624.03 10941.4,-3624.91 10948,-3624.91C10950.3,-3624.91 10952.4,-3624.91 10954.3,-3624.91Z" />
                </g>
                <g transform="matrix(0.0375846,0.031812,-2.40912e-18,0.294388,-341.024,875.976)">
                    <path
                        d="M10954.3,-3624.91C10960.1,-3624.91 10963.7,-3624.13 10963.7,-3622.88C10963.7,-3604.02 10963.7,-3460.02 10963.7,-3460.02L10916.1,-3460.02L10916.1,-3618C10916.1,-3619.43 10920.1,-3621.18 10926.7,-3622.61C10933.3,-3624.03 10941.4,-3624.91 10948,-3624.91C10950.3,-3624.91 10952.4,-3624.91 10954.3,-3624.91Z" />
                </g>
                <g transform="matrix(0.424697,0,0,0.424697,52.1508,117.006)">
                    <g transform="matrix(0.0860598,-0.0728421,5.51633e-18,0.168222,-868.394,0)">
                        <path
                            d="M11470.5,6070.27C11451.2,6049.18 11439.7,6022.54 11439.7,5993.58C11439.7,5925.33 11503.7,5869.91 11582.5,5869.91C11614.1,5869.91 11643.3,5878.83 11667,5893.92C11677.2,5900.45 11686.4,5908.14 11694.4,5916.76L11727.2,5944.2C11728.5,5945.24 11729.8,5946.3 11731,5947.38C11756.9,5969.76 11772.9,6000.68 11772.9,6034.81C11772.9,6103.06 11708.9,6158.48 11630.1,6158.48C11597.2,6158.48 11566.9,6148.82 11542.7,6132.6C11533.3,6126.28 11524.8,6118.96 11517.5,6110.82L11494.3,6090.86C11485.5,6084.83 11477.5,6077.91 11470.5,6070.27Z"
                            style="fill:#a6a8ab;stroke:#000;stroke-width:25.56px;" />
                    </g>
                    <g transform="matrix(0.0860598,-0.0728421,5.51633e-18,0.168222,-864.298,3.46728)">
                        <ellipse cx="11582.5" cy="5993.58" rx="142.8" ry="123.668"
                            style="fill:#808184;stroke:#000;stroke-width:25.56px;" />
                    </g>
                    <g transform="matrix(0.0993734,0,0,0.145684,-870.019,1.14798)">
                        <path
                            d="M10075.5,1247.49C10072.4,1250.6 10068,1250.86 10062.6,1250.86C10061.6,1250.86 10062.6,1251.5 10062.2,1251.92C10061.8,1252.33 10058.4,1251.92 10057.7,1251.92L10044.4,1251.92C10041,1251.92 10040.8,1251.22 10035.1,1249.95C10034.6,1249.85 10033.4,1250.25 10033.1,1249.95C10031.8,1248.58 10029.9,1247.98 10027.7,1246.01C10026.1,1244.56 10025.9,1241.78 10024.7,1240.59C10023,1238.75 10022.1,1238.19 10020.8,1236.16C10016.8,1230 10015.4,1227.22 10015.4,1218.92C10015.4,1218.02 10014.8,1213.59 10015.4,1213.01C10017.6,1210.84 10018.3,1206.66 10020.3,1204.64C10021.1,1203.84 10020.5,1201.43 10021.3,1200.7C10024.5,1197.89 10027.8,1195.95 10031.1,1192.82C10031.9,1192.13 10031.4,1190.03 10032.1,1189.37C10035.3,1186.62 10035.2,1180.1 10038,1176.07C10039.3,1174.23 10041.1,1166.48 10039.5,1163.27C10038,1160.29 10033.1,1157.69 10030.7,1153.91C10028.1,1150.05 10025.5,1145.47 10022.8,1143.08C10021.4,1141.89 10022.6,1140.05 10020.8,1139.14C10020.4,1138.92 10021,1138.1 10020.8,1137.66C10020.2,1136.5 10019.6,1133.35 10018.3,1132.73C10018,1132.55 10018.3,1127.94 10018.3,1127.32C10018.3,1120.93 10018.9,1114.54 10022.3,1111.56C10022.7,1111.18 10021.9,1109.96 10022.3,1109.59C10023.4,1108.52 10024.5,1103.78 10025.7,1103.18C10028.9,1101.61 10030,1096.71 10033.1,1093.83C10037.6,1089.77 10039.1,1084.83 10043.5,1081.02C10044,1080.54 10043.6,1078.76 10044,1078.07C10044.7,1076.5 10045.8,1074.88 10046.9,1073.63C10047.4,1073.11 10050.2,1073.04 10050.4,1072.65C10051.5,1070.27 10054.3,1070.63 10056.3,1068.71C10056.7,1068.25 10059,1068.75 10059.2,1068.22C10060.3,1066.12 10067.7,1065.24 10070.5,1064.28C10071,1064.12 10074.3,1064.62 10074.5,1064.28C10075.8,1061.71 10080.7,1064.12 10083.4,1062.8C10086.6,1061.2 10091.4,1060.9 10095.2,1060.9C10096.3,1060.9 10095.3,1060.27 10095.7,1059.85C10096,1059.43 10099.4,1059.85 10100.1,1059.85C10104.3,1059.85 10108.1,1059.35 10112.4,1059.35L10137,1059.35C10138.5,1059.35 10145,1058.44 10145.9,1059.35C10149,1062.48 10150.2,1067.27 10152.8,1069.69C10153.2,1070.07 10152.9,1072.26 10153.3,1072.65C10153.8,1073.14 10155.3,1077.84 10155.8,1078.07C10157.2,1078.79 10156.7,1079.51 10157.7,1080.53C10158,1080.79 10157.4,1082.35 10157.7,1082.5C10160.6,1083.92 10159.7,1096.04 10157.7,1098.75C10157.3,1099.37 10157.5,1101.95 10157.2,1102.69C10155.3,1108.38 10159.5,1115.22 10155.3,1119.44C10154.9,1119.79 10154.2,1119.22 10153.8,1119.44C10152.5,1120.09 10151.6,1122.47 10150.8,1123.38C10150.1,1124.26 10148.2,1124.42 10147.4,1125.35C10145.7,1127.14 10143.5,1125.66 10142.5,1127.81C10142.2,1128.23 10136.3,1128.75 10135.6,1129.29C10132.6,1131.46 10125.6,1128.11 10123.2,1130.76C10120.7,1133.74 10115.8,1132.83 10112.4,1136.18C10112.1,1136.53 10112.6,1137.22 10112.4,1137.66C10112,1138.5 10109.2,1140.23 10108.5,1140.61C10108.3,1140.71 10106.4,1144.7 10106,1145.05C10104.5,1146.51 10105,1151.66 10105,1154.4C10105,1154.86 10104.7,1157.52 10105,1157.85C10105.7,1158.52 10108.4,1157.77 10109,1158.84C10110,1160.85 10111.6,1161.51 10112.9,1162.78C10113.6,1163.43 10117,1162.98 10117.8,1163.76C10119.7,1165.6 10123.3,1169.23 10124.7,1172.13C10125.8,1174.29 10125,1182.88 10124.2,1184.45C10123.5,1185.84 10122.7,1189.54 10121.3,1190.85C10120.4,1191.62 10119.2,1191.57 10118.3,1192.33C10117.9,1192.65 10118.6,1193.5 10118.3,1193.8C10117.1,1195.05 10115.6,1197.37 10113.9,1198.24C10113.6,1198.38 10114.2,1199.94 10113.9,1200.21C10112.6,1201.5 10113.6,1202.99 10112.4,1204.64C10110.1,1207.98 10106.3,1213.28 10099.6,1211.04C10090.5,1208.01 10085.9,1196.8 10081.4,1190.36C10080.7,1189.33 10077.9,1181.51 10079.9,1179.52C10081.1,1178.37 10082.7,1177.72 10083.8,1176.57C10085.4,1175.01 10085.9,1170.63 10087.8,1169.67C10088.4,1169.38 10090.8,1167.88 10090.8,1167.25C10090.8,1158.06 10088.3,1153.15 10088.3,1144.54C10088.3,1143.1 10084.9,1136.64 10086.8,1134.7C10087.4,1134.1 10088.7,1134.33 10089.3,1133.72C10090,1133.03 10089.6,1131.46 10090.2,1130.76C10091.7,1129.28 10093.2,1127.81 10094.7,1126.33C10095.3,1125.73 10098.3,1125.51 10098.6,1124.85C10099.2,1123.76 10102.7,1119.88 10103.5,1119.44C10106.1,1118.14 10106.2,1117.31 10108,1115.5C10109.3,1114.17 10111,1114.95 10111.9,1113.04C10112.3,1112.33 10117,1113.46 10117.8,1113.04C10122,1110.94 10129.8,1108.22 10133.1,1105.15C10133.5,1104.77 10133.8,1101.86 10134.1,1101.71C10137.4,1100.03 10135.9,1093.69 10134.1,1090.87C10133.2,1089.53 10134.3,1086.88 10133.6,1085.45C10133.2,1084.73 10130.2,1083.75 10129.2,1082.99C10128,1082.18 10123.2,1082.99 10121.8,1082.99C10113.6,1082.99 10108.8,1083.69 10102.1,1085.95C10101.6,1086.11 10098.3,1085.6 10098.1,1085.95C10096.8,1088.7 10090.1,1086.14 10088.8,1088.9C10088.7,1089.09 10086.7,1088.9 10086.3,1088.9C10084.9,1088.9 10081.1,1089.09 10079.9,1089.89C10075,1093.19 10069,1092.92 10065.1,1096.78C10064.8,1097.13 10062.9,1096.38 10062.7,1096.78C10061.9,1098.31 10059.7,1098.7 10058.7,1099.74C10057.9,1100.62 10055.1,1099.84 10054.3,1100.72C10051,1104.53 10046.7,1108.28 10043.5,1111.56C10041.3,1113.75 10041.5,1118.48 10041.5,1122.88C10041.5,1123.63 10041,1126.85 10041.5,1127.32C10043.4,1129.18 10046.4,1133.95 10047.9,1134.7C10050.8,1136.15 10054.3,1137.6 10055.8,1140.61C10056,1141.06 10058.2,1141.02 10058.7,1141.6C10060,1143.02 10062,1146.17 10063.7,1147.02C10064,1147.2 10063.9,1150 10064.1,1150.46C10064.8,1151.77 10066.3,1157.71 10067.6,1158.34C10068,1158.55 10067.6,1164.05 10067.6,1164.75C10067.6,1170.85 10066.5,1174.71 10063.7,1177.55C10062.9,1178.28 10063.4,1180.3 10062.7,1181C10060.2,1183.32 10058.2,1188.09 10055.8,1190.36C10055,1191.06 10055.6,1194.06 10054.8,1194.79C10052.4,1196.84 10051.6,1200.27 10049.4,1202.18C10048.7,1202.75 10049.2,1207.16 10048.4,1207.59C10045,1209.27 10042.9,1225.06 10048.4,1227.79C10049.4,1228.31 10048.4,1230.19 10048.9,1231.23C10049.4,1232.27 10051.8,1232.69 10052.8,1233.7C10054.8,1235.73 10056.1,1237.18 10057.7,1239.11C10058.4,1239.9 10060.9,1238.86 10061.7,1239.61C10062.7,1240.59 10064.1,1241.09 10065.1,1242.07C10066,1242.9 10069.3,1241.7 10070.1,1242.56C10071.8,1244.6 10075,1244.52 10077.9,1246.01C10078.7,1246.41 10077.9,1247.49 10079.4,1247.49"
                            style="fill:#a6a8ab;stroke:#000;stroke-width:19.62px;" />
                    </g>
                    <g transform="matrix(0.0993734,0,0,0.145684,-868.392,2.08359)">
                        <path
                            d="M10075.5,1247.49C10072.4,1250.6 10068,1250.86 10062.6,1250.86C10061.6,1250.86 10062.6,1251.5 10062.2,1251.92C10061.8,1252.33 10058.4,1251.92 10057.7,1251.92L10044.4,1251.92C10041,1251.92 10040.8,1251.22 10035.1,1249.95C10034.6,1249.85 10033.4,1250.25 10033.1,1249.95C10031.8,1248.58 10029.9,1247.98 10027.7,1246.01C10026.1,1244.56 10025.9,1241.78 10024.7,1240.59C10023,1238.75 10022.1,1238.19 10020.8,1236.16C10016.8,1230 10015.4,1227.22 10015.4,1218.92C10015.4,1218.02 10014.8,1213.59 10015.4,1213.01C10017.6,1210.84 10018.3,1206.66 10020.3,1204.64C10021.1,1203.84 10020.5,1201.43 10021.3,1200.7C10024.5,1197.89 10027.8,1195.95 10031.1,1192.82C10031.9,1192.13 10031.4,1190.03 10032.1,1189.37C10035.3,1186.62 10035.2,1180.1 10038,1176.07C10039.3,1174.23 10041.1,1166.48 10039.5,1163.27C10038,1160.29 10033.1,1157.69 10030.7,1153.91C10028.1,1150.05 10025.5,1145.47 10022.8,1143.08C10021.4,1141.89 10022.6,1140.05 10020.8,1139.14C10020.4,1138.92 10021,1138.1 10020.8,1137.66C10020.2,1136.5 10019.6,1133.35 10018.3,1132.73C10018,1132.55 10018.3,1127.94 10018.3,1127.32C10018.3,1120.93 10018.9,1114.54 10022.3,1111.56C10022.7,1111.18 10021.9,1109.96 10022.3,1109.59C10023.4,1108.52 10024.5,1103.78 10025.7,1103.18C10028.9,1101.61 10030,1096.71 10033.1,1093.83C10037.6,1089.77 10039.1,1084.83 10043.5,1081.02C10044,1080.54 10043.6,1078.76 10044,1078.07C10044.7,1076.5 10045.8,1074.88 10046.9,1073.63C10047.4,1073.11 10050.2,1073.04 10050.4,1072.65C10051.5,1070.27 10054.3,1070.63 10056.3,1068.71C10056.7,1068.25 10059,1068.75 10059.2,1068.22C10060.3,1066.12 10067.7,1065.24 10070.5,1064.28C10071,1064.12 10074.3,1064.62 10074.5,1064.28C10075.8,1061.71 10080.7,1064.12 10083.4,1062.8C10086.6,1061.2 10091.4,1060.9 10095.2,1060.9C10096.3,1060.9 10095.3,1060.27 10095.7,1059.85C10096,1059.43 10099.4,1059.85 10100.1,1059.85C10104.3,1059.85 10108.1,1059.35 10112.4,1059.35L10137,1059.35C10138.5,1059.35 10145,1058.44 10145.9,1059.35C10149,1062.48 10150.2,1067.27 10152.8,1069.69C10153.2,1070.07 10152.9,1072.26 10153.3,1072.65C10153.8,1073.14 10155.3,1077.84 10155.8,1078.07C10157.2,1078.79 10156.7,1079.51 10157.7,1080.53C10158,1080.79 10157.4,1082.35 10157.7,1082.5C10160.6,1083.92 10159.7,1096.04 10157.7,1098.75C10157.3,1099.37 10157.5,1101.95 10157.2,1102.69C10155.3,1108.38 10159.5,1115.22 10155.3,1119.44C10154.9,1119.79 10154.2,1119.22 10153.8,1119.44C10152.5,1120.09 10151.6,1122.47 10150.8,1123.38C10150.1,1124.26 10148.2,1124.42 10147.4,1125.35C10145.7,1127.14 10143.5,1125.66 10142.5,1127.81C10142.2,1128.23 10136.3,1128.75 10135.6,1129.29C10132.6,1131.46 10125.6,1128.11 10123.2,1130.76C10120.7,1133.74 10115.8,1132.83 10112.4,1136.18C10112.1,1136.53 10112.6,1137.22 10112.4,1137.66C10112,1138.5 10109.2,1140.23 10108.5,1140.61C10108.3,1140.71 10106.4,1144.7 10106,1145.05C10104.5,1146.51 10105,1151.66 10105,1154.4C10105,1154.86 10104.7,1157.52 10105,1157.85C10105.7,1158.52 10108.4,1157.77 10109,1158.84C10110,1160.85 10111.6,1161.51 10112.9,1162.78C10113.6,1163.43 10117,1162.98 10117.8,1163.76C10119.7,1165.6 10123.3,1169.23 10124.7,1172.13C10125.8,1174.29 10125,1182.88 10124.2,1184.45C10123.5,1185.84 10122.7,1189.54 10121.3,1190.85C10120.4,1191.62 10119.2,1191.57 10118.3,1192.33C10117.9,1192.65 10118.6,1193.5 10118.3,1193.8C10117.1,1195.05 10115.6,1197.37 10113.9,1198.24C10113.6,1198.38 10114.2,1199.94 10113.9,1200.21C10112.6,1201.5 10113.6,1202.99 10112.4,1204.64C10110.1,1207.98 10106.3,1213.28 10099.6,1211.04C10090.5,1208.01 10085.9,1196.8 10081.4,1190.36C10080.7,1189.33 10077.9,1181.51 10079.9,1179.52C10081.1,1178.37 10082.7,1177.72 10083.8,1176.57C10085.4,1175.01 10085.9,1170.63 10087.8,1169.67C10088.4,1169.38 10090.8,1167.88 10090.8,1167.25C10090.8,1158.06 10088.3,1153.15 10088.3,1144.54C10088.3,1143.1 10084.9,1136.64 10086.8,1134.7C10087.4,1134.1 10088.7,1134.33 10089.3,1133.72C10090,1133.03 10089.6,1131.46 10090.2,1130.76C10091.7,1129.28 10093.2,1127.81 10094.7,1126.33C10095.3,1125.73 10098.3,1125.51 10098.6,1124.85C10099.2,1123.76 10102.7,1119.88 10103.5,1119.44C10106.1,1118.14 10106.2,1117.31 10108,1115.5C10109.3,1114.17 10111,1114.95 10111.9,1113.04C10112.3,1112.33 10117,1113.46 10117.8,1113.04C10122,1110.94 10129.8,1108.22 10133.1,1105.15C10133.5,1104.77 10133.8,1101.86 10134.1,1101.71C10137.4,1100.03 10135.9,1093.69 10134.1,1090.87C10133.2,1089.53 10134.3,1086.88 10133.6,1085.45C10133.2,1084.73 10130.2,1083.75 10129.2,1082.99C10128,1082.18 10123.2,1082.99 10121.8,1082.99C10113.6,1082.99 10108.8,1083.69 10102.1,1085.95C10101.6,1086.11 10098.3,1085.6 10098.1,1085.95C10096.8,1088.7 10090.1,1086.14 10088.8,1088.9C10088.7,1089.09 10086.7,1088.9 10086.3,1088.9C10084.9,1088.9 10081.1,1089.09 10079.9,1089.89C10075,1093.19 10069,1092.92 10065.1,1096.78C10064.8,1097.13 10062.9,1096.38 10062.7,1096.78C10061.9,1098.31 10059.7,1098.7 10058.7,1099.74C10057.9,1100.62 10055.1,1099.84 10054.3,1100.72C10051,1104.53 10046.7,1108.28 10043.5,1111.56C10041.3,1113.75 10041.5,1118.48 10041.5,1122.88C10041.5,1123.63 10041,1126.85 10041.5,1127.32C10043.4,1129.18 10046.4,1133.95 10047.9,1134.7C10050.8,1136.15 10054.3,1137.6 10055.8,1140.61C10056,1141.06 10058.2,1141.02 10058.7,1141.6C10060,1143.02 10062,1146.17 10063.7,1147.02C10064,1147.2 10063.9,1150 10064.1,1150.46C10064.8,1151.77 10066.3,1157.71 10067.6,1158.34C10068,1158.55 10067.6,1164.05 10067.6,1164.75C10067.6,1170.85 10066.5,1174.71 10063.7,1177.55C10062.9,1178.28 10063.4,1180.3 10062.7,1181C10060.2,1183.32 10058.2,1188.09 10055.8,1190.36C10055,1191.06 10055.6,1194.06 10054.8,1194.79C10052.4,1196.84 10051.6,1200.27 10049.4,1202.18C10048.7,1202.75 10049.2,1207.16 10048.4,1207.59C10045,1209.27 10042.9,1225.06 10048.4,1227.79C10049.4,1228.31 10048.4,1230.19 10048.9,1231.23C10049.4,1232.27 10051.8,1232.69 10052.8,1233.7C10054.8,1235.73 10056.1,1237.18 10057.7,1239.11C10058.4,1239.9 10060.9,1238.86 10061.7,1239.61C10062.7,1240.59 10064.1,1241.09 10065.1,1242.07C10066,1242.9 10069.3,1241.7 10070.1,1242.56C10071.8,1244.6 10075,1244.52 10077.9,1246.01C10078.7,1246.41 10077.9,1247.49 10079.4,1247.49"
                            style="fill:#808184;stroke:#000;stroke-width:19.62px;" />
                    </g>
                </g>
                <g transform="matrix(0.424697,0,0,0.424697,92.2732,82.1787)">
                    <g transform="matrix(0.0860598,-0.0728421,5.51633e-18,0.168222,-868.394,0)">
                        <path
                            d="M11470.5,6070.27C11451.2,6049.18 11439.7,6022.54 11439.7,5993.58C11439.7,5925.33 11503.7,5869.91 11582.5,5869.91C11614.1,5869.91 11643.3,5878.83 11667,5893.92C11677.2,5900.45 11686.4,5908.14 11694.4,5916.76L11727.2,5944.2C11728.5,5945.24 11729.8,5946.3 11731,5947.38C11756.9,5969.76 11772.9,6000.68 11772.9,6034.81C11772.9,6103.06 11708.9,6158.48 11630.1,6158.48C11597.2,6158.48 11566.9,6148.82 11542.7,6132.6C11533.3,6126.28 11524.8,6118.96 11517.5,6110.82L11494.3,6090.86C11485.5,6084.83 11477.5,6077.91 11470.5,6070.27Z"
                            style="fill:#a6a8ab;stroke:#000;stroke-width:25.56px;" />
                    </g>
                    <g transform="matrix(0.0860598,-0.0728421,5.51633e-18,0.168222,-864.298,3.46728)">
                        <ellipse cx="11582.5" cy="5993.58" rx="142.8" ry="123.668"
                            style="fill:#808184;stroke:#000;stroke-width:25.56px;" />
                    </g>
                    <g transform="matrix(0.0993734,0,0,0.145684,-870.019,1.14798)">
                        <path
                            d="M10075.5,1247.49C10072.4,1250.6 10068,1250.86 10062.6,1250.86C10061.6,1250.86 10062.6,1251.5 10062.2,1251.92C10061.8,1252.33 10058.4,1251.92 10057.7,1251.92L10044.4,1251.92C10041,1251.92 10040.8,1251.22 10035.1,1249.95C10034.6,1249.85 10033.4,1250.25 10033.1,1249.95C10031.8,1248.58 10029.9,1247.98 10027.7,1246.01C10026.1,1244.56 10025.9,1241.78 10024.7,1240.59C10023,1238.75 10022.1,1238.19 10020.8,1236.16C10016.8,1230 10015.4,1227.22 10015.4,1218.92C10015.4,1218.02 10014.8,1213.59 10015.4,1213.01C10017.6,1210.84 10018.3,1206.66 10020.3,1204.64C10021.1,1203.84 10020.5,1201.43 10021.3,1200.7C10024.5,1197.89 10027.8,1195.95 10031.1,1192.82C10031.9,1192.13 10031.4,1190.03 10032.1,1189.37C10035.3,1186.62 10035.2,1180.1 10038,1176.07C10039.3,1174.23 10041.1,1166.48 10039.5,1163.27C10038,1160.29 10033.1,1157.69 10030.7,1153.91C10028.1,1150.05 10025.5,1145.47 10022.8,1143.08C10021.4,1141.89 10022.6,1140.05 10020.8,1139.14C10020.4,1138.92 10021,1138.1 10020.8,1137.66C10020.2,1136.5 10019.6,1133.35 10018.3,1132.73C10018,1132.55 10018.3,1127.94 10018.3,1127.32C10018.3,1120.93 10018.9,1114.54 10022.3,1111.56C10022.7,1111.18 10021.9,1109.96 10022.3,1109.59C10023.4,1108.52 10024.5,1103.78 10025.7,1103.18C10028.9,1101.61 10030,1096.71 10033.1,1093.83C10037.6,1089.77 10039.1,1084.83 10043.5,1081.02C10044,1080.54 10043.6,1078.76 10044,1078.07C10044.7,1076.5 10045.8,1074.88 10046.9,1073.63C10047.4,1073.11 10050.2,1073.04 10050.4,1072.65C10051.5,1070.27 10054.3,1070.63 10056.3,1068.71C10056.7,1068.25 10059,1068.75 10059.2,1068.22C10060.3,1066.12 10067.7,1065.24 10070.5,1064.28C10071,1064.12 10074.3,1064.62 10074.5,1064.28C10075.8,1061.71 10080.7,1064.12 10083.4,1062.8C10086.6,1061.2 10091.4,1060.9 10095.2,1060.9C10096.3,1060.9 10095.3,1060.27 10095.7,1059.85C10096,1059.43 10099.4,1059.85 10100.1,1059.85C10104.3,1059.85 10108.1,1059.35 10112.4,1059.35L10137,1059.35C10138.5,1059.35 10145,1058.44 10145.9,1059.35C10149,1062.48 10150.2,1067.27 10152.8,1069.69C10153.2,1070.07 10152.9,1072.26 10153.3,1072.65C10153.8,1073.14 10155.3,1077.84 10155.8,1078.07C10157.2,1078.79 10156.7,1079.51 10157.7,1080.53C10158,1080.79 10157.4,1082.35 10157.7,1082.5C10160.6,1083.92 10159.7,1096.04 10157.7,1098.75C10157.3,1099.37 10157.5,1101.95 10157.2,1102.69C10155.3,1108.38 10159.5,1115.22 10155.3,1119.44C10154.9,1119.79 10154.2,1119.22 10153.8,1119.44C10152.5,1120.09 10151.6,1122.47 10150.8,1123.38C10150.1,1124.26 10148.2,1124.42 10147.4,1125.35C10145.7,1127.14 10143.5,1125.66 10142.5,1127.81C10142.2,1128.23 10136.3,1128.75 10135.6,1129.29C10132.6,1131.46 10125.6,1128.11 10123.2,1130.76C10120.7,1133.74 10115.8,1132.83 10112.4,1136.18C10112.1,1136.53 10112.6,1137.22 10112.4,1137.66C10112,1138.5 10109.2,1140.23 10108.5,1140.61C10108.3,1140.71 10106.4,1144.7 10106,1145.05C10104.5,1146.51 10105,1151.66 10105,1154.4C10105,1154.86 10104.7,1157.52 10105,1157.85C10105.7,1158.52 10108.4,1157.77 10109,1158.84C10110,1160.85 10111.6,1161.51 10112.9,1162.78C10113.6,1163.43 10117,1162.98 10117.8,1163.76C10119.7,1165.6 10123.3,1169.23 10124.7,1172.13C10125.8,1174.29 10125,1182.88 10124.2,1184.45C10123.5,1185.84 10122.7,1189.54 10121.3,1190.85C10120.4,1191.62 10119.2,1191.57 10118.3,1192.33C10117.9,1192.65 10118.6,1193.5 10118.3,1193.8C10117.1,1195.05 10115.6,1197.37 10113.9,1198.24C10113.6,1198.38 10114.2,1199.94 10113.9,1200.21C10112.6,1201.5 10113.6,1202.99 10112.4,1204.64C10110.1,1207.98 10106.3,1213.28 10099.6,1211.04C10090.5,1208.01 10085.9,1196.8 10081.4,1190.36C10080.7,1189.33 10077.9,1181.51 10079.9,1179.52C10081.1,1178.37 10082.7,1177.72 10083.8,1176.57C10085.4,1175.01 10085.9,1170.63 10087.8,1169.67C10088.4,1169.38 10090.8,1167.88 10090.8,1167.25C10090.8,1158.06 10088.3,1153.15 10088.3,1144.54C10088.3,1143.1 10084.9,1136.64 10086.8,1134.7C10087.4,1134.1 10088.7,1134.33 10089.3,1133.72C10090,1133.03 10089.6,1131.46 10090.2,1130.76C10091.7,1129.28 10093.2,1127.81 10094.7,1126.33C10095.3,1125.73 10098.3,1125.51 10098.6,1124.85C10099.2,1123.76 10102.7,1119.88 10103.5,1119.44C10106.1,1118.14 10106.2,1117.31 10108,1115.5C10109.3,1114.17 10111,1114.95 10111.9,1113.04C10112.3,1112.33 10117,1113.46 10117.8,1113.04C10122,1110.94 10129.8,1108.22 10133.1,1105.15C10133.5,1104.77 10133.8,1101.86 10134.1,1101.71C10137.4,1100.03 10135.9,1093.69 10134.1,1090.87C10133.2,1089.53 10134.3,1086.88 10133.6,1085.45C10133.2,1084.73 10130.2,1083.75 10129.2,1082.99C10128,1082.18 10123.2,1082.99 10121.8,1082.99C10113.6,1082.99 10108.8,1083.69 10102.1,1085.95C10101.6,1086.11 10098.3,1085.6 10098.1,1085.95C10096.8,1088.7 10090.1,1086.14 10088.8,1088.9C10088.7,1089.09 10086.7,1088.9 10086.3,1088.9C10084.9,1088.9 10081.1,1089.09 10079.9,1089.89C10075,1093.19 10069,1092.92 10065.1,1096.78C10064.8,1097.13 10062.9,1096.38 10062.7,1096.78C10061.9,1098.31 10059.7,1098.7 10058.7,1099.74C10057.9,1100.62 10055.1,1099.84 10054.3,1100.72C10051,1104.53 10046.7,1108.28 10043.5,1111.56C10041.3,1113.75 10041.5,1118.48 10041.5,1122.88C10041.5,1123.63 10041,1126.85 10041.5,1127.32C10043.4,1129.18 10046.4,1133.95 10047.9,1134.7C10050.8,1136.15 10054.3,1137.6 10055.8,1140.61C10056,1141.06 10058.2,1141.02 10058.7,1141.6C10060,1143.02 10062,1146.17 10063.7,1147.02C10064,1147.2 10063.9,1150 10064.1,1150.46C10064.8,1151.77 10066.3,1157.71 10067.6,1158.34C10068,1158.55 10067.6,1164.05 10067.6,1164.75C10067.6,1170.85 10066.5,1174.71 10063.7,1177.55C10062.9,1178.28 10063.4,1180.3 10062.7,1181C10060.2,1183.32 10058.2,1188.09 10055.8,1190.36C10055,1191.06 10055.6,1194.06 10054.8,1194.79C10052.4,1196.84 10051.6,1200.27 10049.4,1202.18C10048.7,1202.75 10049.2,1207.16 10048.4,1207.59C10045,1209.27 10042.9,1225.06 10048.4,1227.79C10049.4,1228.31 10048.4,1230.19 10048.9,1231.23C10049.4,1232.27 10051.8,1232.69 10052.8,1233.7C10054.8,1235.73 10056.1,1237.18 10057.7,1239.11C10058.4,1239.9 10060.9,1238.86 10061.7,1239.61C10062.7,1240.59 10064.1,1241.09 10065.1,1242.07C10066,1242.9 10069.3,1241.7 10070.1,1242.56C10071.8,1244.6 10075,1244.52 10077.9,1246.01C10078.7,1246.41 10077.9,1247.49 10079.4,1247.49"
                            style="fill:#a6a8ab;stroke:#000;stroke-width:19.62px;" />
                    </g>
                    <g transform="matrix(0.0993734,0,0,0.145684,-868.392,2.08359)">
                        <path
                            d="M10075.5,1247.49C10072.4,1250.6 10068,1250.86 10062.6,1250.86C10061.6,1250.86 10062.6,1251.5 10062.2,1251.92C10061.8,1252.33 10058.4,1251.92 10057.7,1251.92L10044.4,1251.92C10041,1251.92 10040.8,1251.22 10035.1,1249.95C10034.6,1249.85 10033.4,1250.25 10033.1,1249.95C10031.8,1248.58 10029.9,1247.98 10027.7,1246.01C10026.1,1244.56 10025.9,1241.78 10024.7,1240.59C10023,1238.75 10022.1,1238.19 10020.8,1236.16C10016.8,1230 10015.4,1227.22 10015.4,1218.92C10015.4,1218.02 10014.8,1213.59 10015.4,1213.01C10017.6,1210.84 10018.3,1206.66 10020.3,1204.64C10021.1,1203.84 10020.5,1201.43 10021.3,1200.7C10024.5,1197.89 10027.8,1195.95 10031.1,1192.82C10031.9,1192.13 10031.4,1190.03 10032.1,1189.37C10035.3,1186.62 10035.2,1180.1 10038,1176.07C10039.3,1174.23 10041.1,1166.48 10039.5,1163.27C10038,1160.29 10033.1,1157.69 10030.7,1153.91C10028.1,1150.05 10025.5,1145.47 10022.8,1143.08C10021.4,1141.89 10022.6,1140.05 10020.8,1139.14C10020.4,1138.92 10021,1138.1 10020.8,1137.66C10020.2,1136.5 10019.6,1133.35 10018.3,1132.73C10018,1132.55 10018.3,1127.94 10018.3,1127.32C10018.3,1120.93 10018.9,1114.54 10022.3,1111.56C10022.7,1111.18 10021.9,1109.96 10022.3,1109.59C10023.4,1108.52 10024.5,1103.78 10025.7,1103.18C10028.9,1101.61 10030,1096.71 10033.1,1093.83C10037.6,1089.77 10039.1,1084.83 10043.5,1081.02C10044,1080.54 10043.6,1078.76 10044,1078.07C10044.7,1076.5 10045.8,1074.88 10046.9,1073.63C10047.4,1073.11 10050.2,1073.04 10050.4,1072.65C10051.5,1070.27 10054.3,1070.63 10056.3,1068.71C10056.7,1068.25 10059,1068.75 10059.2,1068.22C10060.3,1066.12 10067.7,1065.24 10070.5,1064.28C10071,1064.12 10074.3,1064.62 10074.5,1064.28C10075.8,1061.71 10080.7,1064.12 10083.4,1062.8C10086.6,1061.2 10091.4,1060.9 10095.2,1060.9C10096.3,1060.9 10095.3,1060.27 10095.7,1059.85C10096,1059.43 10099.4,1059.85 10100.1,1059.85C10104.3,1059.85 10108.1,1059.35 10112.4,1059.35L10137,1059.35C10138.5,1059.35 10145,1058.44 10145.9,1059.35C10149,1062.48 10150.2,1067.27 10152.8,1069.69C10153.2,1070.07 10152.9,1072.26 10153.3,1072.65C10153.8,1073.14 10155.3,1077.84 10155.8,1078.07C10157.2,1078.79 10156.7,1079.51 10157.7,1080.53C10158,1080.79 10157.4,1082.35 10157.7,1082.5C10160.6,1083.92 10159.7,1096.04 10157.7,1098.75C10157.3,1099.37 10157.5,1101.95 10157.2,1102.69C10155.3,1108.38 10159.5,1115.22 10155.3,1119.44C10154.9,1119.79 10154.2,1119.22 10153.8,1119.44C10152.5,1120.09 10151.6,1122.47 10150.8,1123.38C10150.1,1124.26 10148.2,1124.42 10147.4,1125.35C10145.7,1127.14 10143.5,1125.66 10142.5,1127.81C10142.2,1128.23 10136.3,1128.75 10135.6,1129.29C10132.6,1131.46 10125.6,1128.11 10123.2,1130.76C10120.7,1133.74 10115.8,1132.83 10112.4,1136.18C10112.1,1136.53 10112.6,1137.22 10112.4,1137.66C10112,1138.5 10109.2,1140.23 10108.5,1140.61C10108.3,1140.71 10106.4,1144.7 10106,1145.05C10104.5,1146.51 10105,1151.66 10105,1154.4C10105,1154.86 10104.7,1157.52 10105,1157.85C10105.7,1158.52 10108.4,1157.77 10109,1158.84C10110,1160.85 10111.6,1161.51 10112.9,1162.78C10113.6,1163.43 10117,1162.98 10117.8,1163.76C10119.7,1165.6 10123.3,1169.23 10124.7,1172.13C10125.8,1174.29 10125,1182.88 10124.2,1184.45C10123.5,1185.84 10122.7,1189.54 10121.3,1190.85C10120.4,1191.62 10119.2,1191.57 10118.3,1192.33C10117.9,1192.65 10118.6,1193.5 10118.3,1193.8C10117.1,1195.05 10115.6,1197.37 10113.9,1198.24C10113.6,1198.38 10114.2,1199.94 10113.9,1200.21C10112.6,1201.5 10113.6,1202.99 10112.4,1204.64C10110.1,1207.98 10106.3,1213.28 10099.6,1211.04C10090.5,1208.01 10085.9,1196.8 10081.4,1190.36C10080.7,1189.33 10077.9,1181.51 10079.9,1179.52C10081.1,1178.37 10082.7,1177.72 10083.8,1176.57C10085.4,1175.01 10085.9,1170.63 10087.8,1169.67C10088.4,1169.38 10090.8,1167.88 10090.8,1167.25C10090.8,1158.06 10088.3,1153.15 10088.3,1144.54C10088.3,1143.1 10084.9,1136.64 10086.8,1134.7C10087.4,1134.1 10088.7,1134.33 10089.3,1133.72C10090,1133.03 10089.6,1131.46 10090.2,1130.76C10091.7,1129.28 10093.2,1127.81 10094.7,1126.33C10095.3,1125.73 10098.3,1125.51 10098.6,1124.85C10099.2,1123.76 10102.7,1119.88 10103.5,1119.44C10106.1,1118.14 10106.2,1117.31 10108,1115.5C10109.3,1114.17 10111,1114.95 10111.9,1113.04C10112.3,1112.33 10117,1113.46 10117.8,1113.04C10122,1110.94 10129.8,1108.22 10133.1,1105.15C10133.5,1104.77 10133.8,1101.86 10134.1,1101.71C10137.4,1100.03 10135.9,1093.69 10134.1,1090.87C10133.2,1089.53 10134.3,1086.88 10133.6,1085.45C10133.2,1084.73 10130.2,1083.75 10129.2,1082.99C10128,1082.18 10123.2,1082.99 10121.8,1082.99C10113.6,1082.99 10108.8,1083.69 10102.1,1085.95C10101.6,1086.11 10098.3,1085.6 10098.1,1085.95C10096.8,1088.7 10090.1,1086.14 10088.8,1088.9C10088.7,1089.09 10086.7,1088.9 10086.3,1088.9C10084.9,1088.9 10081.1,1089.09 10079.9,1089.89C10075,1093.19 10069,1092.92 10065.1,1096.78C10064.8,1097.13 10062.9,1096.38 10062.7,1096.78C10061.9,1098.31 10059.7,1098.7 10058.7,1099.74C10057.9,1100.62 10055.1,1099.84 10054.3,1100.72C10051,1104.53 10046.7,1108.28 10043.5,1111.56C10041.3,1113.75 10041.5,1118.48 10041.5,1122.88C10041.5,1123.63 10041,1126.85 10041.5,1127.32C10043.4,1129.18 10046.4,1133.95 10047.9,1134.7C10050.8,1136.15 10054.3,1137.6 10055.8,1140.61C10056,1141.06 10058.2,1141.02 10058.7,1141.6C10060,1143.02 10062,1146.17 10063.7,1147.02C10064,1147.2 10063.9,1150 10064.1,1150.46C10064.8,1151.77 10066.3,1157.71 10067.6,1158.34C10068,1158.55 10067.6,1164.05 10067.6,1164.75C10067.6,1170.85 10066.5,1174.71 10063.7,1177.55C10062.9,1178.28 10063.4,1180.3 10062.7,1181C10060.2,1183.32 10058.2,1188.09 10055.8,1190.36C10055,1191.06 10055.6,1194.06 10054.8,1194.79C10052.4,1196.84 10051.6,1200.27 10049.4,1202.18C10048.7,1202.75 10049.2,1207.16 10048.4,1207.59C10045,1209.27 10042.9,1225.06 10048.4,1227.79C10049.4,1228.31 10048.4,1230.19 10048.9,1231.23C10049.4,1232.27 10051.8,1232.69 10052.8,1233.7C10054.8,1235.73 10056.1,1237.18 10057.7,1239.11C10058.4,1239.9 10060.9,1238.86 10061.7,1239.61C10062.7,1240.59 10064.1,1241.09 10065.1,1242.07C10066,1242.9 10069.3,1241.7 10070.1,1242.56C10071.8,1244.6 10075,1244.52 10077.9,1246.01C10078.7,1246.41 10077.9,1247.49 10079.4,1247.49"
                            style="fill:#808184;stroke:#000;stroke-width:19.62px;" />
                    </g>
                </g>
                <g transform="matrix(1,0,0,1,-2.83059,2.50459)">
                    <g transform="matrix(0.0860598,-0.0728421,5.51633e-18,0.168222,-868.394,0)">
                        <path
                            d="M11470.5,6070.27C11451.2,6049.18 11439.7,6022.54 11439.7,5993.58C11439.7,5925.33 11503.7,5869.91 11582.5,5869.91C11614.1,5869.91 11643.3,5878.83 11667,5893.92C11677.2,5900.45 11686.4,5908.14 11694.4,5916.76L11727.2,5944.2C11728.5,5945.24 11729.8,5946.3 11731,5947.38C11756.9,5969.76 11772.9,6000.68 11772.9,6034.81C11772.9,6103.06 11708.9,6158.48 11630.1,6158.48C11597.2,6158.48 11566.9,6148.82 11542.7,6132.6C11533.3,6126.28 11524.8,6118.96 11517.5,6110.82L11494.3,6090.86C11485.5,6084.83 11477.5,6077.91 11470.5,6070.27Z"
                            style="fill:#a6a8ab;stroke:#000;stroke-width:10.86px;" />
                    </g>
                    <g transform="matrix(0.0860598,-0.0728421,5.51633e-18,0.168222,-864.298,3.46728)">
                        <ellipse cx="11582.5" cy="5993.58" rx="142.8" ry="123.668"
                            style="fill:#808184;stroke:#000;stroke-width:10.86px;" />
                    </g>
                    <g transform="matrix(0.0993734,0,0,0.145684,-870.019,1.14798)">
                        <path
                            d="M10075.5,1247.49C10072.4,1250.6 10068,1250.86 10062.6,1250.86C10061.6,1250.86 10062.6,1251.5 10062.2,1251.92C10061.8,1252.33 10058.4,1251.92 10057.7,1251.92L10044.4,1251.92C10041,1251.92 10040.8,1251.22 10035.1,1249.95C10034.6,1249.85 10033.4,1250.25 10033.1,1249.95C10031.8,1248.58 10029.9,1247.98 10027.7,1246.01C10026.1,1244.56 10025.9,1241.78 10024.7,1240.59C10023,1238.75 10022.1,1238.19 10020.8,1236.16C10016.8,1230 10015.4,1227.22 10015.4,1218.92C10015.4,1218.02 10014.8,1213.59 10015.4,1213.01C10017.6,1210.84 10018.3,1206.66 10020.3,1204.64C10021.1,1203.84 10020.5,1201.43 10021.3,1200.7C10024.5,1197.89 10027.8,1195.95 10031.1,1192.82C10031.9,1192.13 10031.4,1190.03 10032.1,1189.37C10035.3,1186.62 10035.2,1180.1 10038,1176.07C10039.3,1174.23 10041.1,1166.48 10039.5,1163.27C10038,1160.29 10033.1,1157.69 10030.7,1153.91C10028.1,1150.05 10025.5,1145.47 10022.8,1143.08C10021.4,1141.89 10022.6,1140.05 10020.8,1139.14C10020.4,1138.92 10021,1138.1 10020.8,1137.66C10020.2,1136.5 10019.6,1133.35 10018.3,1132.73C10018,1132.55 10018.3,1127.94 10018.3,1127.32C10018.3,1120.93 10018.9,1114.54 10022.3,1111.56C10022.7,1111.18 10021.9,1109.96 10022.3,1109.59C10023.4,1108.52 10024.5,1103.78 10025.7,1103.18C10028.9,1101.61 10030,1096.71 10033.1,1093.83C10037.6,1089.77 10039.1,1084.83 10043.5,1081.02C10044,1080.54 10043.6,1078.76 10044,1078.07C10044.7,1076.5 10045.8,1074.88 10046.9,1073.63C10047.4,1073.11 10050.2,1073.04 10050.4,1072.65C10051.5,1070.27 10054.3,1070.63 10056.3,1068.71C10056.7,1068.25 10059,1068.75 10059.2,1068.22C10060.3,1066.12 10067.7,1065.24 10070.5,1064.28C10071,1064.12 10074.3,1064.62 10074.5,1064.28C10075.8,1061.71 10080.7,1064.12 10083.4,1062.8C10086.6,1061.2 10091.4,1060.9 10095.2,1060.9C10096.3,1060.9 10095.3,1060.27 10095.7,1059.85C10096,1059.43 10099.4,1059.85 10100.1,1059.85C10104.3,1059.85 10108.1,1059.35 10112.4,1059.35L10137,1059.35C10138.5,1059.35 10145,1058.44 10145.9,1059.35C10149,1062.48 10150.2,1067.27 10152.8,1069.69C10153.2,1070.07 10152.9,1072.26 10153.3,1072.65C10153.8,1073.14 10155.3,1077.84 10155.8,1078.07C10157.2,1078.79 10156.7,1079.51 10157.7,1080.53C10158,1080.79 10157.4,1082.35 10157.7,1082.5C10160.6,1083.92 10159.7,1096.04 10157.7,1098.75C10157.3,1099.37 10157.5,1101.95 10157.2,1102.69C10155.3,1108.38 10159.5,1115.22 10155.3,1119.44C10154.9,1119.79 10154.2,1119.22 10153.8,1119.44C10152.5,1120.09 10151.6,1122.47 10150.8,1123.38C10150.1,1124.26 10148.2,1124.42 10147.4,1125.35C10145.7,1127.14 10143.5,1125.66 10142.5,1127.81C10142.2,1128.23 10136.3,1128.75 10135.6,1129.29C10132.6,1131.46 10125.6,1128.11 10123.2,1130.76C10120.7,1133.74 10115.8,1132.83 10112.4,1136.18C10112.1,1136.53 10112.6,1137.22 10112.4,1137.66C10112,1138.5 10109.2,1140.23 10108.5,1140.61C10108.3,1140.71 10106.4,1144.7 10106,1145.05C10104.5,1146.51 10105,1151.66 10105,1154.4C10105,1154.86 10104.7,1157.52 10105,1157.85C10105.7,1158.52 10108.4,1157.77 10109,1158.84C10110,1160.85 10111.6,1161.51 10112.9,1162.78C10113.6,1163.43 10117,1162.98 10117.8,1163.76C10119.7,1165.6 10123.3,1169.23 10124.7,1172.13C10125.8,1174.29 10125,1182.88 10124.2,1184.45C10123.5,1185.84 10122.7,1189.54 10121.3,1190.85C10120.4,1191.62 10119.2,1191.57 10118.3,1192.33C10117.9,1192.65 10118.6,1193.5 10118.3,1193.8C10117.1,1195.05 10115.6,1197.37 10113.9,1198.24C10113.6,1198.38 10114.2,1199.94 10113.9,1200.21C10112.6,1201.5 10113.6,1202.99 10112.4,1204.64C10110.1,1207.98 10106.3,1213.28 10099.6,1211.04C10090.5,1208.01 10085.9,1196.8 10081.4,1190.36C10080.7,1189.33 10077.9,1181.51 10079.9,1179.52C10081.1,1178.37 10082.7,1177.72 10083.8,1176.57C10085.4,1175.01 10085.9,1170.63 10087.8,1169.67C10088.4,1169.38 10090.8,1167.88 10090.8,1167.25C10090.8,1158.06 10088.3,1153.15 10088.3,1144.54C10088.3,1143.1 10084.9,1136.64 10086.8,1134.7C10087.4,1134.1 10088.7,1134.33 10089.3,1133.72C10090,1133.03 10089.6,1131.46 10090.2,1130.76C10091.7,1129.28 10093.2,1127.81 10094.7,1126.33C10095.3,1125.73 10098.3,1125.51 10098.6,1124.85C10099.2,1123.76 10102.7,1119.88 10103.5,1119.44C10106.1,1118.14 10106.2,1117.31 10108,1115.5C10109.3,1114.17 10111,1114.95 10111.9,1113.04C10112.3,1112.33 10117,1113.46 10117.8,1113.04C10122,1110.94 10129.8,1108.22 10133.1,1105.15C10133.5,1104.77 10133.8,1101.86 10134.1,1101.71C10137.4,1100.03 10135.9,1093.69 10134.1,1090.87C10133.2,1089.53 10134.3,1086.88 10133.6,1085.45C10133.2,1084.73 10130.2,1083.75 10129.2,1082.99C10128,1082.18 10123.2,1082.99 10121.8,1082.99C10113.6,1082.99 10108.8,1083.69 10102.1,1085.95C10101.6,1086.11 10098.3,1085.6 10098.1,1085.95C10096.8,1088.7 10090.1,1086.14 10088.8,1088.9C10088.7,1089.09 10086.7,1088.9 10086.3,1088.9C10084.9,1088.9 10081.1,1089.09 10079.9,1089.89C10075,1093.19 10069,1092.92 10065.1,1096.78C10064.8,1097.13 10062.9,1096.38 10062.7,1096.78C10061.9,1098.31 10059.7,1098.7 10058.7,1099.74C10057.9,1100.62 10055.1,1099.84 10054.3,1100.72C10051,1104.53 10046.7,1108.28 10043.5,1111.56C10041.3,1113.75 10041.5,1118.48 10041.5,1122.88C10041.5,1123.63 10041,1126.85 10041.5,1127.32C10043.4,1129.18 10046.4,1133.95 10047.9,1134.7C10050.8,1136.15 10054.3,1137.6 10055.8,1140.61C10056,1141.06 10058.2,1141.02 10058.7,1141.6C10060,1143.02 10062,1146.17 10063.7,1147.02C10064,1147.2 10063.9,1150 10064.1,1150.46C10064.8,1151.77 10066.3,1157.71 10067.6,1158.34C10068,1158.55 10067.6,1164.05 10067.6,1164.75C10067.6,1170.85 10066.5,1174.71 10063.7,1177.55C10062.9,1178.28 10063.4,1180.3 10062.7,1181C10060.2,1183.32 10058.2,1188.09 10055.8,1190.36C10055,1191.06 10055.6,1194.06 10054.8,1194.79C10052.4,1196.84 10051.6,1200.27 10049.4,1202.18C10048.7,1202.75 10049.2,1207.16 10048.4,1207.59C10045,1209.27 10042.9,1225.06 10048.4,1227.79C10049.4,1228.31 10048.4,1230.19 10048.9,1231.23C10049.4,1232.27 10051.8,1232.69 10052.8,1233.7C10054.8,1235.73 10056.1,1237.18 10057.7,1239.11C10058.4,1239.9 10060.9,1238.86 10061.7,1239.61C10062.7,1240.59 10064.1,1241.09 10065.1,1242.07C10066,1242.9 10069.3,1241.7 10070.1,1242.56C10071.8,1244.6 10075,1244.52 10077.9,1246.01C10078.7,1246.41 10077.9,1247.49 10079.4,1247.49"
                            style="fill:#a6a8ab;stroke:#000;stroke-width:8.33px;" />
                    </g>
                    <g transform="matrix(0.0993734,0,0,0.145684,-868.392,2.08359)">
                        <path
                            d="M10075.5,1247.49C10072.4,1250.6 10068,1250.86 10062.6,1250.86C10061.6,1250.86 10062.6,1251.5 10062.2,1251.92C10061.8,1252.33 10058.4,1251.92 10057.7,1251.92L10044.4,1251.92C10041,1251.92 10040.8,1251.22 10035.1,1249.95C10034.6,1249.85 10033.4,1250.25 10033.1,1249.95C10031.8,1248.58 10029.9,1247.98 10027.7,1246.01C10026.1,1244.56 10025.9,1241.78 10024.7,1240.59C10023,1238.75 10022.1,1238.19 10020.8,1236.16C10016.8,1230 10015.4,1227.22 10015.4,1218.92C10015.4,1218.02 10014.8,1213.59 10015.4,1213.01C10017.6,1210.84 10018.3,1206.66 10020.3,1204.64C10021.1,1203.84 10020.5,1201.43 10021.3,1200.7C10024.5,1197.89 10027.8,1195.95 10031.1,1192.82C10031.9,1192.13 10031.4,1190.03 10032.1,1189.37C10035.3,1186.62 10035.2,1180.1 10038,1176.07C10039.3,1174.23 10041.1,1166.48 10039.5,1163.27C10038,1160.29 10033.1,1157.69 10030.7,1153.91C10028.1,1150.05 10025.5,1145.47 10022.8,1143.08C10021.4,1141.89 10022.6,1140.05 10020.8,1139.14C10020.4,1138.92 10021,1138.1 10020.8,1137.66C10020.2,1136.5 10019.6,1133.35 10018.3,1132.73C10018,1132.55 10018.3,1127.94 10018.3,1127.32C10018.3,1120.93 10018.9,1114.54 10022.3,1111.56C10022.7,1111.18 10021.9,1109.96 10022.3,1109.59C10023.4,1108.52 10024.5,1103.78 10025.7,1103.18C10028.9,1101.61 10030,1096.71 10033.1,1093.83C10037.6,1089.77 10039.1,1084.83 10043.5,1081.02C10044,1080.54 10043.6,1078.76 10044,1078.07C10044.7,1076.5 10045.8,1074.88 10046.9,1073.63C10047.4,1073.11 10050.2,1073.04 10050.4,1072.65C10051.5,1070.27 10054.3,1070.63 10056.3,1068.71C10056.7,1068.25 10059,1068.75 10059.2,1068.22C10060.3,1066.12 10067.7,1065.24 10070.5,1064.28C10071,1064.12 10074.3,1064.62 10074.5,1064.28C10075.8,1061.71 10080.7,1064.12 10083.4,1062.8C10086.6,1061.2 10091.4,1060.9 10095.2,1060.9C10096.3,1060.9 10095.3,1060.27 10095.7,1059.85C10096,1059.43 10099.4,1059.85 10100.1,1059.85C10104.3,1059.85 10108.1,1059.35 10112.4,1059.35L10137,1059.35C10138.5,1059.35 10145,1058.44 10145.9,1059.35C10149,1062.48 10150.2,1067.27 10152.8,1069.69C10153.2,1070.07 10152.9,1072.26 10153.3,1072.65C10153.8,1073.14 10155.3,1077.84 10155.8,1078.07C10157.2,1078.79 10156.7,1079.51 10157.7,1080.53C10158,1080.79 10157.4,1082.35 10157.7,1082.5C10160.6,1083.92 10159.7,1096.04 10157.7,1098.75C10157.3,1099.37 10157.5,1101.95 10157.2,1102.69C10155.3,1108.38 10159.5,1115.22 10155.3,1119.44C10154.9,1119.79 10154.2,1119.22 10153.8,1119.44C10152.5,1120.09 10151.6,1122.47 10150.8,1123.38C10150.1,1124.26 10148.2,1124.42 10147.4,1125.35C10145.7,1127.14 10143.5,1125.66 10142.5,1127.81C10142.2,1128.23 10136.3,1128.75 10135.6,1129.29C10132.6,1131.46 10125.6,1128.11 10123.2,1130.76C10120.7,1133.74 10115.8,1132.83 10112.4,1136.18C10112.1,1136.53 10112.6,1137.22 10112.4,1137.66C10112,1138.5 10109.2,1140.23 10108.5,1140.61C10108.3,1140.71 10106.4,1144.7 10106,1145.05C10104.5,1146.51 10105,1151.66 10105,1154.4C10105,1154.86 10104.7,1157.52 10105,1157.85C10105.7,1158.52 10108.4,1157.77 10109,1158.84C10110,1160.85 10111.6,1161.51 10112.9,1162.78C10113.6,1163.43 10117,1162.98 10117.8,1163.76C10119.7,1165.6 10123.3,1169.23 10124.7,1172.13C10125.8,1174.29 10125,1182.88 10124.2,1184.45C10123.5,1185.84 10122.7,1189.54 10121.3,1190.85C10120.4,1191.62 10119.2,1191.57 10118.3,1192.33C10117.9,1192.65 10118.6,1193.5 10118.3,1193.8C10117.1,1195.05 10115.6,1197.37 10113.9,1198.24C10113.6,1198.38 10114.2,1199.94 10113.9,1200.21C10112.6,1201.5 10113.6,1202.99 10112.4,1204.64C10110.1,1207.98 10106.3,1213.28 10099.6,1211.04C10090.5,1208.01 10085.9,1196.8 10081.4,1190.36C10080.7,1189.33 10077.9,1181.51 10079.9,1179.52C10081.1,1178.37 10082.7,1177.72 10083.8,1176.57C10085.4,1175.01 10085.9,1170.63 10087.8,1169.67C10088.4,1169.38 10090.8,1167.88 10090.8,1167.25C10090.8,1158.06 10088.3,1153.15 10088.3,1144.54C10088.3,1143.1 10084.9,1136.64 10086.8,1134.7C10087.4,1134.1 10088.7,1134.33 10089.3,1133.72C10090,1133.03 10089.6,1131.46 10090.2,1130.76C10091.7,1129.28 10093.2,1127.81 10094.7,1126.33C10095.3,1125.73 10098.3,1125.51 10098.6,1124.85C10099.2,1123.76 10102.7,1119.88 10103.5,1119.44C10106.1,1118.14 10106.2,1117.31 10108,1115.5C10109.3,1114.17 10111,1114.95 10111.9,1113.04C10112.3,1112.33 10117,1113.46 10117.8,1113.04C10122,1110.94 10129.8,1108.22 10133.1,1105.15C10133.5,1104.77 10133.8,1101.86 10134.1,1101.71C10137.4,1100.03 10135.9,1093.69 10134.1,1090.87C10133.2,1089.53 10134.3,1086.88 10133.6,1085.45C10133.2,1084.73 10130.2,1083.75 10129.2,1082.99C10128,1082.18 10123.2,1082.99 10121.8,1082.99C10113.6,1082.99 10108.8,1083.69 10102.1,1085.95C10101.6,1086.11 10098.3,1085.6 10098.1,1085.95C10096.8,1088.7 10090.1,1086.14 10088.8,1088.9C10088.7,1089.09 10086.7,1088.9 10086.3,1088.9C10084.9,1088.9 10081.1,1089.09 10079.9,1089.89C10075,1093.19 10069,1092.92 10065.1,1096.78C10064.8,1097.13 10062.9,1096.38 10062.7,1096.78C10061.9,1098.31 10059.7,1098.7 10058.7,1099.74C10057.9,1100.62 10055.1,1099.84 10054.3,1100.72C10051,1104.53 10046.7,1108.28 10043.5,1111.56C10041.3,1113.75 10041.5,1118.48 10041.5,1122.88C10041.5,1123.63 10041,1126.85 10041.5,1127.32C10043.4,1129.18 10046.4,1133.95 10047.9,1134.7C10050.8,1136.15 10054.3,1137.6 10055.8,1140.61C10056,1141.06 10058.2,1141.02 10058.7,1141.6C10060,1143.02 10062,1146.17 10063.7,1147.02C10064,1147.2 10063.9,1150 10064.1,1150.46C10064.8,1151.77 10066.3,1157.71 10067.6,1158.34C10068,1158.55 10067.6,1164.05 10067.6,1164.75C10067.6,1170.85 10066.5,1174.71 10063.7,1177.55C10062.9,1178.28 10063.4,1180.3 10062.7,1181C10060.2,1183.32 10058.2,1188.09 10055.8,1190.36C10055,1191.06 10055.6,1194.06 10054.8,1194.79C10052.4,1196.84 10051.6,1200.27 10049.4,1202.18C10048.7,1202.75 10049.2,1207.16 10048.4,1207.59C10045,1209.27 10042.9,1225.06 10048.4,1227.79C10049.4,1228.31 10048.4,1230.19 10048.9,1231.23C10049.4,1232.27 10051.8,1232.69 10052.8,1233.7C10054.8,1235.73 10056.1,1237.18 10057.7,1239.11C10058.4,1239.9 10060.9,1238.86 10061.7,1239.61C10062.7,1240.59 10064.1,1241.09 10065.1,1242.07C10066,1242.9 10069.3,1241.7 10070.1,1242.56C10071.8,1244.6 10075,1244.52 10077.9,1246.01C10078.7,1246.41 10077.9,1247.49 10079.4,1247.49"
                            style="fill:#808184;stroke:#000;stroke-width:8.33px;" />
                    </g>
                </g>
                <g transform="matrix(0.0353746,0,0,0.0518602,-224.364,26.3761)">
                    <path d="M9700.94,1080.46L9618.49,796.356L10236.8,439.356L10319.3,724.956L9700.94,1080.46Z"
                        style="fill:#3b6d2c;stroke:#000;stroke-width:23.41px;" />
                </g>
                <g transform="matrix(0.0353746,0,0,0.0518602,-224.364,26.3761)">
                    <path d="M9618.49,796.356L9412.38,677.356L9329.93,868.502L9700.94,1082.7L9618.49,796.356Z"
                        style="fill:#4e913b;stroke:#000;stroke-width:23.41px;" />
                </g>
                <g transform="matrix(0.0306353,-0.0259301,0.0252676,0.0213868,-169.828,72.5361)">
                    <rect x="4756.88" y="5251.57" width="714" height="288.56"
                        style="fill:#62b54a;stroke:#000;stroke-width:20.92px;" />
                </g>
                <g transform="matrix(1.21368,1.02727,-7.77954e-17,0.168222,-12422.5,-9786.43)">
                    <rect x="10250.1" y="-3336.35" width="47.227" height="41.223"
                        style="fill:#a6a8ab;stroke:#000;stroke-width:0.8px;" />
                </g>
                <g transform="matrix(0.0860598,-0.0728421,5.51633e-18,0.168222,-864.298,-3.46728)">
                    <rect x="10916.1" y="6117.25" width="47.6" height="41.223"
                        style="fill:#808184;stroke:#000;stroke-width:10.86px;" />
                </g>
                <g transform="matrix(0.0860598,0.0728421,-5.51633e-18,0.168222,-868.394,2.74133e-10)">
                    <rect x="11058.9" y="-3377.57" width="190.4" height="41.223"
                        style="fill:#a6a8ab;stroke:#000;stroke-width:6.31px;" />
                </g>
                <g transform="matrix(0.0860598,-0.0728421,5.51633e-18,0.168222,-868.394,1.71796e-09)">
                    <rect x="11249.3" y="6364.59" width="952" height="41.223"
                        style="fill:#808184;stroke:#000;stroke-width:10.86px;" />
                </g>
                <g transform="matrix(0.0993734,0,0,0.145684,-868.394,0)">
                    <path
                        d="M9859.77,806.847L9812.49,779.55C9812.49,779.55 9785.36,776.822 9783.38,820.255L9824.69,843.904L9851.3,820.001L9859.77,806.847Z"
                        style="fill:#62b54a;stroke:#000;stroke-width:8.33px;" />
                </g>
                <g transform="matrix(0.0993734,0,0,0.145684,-852.023,-13.8568)">
                    <path
                        d="M9859.77,806.847L9812.49,779.55C9812.49,779.55 9785.36,776.822 9783.38,820.255L9824.69,843.904L9851.3,820.001L9859.77,806.847Z"
                        style="fill:#62b54a;stroke:#000;stroke-width:8.33px;" />
                </g>
                <g transform="matrix(0.0993734,0,0,0.145684,-835.522,-27.8233)">
                    <path
                        d="M9859.77,806.847L9812.49,779.55C9812.49,779.55 9785.36,776.822 9783.38,820.255L9824.69,843.904L9851.3,820.001L9859.77,806.847Z"
                        style="fill:#62b54a;stroke:#000;stroke-width:8.33px;" />
                </g>
                <g transform="matrix(0.0860598,-0.0728421,5.51633e-18,0.168222,-868.394,0)">
                    <path
                        d="M11371.1,5622.58C11375.4,5622.58 11380.8,5624.89 11385.1,5628.64C11389.4,5632.38 11392.1,5637 11392.1,5640.75C11392.1,5675.12 11392.1,5746.25 11392.1,5746.25L11344.5,5746.25C11344.5,5746.25 11344.5,5681.41 11344.5,5645.63C11344.5,5631.36 11354.6,5622.58 11371.1,5622.58L11371.1,5622.58Z"
                        style="fill:#a6a8ab;stroke:#000;stroke-width:10.86px;" />
                </g>
                <g transform="matrix(0.0860598,-0.0728421,5.51633e-18,0.168222,-852.009,-13.8691)">
                    <path
                        d="M11371.1,5622.58C11375.4,5622.58 11380.8,5624.89 11385.1,5628.64C11389.4,5632.38 11392.1,5637 11392.1,5640.75C11392.1,5675.12 11392.1,5746.25 11392.1,5746.25L11344.5,5746.25C11344.5,5746.25 11344.5,5681.41 11344.5,5645.63C11344.5,5631.36 11354.6,5622.58 11371.1,5622.58L11371.1,5622.58Z"
                        style="fill:#a6a8ab;stroke:#000;stroke-width:10.86px;" />
                </g>
                <g transform="matrix(0.0860598,-0.0728421,5.51633e-18,0.168222,-835.623,-27.7383)">
                    <path
                        d="M11371.1,5622.58C11375.4,5622.58 11380.8,5624.89 11385.1,5628.64C11389.4,5632.38 11392.1,5637 11392.1,5640.75C11392.1,5675.12 11392.1,5746.25 11392.1,5746.25L11344.5,5746.25C11344.5,5746.25 11344.5,5681.41 11344.5,5645.63C11344.5,5631.36 11354.6,5622.58 11371.1,5622.58C11371.1,5622.58 11371.1,5622.58 11371.1,5622.58Z"
                        style="fill:#a6a8ab;stroke:#000;stroke-width:10.86px;" />
                </g>
                <g transform="matrix(0.0860598,0.0728421,-5.51633e-18,0.226761,-868.394,238.745)">
                    <path d="M11344.5,-4154.75L11344.5,-4078.36L11296.9,-4120.15L11296.9,-4154.75L11344.5,-4154.75Z"
                        style="fill:#808184;stroke:#000;stroke-width:5.28px;" />
                </g>
                <g transform="matrix(0.0860598,0.0728421,-5.51633e-18,0.226761,-852.009,224.876)">
                    <path d="M11344.5,-4154.75L11344.5,-4078.36L11296.9,-4120.15L11296.9,-4154.75L11344.5,-4154.75Z"
                        style="fill:#808184;stroke:#000;stroke-width:5.28px;" />
                </g>
                <g transform="matrix(0.0860598,0.0728421,-5.51633e-18,0.226761,-835.623,211.007)">
                    <path d="M11344.5,-4154.75L11344.5,-4078.36L11296.9,-4120.15L11296.9,-4154.75L11344.5,-4154.75Z"
                        style="fill:#808184;stroke:#000;stroke-width:5.28px;" />
                </g>
                <g transform="matrix(-0.0307272,0.0260079,1.96958e-18,0.0781146,446.201,121.569)">
                    <path
                        d="M10936,-3624.91C10953.1,-3624.91 10963.7,-3617.89 10963.7,-3606.49C10963.7,-3563.48 10963.7,-3460.02 10963.7,-3460.02L10916.1,-3460.02L10916.1,-3612.33C10916.1,-3614.93 10918.5,-3618.12 10922.4,-3620.72C10926.3,-3623.31 10931.1,-3624.91 10935,-3624.91C10935.3,-3624.91 10935.7,-3624.91 10936,-3624.91Z" />
                </g>
                <g transform="matrix(-0.0307272,0.0260079,1.96958e-18,0.0781146,462.54,107.301)">
                    <path
                        d="M10936,-3624.91C10953.1,-3624.91 10963.7,-3617.89 10963.7,-3606.49C10963.7,-3563.48 10963.7,-3460.02 10963.7,-3460.02L10916.1,-3460.02C10916.1,-3460.02 10916.1,-3573.81 10916.1,-3612.33C10916.1,-3614.93 10918.5,-3618.12 10922.4,-3620.72C10926.3,-3623.31 10931.1,-3624.91 10935,-3624.91C10935.3,-3624.91 10935.7,-3624.91 10936,-3624.91Z" />
                </g>
                <g transform="matrix(-0.0307272,0.0260079,1.96958e-18,0.0781146,479.056,93.4652)">
                    <path
                        d="M10936,-3624.91C10953.1,-3624.91 10963.7,-3617.89 10963.7,-3606.49C10963.7,-3563.48 10963.7,-3460.02 10963.7,-3460.02L10916.1,-3460.02C10916.1,-3460.02 10916.1,-3573.81 10916.1,-3612.33C10916.1,-3614.93 10918.5,-3618.12 10922.4,-3620.72C10926.3,-3623.31 10931.1,-3624.91 10935,-3624.91C10935.3,-3624.91 10935.7,-3624.91 10936,-3624.91Z" />
                </g>
                <g transform="matrix(0.267272,0.226222,-1.48366e-17,0.452445,-2041.96,-574.09)">
                    <g transform="matrix(50,0,0,50,7973.02,-2093.85)">
                    </g>
                    <text x="7684.05px" y="-2093.85px"
                        style="font-family:'Arial-BoldMT', 'Arial', sans-serif;font-weight:700;font-size:50px;">gitterra.com</text>
                </g>
            </g>
        </g>
    </g>
</svg>