<?xml version="1.0" encoding="UTF-8" standalone="no"?>
<!DOCTYPE svg PUBLIC "-//W3C//DTD SVG 1.1//EN" "http://www.w3.org/Graphics/SVG/1.1/DTD/svg11.dtd">
<svg width="100%" height="100%" viewBox="0 0 2014 2711" version="1.1" xmlns="http://www.w3.org/2000/svg" xmlns:xlink="http://www.w3.org/1999/xlink" xml:space="preserve" xmlns:serif="http://www.serif.com/" style="fill-rule:evenodd;clip-rule:evenodd;stroke-linecap:round;stroke-linejoin:round;stroke-miterlimit:1.5;">
    <rect id="novaterraprime_tile_16" x="0.916" y="0.774" width="2012.61" height="2709.69" style="fill:none;"/>
    <clipPath id="_clip1">
        <rect x="0.916" y="0.774" width="2012.61" height="2709.69"/>
    </clipPath>
    <g clip-path="url(#_clip1)">
        <g id="tile16">
            <g id="tilebase">
                <path d="M2006.97,1943.62l-0,189.322l-1000.29,577.517l-0,-189.322l1000.29,-577.517Z" style="fill:#808184;stroke:#000;stroke-width:12.5px;"/>
                <path d="M1006.69,2520.18l-0,189.799l-999.463,-577.04l0,-189.799l999.463,577.04Z" style="fill:#a6a8ab;stroke:#000;stroke-width:12.5px;"/>
                <path d="M1007.51,1366.3l999.711,577.184l-999.711,577.183l-999.711,-577.183l999.711,-577.184Z" style="fill:#d0d2d3;stroke:#000;stroke-width:12.5px;"/>
            </g>
            <g transform="matrix(0.866025,0.5,-4.80741e-17,1,-2753.72,10277)">
                <g transform="matrix(155.283,0,0,155.283,4207.41,-9793.76)">
                </g>
                <text x="3309.99px" y="-9793.76px" style="font-family:'Arial-BoldMT', 'Arial', sans-serif;font-weight:700;font-size:155.283px;">gitterra.com</text>
            </g>
            <path d="M1375.38,1653.93l0,47.6l-453.451,261.8l-40.649,-23.469l494.1,-285.931Z" style="fill:#808184;stroke:#000;stroke-width:12.5px;"/>
            <path d="M1375.38,1653.93l0,47.6l453.451,261.8l41.223,-23.8l-494.674,-285.6Z" style="fill:#a6a8ab;stroke:#000;stroke-width:12.5px;"/>
            <path d="M1375.38,1701.53l453.451,261.8l-453.451,261.8l-453.451,-261.8l453.451,-261.8Z" style="fill:#d0d2d3;stroke:#000;stroke-width:12.5px;"/>
            <path d="M1334.74,1782.83l40.433,-23.398l0,34.001l-323.905,187.007l-29.037,-16.764l215.063,-124.455l0,-0.16l39.266,-64.251l58.18,-34.908l-0,42.928Z" style="fill:#808184;stroke:#000;stroke-width:12.5px;"/>
            <path d="M1375.17,1759.43l0,34.001l323.906,187.007l29.446,-17l-353.352,-204.008Z" style="fill:#a6a8ab;stroke:#000;stroke-width:12.5px;"/>
            <path d="M1375.17,1793.43l323.906,187.007l-323.906,187.007l-323.905,-187.007l323.905,-187.007Z" style="fill:#d0d2d3;stroke:#000;stroke-width:12.5px;"/>
            <path d="M1378.22,1848.04l0,33.396l-197.655,114.116l-27.837,-17.818l225.492,-129.694Z" style="fill:#808184;stroke:#000;stroke-width:12.5px;"/>
            <path d="M1460.03,1894.89l0,-45.029l54.396,30.651l23.536,59.26l63.465,36.551l-25.557,19.227l-197.656,-114.116l-0.079,-33.71l81.895,47.166Z" style="fill:#a6a8ab;stroke:#000;stroke-width:12.5px;"/>
            <path d="M1378.22,1881.43l197.656,114.116l-197.656,114.117l-197.655,-114.117l197.655,-114.116Z" style="fill:#d0d2d3;stroke:#000;stroke-width:12.5px;"/>
            <path d="M1281.15,1709.75l52.8,30.484l-59.228,34.196l-52.8,-30.484l59.228,-34.196Z" style="fill:#d0d2d3;stroke:#000;stroke-width:12.5px;"/>
            <path d="M1222.13,1744.48l-35.076,63.137l52.345,30.22l34.537,-63.138l-51.806,-30.219Z" style="fill:#d0d2d3;stroke:#000;stroke-width:12.5px;"/>
            <path d="M1499.84,1828.33l54.034,31.196l-40.186,23.202l-54.034,-31.196l40.186,-23.202Z" style="fill:#d0d2d3;stroke:#000;stroke-width:12.5px;"/>
            <path d="M1540.5,1940.95l-25.42,-59.404l41.168,-23.209l29.011,56.917l-44.759,25.696Z" style="fill:#d0d2d3;stroke:#000;stroke-width:12.5px;"/>
            <path d="M1319.86,2020.34l39.8,22.978l-48.434,27.964l-39.8,-22.979l48.434,-27.963Z" style="fill:#d0d2d3;stroke:#000;stroke-width:12.5px;"/>
            <path d="M1361.74,2043.22l0,58.281l-49.647,-31.083l49.647,-27.198Z" style="fill:#808184;stroke:#000;stroke-width:12.5px;"/>
            <path d="M1010.12,2273.87l2.013,-178.412l-101.95,118.047l99.937,60.365Z" style="fill:#a6a8ab;stroke:#000;stroke-width:12.5px;"/>
            <path d="M1015.3,2275.71l-2.012,-178.412l101.949,118.047l-99.937,60.365Z" style="fill:#808184;stroke:#000;stroke-width:12.5px;"/>
            <path d="M1047.5,2326.93l1.619,-143.545l-82.025,94.977l80.406,48.568Z" style="fill:#a6a8ab;stroke:#000;stroke-width:12.5px;"/>
            <path d="M1051.67,2328.41l-1.619,-143.545l82.025,94.977l-80.406,48.568Z" style="fill:#808184;stroke:#000;stroke-width:12.5px;"/>
            <g>
                <path d="M1089.06,1713.73c7.004,-4.044 12.691,-0.761 12.691,7.327c-0,8.087 -5.687,17.936 -12.691,21.98c-7.004,4.044 -12.69,0.761 -12.69,-7.327c-0,-8.087 5.686,-17.936 12.69,-21.98Z" style="fill:#858585;stroke:#000;stroke-width:12.5px;"/>
                <g>
                    <path d="M1126.76,1754.11l0,-34.313l44.871,-25.607l-12.073,40.54l-32.798,19.38Z" style="fill:#ca5f00;stroke:#000;stroke-width:12.5px;"/>
                    <path d="M1125.56,1754.43l-0,-34.313l-44.871,-25.607l12.073,40.54l32.798,19.38Z" style="fill:#cd8443;stroke:#000;stroke-width:12.5px;"/>
                    <path d="M1127.14,1719.67l0,-52.359l-47.496,27.422l47.496,24.937Z" style="fill:#ca5f00;stroke:#000;stroke-width:12.5px;"/>
                    <path d="M1127.17,1719.67l-0,-52.359l47.496,27.422l-47.496,24.937Z" style="fill:#cd8443;stroke:#000;stroke-width:12.5px;"/>
                </g>
                <path d="M1128.46,1743.59c7.004,-4.044 12.691,-0.761 12.691,7.326c-0,8.088 -5.687,17.937 -12.691,21.981c-7.004,4.044 -12.69,0.761 -12.69,-7.327c-0,-8.087 5.686,-17.937 12.69,-21.98Z" style="fill:#858585;stroke:#000;stroke-width:12.5px;"/>
                <path d="M1163.92,1723.09c7.004,-4.043 12.69,-0.76 12.69,7.327c0,8.088 -5.686,17.937 -12.69,21.981c-7.004,4.044 -12.691,0.761 -12.691,-7.327c0,-8.088 5.687,-17.937 12.691,-21.981Z" style="fill:#858585;stroke:#000;stroke-width:12.5px;"/>
            </g>
            <g>
                <path d="M1305.15,2191.18c-7.004,-4.044 -12.691,-0.761 -12.691,7.327c0,8.087 5.687,17.937 12.691,21.98c7.004,4.044 12.69,0.761 12.69,-7.326c0,-8.088 -5.686,-17.937 -12.69,-21.981Z" style="fill:#858585;stroke:#000;stroke-width:12.5px;"/>
                <g>
                    <path d="M1267.46,2231.56l-0,-34.312l-44.871,-25.608l12.073,40.54l32.798,19.38Z" style="fill:#ca5f00;stroke:#000;stroke-width:12.5px;"/>
                    <path d="M1268.66,2231.88l0,-34.313l44.871,-25.607l-12.073,40.54l-32.798,19.38Z" style="fill:#cd8443;stroke:#000;stroke-width:12.5px;"/>
                    <path d="M1267.08,2197.13l0,-52.359l47.496,27.422l-47.496,24.937Z" style="fill:#ca5f00;stroke:#000;stroke-width:12.5px;"/>
                    <path d="M1267.04,2197.13l-0,-52.359l-47.496,27.422l47.496,24.937Z" style="fill:#cd8443;stroke:#000;stroke-width:12.5px;"/>
                </g>
                <path d="M1265.76,2221.05c-7.004,-4.044 -12.69,-0.761 -12.69,7.327c-0,8.087 5.686,17.936 12.69,21.98c7.005,4.044 12.691,0.761 12.691,-7.327c-0,-8.087 -5.686,-17.936 -12.691,-21.98Z" style="fill:#858585;stroke:#000;stroke-width:12.5px;"/>
                <path d="M1230.3,2200.55c-7.004,-4.044 -12.691,-0.761 -12.691,7.326c0,8.088 5.687,17.937 12.691,21.981c7.004,4.044 12.69,0.761 12.69,-7.327c0,-8.087 -5.686,-17.937 -12.69,-21.98Z" style="fill:#858585;stroke:#000;stroke-width:12.5px;"/>
            </g>
            <g>
                <path d="M1523.56,1756.9c-7.004,-4.043 -12.69,-0.76 -12.69,7.327c-0,8.088 5.686,17.937 12.69,21.981c7.004,4.044 12.691,0.761 12.691,-7.327c-0,-8.088 -5.687,-17.937 -12.691,-21.981Z" style="fill:#858585;stroke:#000;stroke-width:12.5px;"/>
                <g>
                    <path d="M1485.86,1797.28l0,-34.313l-44.87,-25.608l12.073,40.54l32.797,19.381Z" style="fill:#ca5f00;stroke:#000;stroke-width:12.5px;"/>
                    <path d="M1487.06,1797.6l-0,-34.313l44.87,-25.608l-12.073,40.54l-32.797,19.381Z" style="fill:#cd8443;stroke:#000;stroke-width:12.5px;"/>
                    <path d="M1485.48,1762.85l0,-52.359l47.496,27.422l-47.496,24.937Z" style="fill:#ca5f00;stroke:#000;stroke-width:12.5px;"/>
                    <path d="M1485.45,1762.85l-0,-52.359l-47.496,27.422l47.496,24.937Z" style="fill:#cd8443;stroke:#000;stroke-width:12.5px;"/>
                </g>
                <path d="M1484.16,1786.77c-7.004,-4.044 -12.69,-0.761 -12.69,7.327c-0,8.088 5.686,17.937 12.69,21.981c7.004,4.043 12.691,0.76 12.691,-7.327c-0,-8.088 -5.687,-17.937 -12.691,-21.981Z" style="fill:#858585;stroke:#000;stroke-width:12.5px;"/>
                <path d="M1448.7,1766.27c-7.004,-4.044 -12.691,-0.761 -12.691,7.327c0,8.087 5.687,17.937 12.691,21.98c7.004,4.044 12.69,0.761 12.69,-7.326c0,-8.088 -5.686,-17.937 -12.69,-21.981Z" style="fill:#858585;stroke:#000;stroke-width:12.5px;"/>
            </g>
            <g>
                <path d="M919.361,2100.88c-1.605,15.49 -12.647,30.714 -33.128,42.538c-44.442,25.659 -116.606,25.659 -161.048,0c-26.674,-15.4 -37.338,-36.565 -31.994,-56.575c4.275,-59.156 53.684,-105.887 113.923,-105.887c63.041,-0 114.223,51.181 114.223,114.223c0,1.912 -0.047,3.812 -0.14,5.701l-1.836,0Z" style="fill:#858585;stroke:#000;stroke-width:12.5px;"/>
                <ellipse cx="807.529" cy="1999.43" rx="40.252" ry="14.041"/>
                <path d="M879.279,2071.86c5.956,-3.439 10.792,6.815 10.792,22.884c0,16.069 -4.836,31.908 -10.792,35.347c-5.957,3.439 -10.793,-6.815 -10.793,-22.884c-0,-16.069 4.836,-31.907 10.793,-35.347Z"/>
                <path d="M834.706,1952.07c-1.422,-3.151 -2.177,-6.596 -2.177,-10.12l-0,-2.159c-0,-5.876 2.101,-11.535 5.888,-15.973l-20.135,0c-6.526,0 -12.785,-2.593 -17.4,-7.207c-4.615,-4.615 -7.207,-10.874 -7.207,-17.401l-0,-2.158c-0,-6.526 2.592,-12.785 7.207,-17.4c4.615,-4.615 10.874,-7.208 17.4,-7.208l64.231,0c-0.674,-0.583 -1.329,-1.192 -1.964,-1.827c-6.975,-6.975 -10.893,-16.435 -10.893,-26.299l-0,-0.375c-0,-9.864 3.918,-19.324 10.893,-26.299c6.975,-6.975 16.435,-10.893 26.299,-10.893l124.765,-0c9.864,-0 19.324,3.918 26.299,10.893c6.974,6.975 10.893,16.435 10.893,26.299l-0,0.375c-0,9.864 -3.919,19.324 -10.893,26.299c-6.975,6.975 -16.435,10.893 -26.299,10.893l-106.615,0c3.56,4.37 5.529,9.855 5.529,15.542l-0,2.158c-0,5.877 -2.102,11.536 -5.889,15.974l20.135,-0c6.527,-0 12.786,2.592 17.401,7.207c4.614,4.615 7.207,10.874 7.207,17.4l-0,2.159c-0,6.526 -2.593,12.785 -7.207,17.4c-4.615,4.615 -10.874,7.207 -17.401,7.207l-57.517,0c0.389,1.533 0.591,3.12 0.591,4.727l-0,0.003c-0,5.096 -2.024,9.983 -5.628,13.587c-3.603,3.603 -8.49,5.627 -13.586,5.627l-53.379,0c-5.096,0 -9.983,-2.024 -13.586,-5.627c-3.604,-3.604 -5.628,-8.491 -5.628,-13.587l-0,-0.003c-0,-5.096 2.024,-9.983 5.628,-13.586c3.603,-3.603 8.49,-5.628 13.586,-5.628l19.452,0Z" style="fill:#e4e4e4;stroke:#000;stroke-width:12.5px;"/>
                <path d="M931.694,1915.89l-46.27,0" style="fill:none;stroke:#000;stroke-width:12.5px;"/>
                <path d="M869.509,1953.91l-46.27,-0" style="fill:none;stroke:#000;stroke-width:12.5px;"/>
                <path d="M905.759,1873.16l-46.27,-0" style="fill:none;stroke:#000;stroke-width:12.5px;"/>
            </g>
        </g>
    </g>
</svg>
