<?xml version="1.0" encoding="UTF-8" standalone="no"?>
<!DOCTYPE svg PUBLIC "-//W3C//DTD SVG 1.1//EN" "http://www.w3.org/Graphics/SVG/1.1/DTD/svg11.dtd">
<svg width="100%" height="100%" viewBox="0 0 2014 2710" version="1.1" xmlns="http://www.w3.org/2000/svg" xmlns:xlink="http://www.w3.org/1999/xlink" xml:space="preserve" xmlns:serif="http://www.serif.com/" style="fill-rule:evenodd;clip-rule:evenodd;stroke-linecap:round;stroke-linejoin:round;stroke-miterlimit:1.5;">
    <rect id="novaterraprime_tile_10" x="0.576" y="0" width="2012.61" height="2709.69" style="fill:none;"/>
    <clipPath id="_clip1">
        <rect x="0.576" y="0" width="2012.61" height="2709.69"/>
    </clipPath>
    <g clip-path="url(#_clip1)">
        <g id="tile10">
            <g id="tilebase">
                <path d="M2006.63,1942.85l-0,189.322l-1000.29,577.517l-0,-189.322l1000.29,-577.517Z" style="fill:#808184;stroke:#000;stroke-width:12.5px;"/>
                <path d="M1006.35,2519.41l-0,189.799l-999.463,-577.04l0,-189.799l999.463,577.04Z" style="fill:#a6a8ab;stroke:#000;stroke-width:12.5px;"/>
                <path d="M1007.17,1365.52l999.711,577.183l-999.711,577.184l-999.711,-577.184l999.711,-577.183Z" style="fill:#d0d2d3;stroke:#000;stroke-width:12.5px;"/>
            </g>
            <path d="M921.586,2295.76l-700.788,-404.6l412.228,-238l41.223,23.8l-371.005,214.2l659.565,380.8l-41.223,23.8Z" style="fill:#d0d2d3;stroke:#000;stroke-width:8.33px;"/>
            <path d="M1086.48,2390.96l-123.668,-71.4l41.223,-23.8l82.445,47.6l742.011,-428.4l-659.565,-380.8l41.223,-23.8l700.788,404.6l-824.457,476Z" style="fill:#d0d2d3;stroke:#000;stroke-width:8.33px;"/>
            <path d="M1828.49,1867.36l-0,47.6l-659.565,-380.8l-0,-47.6l659.565,380.8Z" style="fill:#a6a8ab;stroke:#000;stroke-width:8.33px;"/>
            <path d="M1086.48,2343.36l-123.668,-71.4l41.223,-23.8l82.445,47.6l742.011,-428.4l-742.011,-428.4l41.223,-23.8l783.234,452.2l-824.457,476Z" style="fill:#d0d2d3;stroke:#000;stroke-width:8.33px;"/>
            <path d="M674.249,1629.36l0,47.6l-371.005,214.2l-0,-47.6l371.005,-214.2Z" style="fill:#808184;stroke:#000;stroke-width:8.33px;"/>
            <path d="M921.586,2248.16l-700.788,-404.6l412.228,-238l41.223,23.8l-371.005,214.2l659.565,380.8l-41.223,23.8Z" style="fill:#d0d2d3;stroke:#000;stroke-width:8.33px;"/>
            <g transform="matrix(0.866025,0.5,-4.80741e-17,1,-2753.76,10277.2)">
                <g transform="matrix(155.283,0,0,155.283,4207.07,-9794.53)">
                </g>
                <text x="3309.65px" y="-9794.53px" style="font-family:'Arial-BoldMT', 'Arial', sans-serif;font-weight:700;font-size:155.283px;">gitterra.com</text>
            </g>
            <path d="M832.312,1583.57l-0,-708.245l349.718,0l0,708.245c0,25.849 -17.063,51.697 -51.19,71.4c-68.255,39.407 -179.083,39.407 -247.337,0c-34.127,-19.703 -51.191,-45.551 -51.191,-71.4Z" style="fill:url(#_Linear2);stroke:#000;stroke-width:8.33px;"/>
            <path d="M883.503,798.168c68.254,-39.406 179.082,-39.406 247.337,0c68.254,39.407 68.254,103.394 -0,142.8c-68.255,39.407 -179.083,39.407 -247.337,0c-68.255,-39.406 -68.255,-103.393 -0,-142.8Z" style="fill:#d0d2d3;stroke:#000;stroke-width:8.33px;"/>
            <path d="M908.249,812.455c54.596,-31.521 143.248,-31.521 197.845,0c54.597,31.522 54.597,82.705 -0,114.226c-54.597,31.522 -143.249,31.522 -197.845,0c-54.597,-31.521 -54.597,-82.704 -0,-114.226Z" style="fill:#a6a8ab;"/>
            <clipPath id="_clip3">
                <path d="M908.249,812.455c54.596,-31.521 143.248,-31.521 197.845,0c54.597,31.522 54.597,82.705 -0,114.226c-54.597,31.522 -143.249,31.522 -197.845,0c-54.597,-31.521 -54.597,-82.704 -0,-114.226Z"/>
            </clipPath>
            <g clip-path="url(#_clip3)">
                <path d="M908.249,856.43c54.596,-31.521 143.248,-31.521 197.845,0c54.597,31.522 54.597,82.705 -0,114.226c-54.597,31.522 -143.249,31.522 -197.845,0c-54.597,-31.521 -54.597,-82.704 -0,-114.226Z" style="fill:#d0d2d3;stroke:#000;stroke-width:8.33px;"/>
            </g>
            <path d="M908.249,812.455c54.596,-31.521 143.248,-31.521 197.845,0c54.597,31.522 54.597,82.705 -0,114.226c-54.597,31.522 -143.249,31.522 -197.845,0c-54.597,-31.521 -54.597,-82.704 -0,-114.226Z" style="fill:none;stroke:#000;stroke-width:8.33px;"/>
            <path d="M965.787,1199.44l3.093,484.546l-61.602,128.447l-1.154,-372.56l59.663,-240.433Z" style="fill:#808184;stroke:#000;stroke-width:8.33px;"/>
            <path d="M893.356,1485.84l72.43,-288.224l-36.225,-5.824l-74.501,283.479l38.296,10.569Z" style="fill:#d0d2d3;stroke:#000;stroke-width:8.33px;"/>
            <path d="M797.918,1224.76l206.114,119l-206.114,119l-206.114,-119l206.114,-119Z" style="fill:#d0d2d3;stroke:#000;stroke-width:8.33px;"/>
            <path d="M797.918,1462.76l-0,523.6l-206.114,-119l-0,-523.6l206.114,119Z" style="fill:#a6a8ab;stroke:#000;stroke-width:8.33px;"/>
            <path d="M797.918,1462.76l-0,523.6l206.114,-119l-0,-523.6l-206.114,119Z" style="fill:#808184;stroke:#000;stroke-width:8.33px;"/>
            <path d="M797.995,1278.87l131.566,75.959l-131.566,75.959l-131.565,-75.959l131.565,-75.959Z" style="fill:#d0d2d3;stroke:#000;stroke-width:8.33px;"/>
            <path d="M666.43,1354.82l-19.248,-11.113l150.658,-86.983l0.155,22.137l-131.565,75.959Z" style="fill:#a6a8ab;stroke:#000;stroke-width:8.33px;"/>
            <path d="M929.561,1354.82l19.092,-11.023l-150.813,-87.073l-0,20.903l131.721,77.193Z" style="fill:#808184;stroke:#000;stroke-width:8.33px;"/>
            <path d="M934.033,1190.8c-0,-0 0.504,-43.376 0.807,-69.444c0.056,-4.756 2.216,-9.244 5.9,-12.253c3.684,-3.01 8.512,-4.232 13.184,-3.337c0.26,0.049 0.519,0.099 0.777,0.148c7.292,1.397 12.487,7.887 12.252,15.308c-0.765,24.202 -2.341,74.044 -2.341,74.044l-30.579,-4.466"/>
            <path d="M795.56,1296.34l97.326,56.191l-28.206,16.285l-97.326,-56.192l28.206,-16.284Z"/>
            <path d="M880.231,1350.08l4.542,2.623l-20.595,11.891l-4.542,-2.623l20.595,-11.891Z" style="fill:#d0d2d3;"/>
            <path d="M857.159,1346.37l4.543,2.622l-12.271,7.085l-4.543,-2.623l12.271,-7.084Z" style="fill:#d0d2d3;"/>
            <path d="M835.506,1342.22l4.543,2.622l-5.041,2.911l-4.543,-2.623l5.041,-2.91Z" style="fill:#d0d2d3;"/>
            <path d="M868.894,1348.2l4.543,2.623l-16.551,9.555l-4.543,-2.622l16.551,-9.556Z" style="fill:#d0d2d3;"/>
            <path d="M846.284,1344.23l4.543,2.623l-8.689,5.016l-4.542,-2.623l8.688,-5.016Z" style="fill:#d0d2d3;"/>
            <path d="M828.214,1338.01l4.543,2.623l-5.042,2.911l-4.542,-2.623l5.041,-2.911Z" style="fill:#d0d2d3;"/>
            <path d="M1004.37,869.1l45.268,26.135l-45.268,26.136l-45.268,-26.136l45.268,-26.135Z"/>
            <path d="M985.89,894.901l6.104,3.525l-11.711,6.761l-6.105,-3.524l11.712,-6.762Z" style="fill:#d0d2d3;"/>
            <path d="M1004.44,892.745l6.104,3.525l-22.853,13.194l-6.104,-3.525l22.853,-13.194Z" style="fill:#d0d2d3;"/>
            <path d="M1021.94,891.655l6.104,3.524l-32.548,18.792l-6.104,-3.525l32.548,-18.791Z" style="fill:#d0d2d3;"/>
            <path d="M1038.8,891.263l6.104,3.524l-41.317,23.855l-6.104,-3.525l41.317,-23.854Z" style="fill:#d0d2d3;"/>
            <path d="M1168.92,1629.36l164.891,95.2l-164.891,95.2l-164.891,-95.2l164.891,-95.2Z" style="fill:#d0d2d3;stroke:#000;stroke-width:8.33px;"/>
            <path d="M1168.92,1660.4l111.116,64.153l-111.116,64.153l-111.116,-64.153l111.116,-64.153Z" style="fill:#d0d2d3;stroke:#000;stroke-width:8.33px;"/>
            <path d="M1168.92,1819.76l-0,380.8l164.891,-95.2l0,-380.8l-164.891,95.2Z" style="fill:#808184;stroke:#000;stroke-width:8.33px;"/>
            <path d="M1168.92,1660.4l-0,23.262l89.481,51.662l21.412,-12.362l-110.893,-62.562Z" style="fill:#a6a8ab;stroke:#000;stroke-width:8.33px;"/>
            <path d="M1168.92,1660.4l-0,23.262l-89.481,51.662l-21.412,-12.362l110.893,-62.562Z" style="fill:#808184;stroke:#000;stroke-width:8.33px;"/>
            <path d="M1168.21,1696.24l71.853,41.485l-23.422,13.522l-71.853,-41.484l23.422,-13.523Z"/>
            <path d="M1177.16,1724.22l56.316,12.584l-17.692,9.718l-38.624,-22.302Z" style="fill:#d0d2d3;"/>
            <path d="M880.363,1938.76l164.892,95.2l-0,-190.4l-164.892,-95.2l0,190.4Z" style="fill:#a6a8ab;stroke:#000;stroke-width:8.33px;"/>
            <path d="M921.586,1724.56l206.114,119l-41.223,23.8l-206.114,-119l41.223,-23.8Z" style="fill:#d0d2d3;stroke:#000;stroke-width:8.33px;"/>
            <path d="M1168.92,1819.76l-0,380.8l-164.891,-95.2l-0,-380.8l164.891,95.2Z" style="fill:#a6a8ab;stroke:#000;stroke-width:8.33px;"/>
            <path d="M901.522,1631.54c3.487,-2.013 7.783,-2.013 11.27,0c3.487,2.013 5.635,5.734 5.635,9.76c-0,30.357 -0,85.434 -0,85.434l-32.675,18.864l0,-86.746c0,-11.267 6.011,-21.678 15.768,-27.311c0.001,-0 0.001,-0.001 0.002,-0.001Z"/>
            <path d="M1077.86,2042.8c-3.487,-2.013 -7.783,-2.013 -11.27,-0c-3.487,2.013 -5.635,5.734 -5.635,9.76l0,85.434l32.674,18.864c0,0 0,-56.695 0,-86.746c0,-11.267 -6.01,-21.678 -15.768,-27.311c-0,-0.001 -0.001,-0.001 -0.001,-0.001Z"/>
            <path d="M634.066,1562.99c-1.127,-0.65 -2.515,-0.65 -3.642,0c-1.127,0.651 -1.821,1.853 -1.821,3.154c-0,19.096 -0,74.978 -0,74.978l11.051,6.38l-0,-74.836c-0,-3.991 -2.129,-7.679 -5.585,-9.674c-0.001,-0 -0.002,-0.001 -0.003,-0.002Z"/>
            <path d="M1031.35,1890.37c-1.127,-0.651 -2.515,-0.651 -3.642,-0c-1.127,0.65 -1.821,1.853 -1.821,3.154l0,74.977l11.051,6.38c0,0 0,-55.608 0,-74.836c0,-3.991 -2.129,-7.678 -5.585,-9.674c-0.001,-0 -0.002,-0.001 -0.003,-0.001Z"/>
            <path d="M1307.68,1889.74c1.127,-0.651 2.516,-0.651 3.642,-0c1.127,0.65 1.821,1.852 1.821,3.154c0,19.096 0,74.977 0,74.977l-11.051,6.38c0,-0 0,-55.608 0,-74.836c0,-3.991 2.129,-7.678 5.585,-9.674c0.001,-0 0.002,-0.001 0.003,-0.001Z"/>
            <path d="M685.244,1592.54c-1.127,-0.65 -2.515,-0.65 -3.642,0c-1.127,0.651 -1.821,1.853 -1.821,3.154c0,19.096 0,74.977 0,74.977l11.051,6.381l0,-74.837c0,-3.99 -2.129,-7.678 -5.585,-9.673c-0.001,-0.001 -0.002,-0.001 -0.003,-0.002Z"/>
            <path d="M1082.53,1919.91c-1.126,-0.651 -2.515,-0.651 -3.642,-0.001c-1.126,0.651 -1.821,1.853 -1.821,3.155c0,19.095 0,74.977 0,74.977l11.051,6.38c0,-0 0,-55.608 0,-74.836c0,-3.991 -2.129,-7.678 -5.585,-9.674c-0.001,-0 -0.002,-0.001 -0.003,-0.001Z"/>
            <path d="M1256.5,1919.29c1.127,-0.65 2.515,-0.65 3.642,0c1.127,0.651 1.821,1.853 1.821,3.154c0,19.096 0,74.977 0,74.977l-11.051,6.381l0,-74.836c0,-3.991 2.129,-7.679 5.585,-9.674c0.001,-0.001 0.002,-0.001 0.003,-0.002Z"/>
            <path d="M1161.82,1068.8c1.126,-0.651 2.515,-0.651 3.642,-0c1.126,0.65 1.821,1.853 1.821,3.154c-0,19.096 -0,74.977 -0,74.977l-11.051,6.38c-0,0 -0,-55.608 -0,-74.836c-0,-3.991 2.129,-7.678 5.585,-9.673c0.001,-0.001 0.002,-0.002 0.003,-0.002Z"/>
            <path d="M854.994,1076.75c-1.127,-0.65 -2.515,-0.65 -3.642,0c-1.127,0.651 -1.821,1.853 -1.821,3.154c0,19.096 0,74.977 0,74.977l11.051,6.381c0,-0 0,-55.608 0,-74.837c0,-3.99 -2.129,-7.678 -5.585,-9.673c-0.001,-0.001 -0.002,-0.001 -0.003,-0.002Z"/>
            <path d="M1063.61,1106.73c1.875,-0.567 3.908,-0.213 5.482,0.954c1.573,1.168 2.5,3.012 2.5,4.971c0,20.733 0,72.945 0,72.945l-16.021,4.848c-0,-0 -0,-52.119 -0,-72.89c-0,-4.985 3.264,-9.383 8.036,-10.827c0.001,-0 0.002,-0 0.003,-0.001Z"/>
            <path d="M738.896,1623.51c-1.127,-0.651 -2.516,-0.651 -3.642,-0c-1.127,0.65 -1.821,1.853 -1.821,3.154c-0,19.096 -0,74.977 -0,74.977l11.051,6.38c-0,0 -0,-55.608 -0,-74.836c-0,-3.991 -2.129,-7.678 -5.585,-9.673c-0.001,-0.001 -0.002,-0.002 -0.003,-0.002Z"/>
            <path d="M1136.18,1950.89c-1.127,-0.65 -2.515,-0.65 -3.642,0c-1.127,0.651 -1.821,1.853 -1.821,3.154c-0,19.096 -0,74.977 -0,74.977l11.051,6.381c-0,-0 -0,-55.608 -0,-74.837c-0,-3.99 -2.129,-7.678 -5.585,-9.673c-0.001,-0.001 -0.002,-0.001 -0.003,-0.002Z"/>
            <path d="M1202.85,1950.26c1.127,-0.651 2.515,-0.651 3.642,-0c1.127,0.651 1.821,1.853 1.821,3.154c-0,19.096 -0,74.977 -0,74.977l-11.051,6.38l-0,-74.836c-0,-3.99 2.129,-7.678 5.585,-9.673c0.001,-0.001 0.002,-0.001 0.003,-0.002Z"/>
            <path d="M866.72,1606.8c1.127,-0.651 2.515,-0.651 3.642,-0c1.127,0.65 1.821,1.853 1.821,3.154c0,19.096 0,74.977 0,74.977l-11.051,6.38l0,-74.836c0,-3.991 2.129,-7.678 5.585,-9.673c0.001,-0.001 0.002,-0.002 0.003,-0.002Z"/>
            <path d="M932.608,1568.76c1.127,-0.651 2.515,-0.651 3.642,-0c1.127,0.65 1.821,1.853 1.821,3.154c-0,19.096 -0,74.977 -0,74.977l-11.051,6.38c-0,0 -0,-55.608 -0,-74.836c-0,-3.991 2.129,-7.678 5.585,-9.674c0.001,-0 0.002,-0.001 0.003,-0.001Z"/>
            <g>
                <path d="M1101.84,887.191l0,-298.835" style="fill:none;stroke:#000;stroke-width:8.33px;"/>
                <path id="primary-color-lighter" d="M1281.51,479.376l-0,94.019l-126.525,73.049l0,-94.019l126.525,-73.049Z" style="fill:#62b54a;stroke:#000;stroke-width:8.33px;"/>
                <path id="primary-color-lighter1" serif:id="primary-color-lighter" d="M1220.69,554.265l0,94.02l-126.524,73.049l-0,-94.02l126.524,-73.049Z" style="fill:#62b54a;stroke:#000;stroke-width:8.33px;"/>
                <path id="primary-color-darker" d="M1220.24,553.988l-64.709,-2.367l0.916,40.315l63.793,-37.948Z" style="fill:#3b6d2c;stroke:#000;stroke-width:8.33px;"/>
            </g>
            <g>
                <path d="M704.102,1359.04l0,-178.996" style="fill:none;stroke:#000;stroke-width:8.33px;"/>
                <path id="primary-color-lighter2" serif:id="primary-color-lighter" d="M811.718,1114.76l0,56.316l-75.785,43.755l0,-56.316l75.785,-43.755Z" style="fill:#62b54a;stroke:#000;stroke-width:8.33px;"/>
                <path id="primary-color-lighter3" serif:id="primary-color-lighter" d="M775.291,1159.62l0,56.316l-75.785,43.755l-0,-56.316l75.785,-43.755Z" style="fill:#62b54a;stroke:#000;stroke-width:8.33px;"/>
                <path id="primary-color-lighter4" serif:id="primary-color-lighter" d="M775.023,1159.45l-38.759,-1.418l0.549,24.147l38.21,-22.729Z" style="fill:#3b6d2c;stroke:#000;stroke-width:8.33px;"/>
            </g>
            <g>
                <path d="M1301.19,1726.03l0,-178.996" style="fill:none;stroke:#000;stroke-width:8.33px;"/>
                <path id="primary-color-lighter5" serif:id="primary-color-lighter" d="M1408.81,1481.75l-0,56.316l-75.786,43.755l0,-56.316l75.786,-43.755Z" style="fill:#62b54a;stroke:#000;stroke-width:8.33px;"/>
                <path id="primary-color-lighter6" serif:id="primary-color-lighter" d="M1372.38,1526.61l0,56.315l-75.785,43.755l-0,-56.316l75.785,-43.754Z" style="fill:#62b54a;stroke:#000;stroke-width:8.33px;"/>
                <path id="primary-color-lighter7" serif:id="primary-color-lighter" d="M1372.11,1526.44l-38.759,-1.418l0.549,24.147l38.21,-22.729Z" style="fill:#3b6d2c;stroke:#000;stroke-width:8.33px;"/>
            </g>
            <path d="M694.861,1474.66c11.375,6.568 20.611,22.564 20.611,35.7c0,13.135 -9.236,18.468 -20.611,11.9c-11.376,-6.568 -20.612,-22.565 -20.612,-35.7c0,-13.136 9.236,-18.468 20.612,-11.9Z" style="fill:#df2205;stroke:#000;stroke-width:8.33px;"/>
            <path d="M900.975,1474.66c-11.376,6.568 -20.612,22.564 -20.612,35.7c0,13.135 9.236,18.468 20.612,11.9c11.375,-6.568 20.611,-22.565 20.611,-35.7c0,-13.136 -9.236,-18.468 -20.611,-11.9Z" style="fill:#df2205;stroke:#000;stroke-width:8.33px;"/>
            <path d="M1251.37,1843.56c-11.376,6.568 -20.612,22.564 -20.612,35.7c0,13.135 9.236,18.468 20.612,11.9c11.375,-6.568 20.611,-22.565 20.611,-35.7c-0,-13.136 -9.236,-18.468 -20.611,-11.9Z" style="fill:#df2205;stroke:#000;stroke-width:8.33px;"/>
            <path d="M1086.48,1843.56c11.376,6.568 20.612,22.564 20.612,35.7c-0,13.135 -9.236,18.468 -20.612,11.9c-11.375,-6.568 -20.611,-22.565 -20.611,-35.7c-0,-13.136 9.236,-18.468 20.611,-11.9Z" style="fill:#df2205;stroke:#000;stroke-width:8.33px;"/>
            <path d="M633.026,1438.96c11.376,6.568 20.612,22.564 20.612,35.7c-0,13.135 -9.236,18.468 -20.612,11.9c-11.375,-6.568 -20.611,-22.565 -20.611,-35.7c0,-13.136 9.236,-18.468 20.611,-11.9Z" style="fill:#df2205;stroke:#000;stroke-width:8.33px;"/>
            <path d="M962.809,1438.96c-11.376,6.568 -20.612,22.564 -20.612,35.7c0,13.135 9.236,18.468 20.612,11.9c11.376,-6.568 20.611,-22.565 20.611,-35.7c0,-13.136 -9.235,-18.468 -20.611,-11.9Z" style="fill:#df2205;stroke:#000;stroke-width:8.33px;"/>
            <path d="M756.695,1510.36c11.376,6.568 20.611,22.564 20.611,35.7c0,13.135 -9.235,18.468 -20.611,11.9c-11.376,-6.568 -20.612,-22.565 -20.612,-35.7c0,-13.136 9.236,-18.468 20.612,-11.9Z" style="fill:#df2205;stroke:#000;stroke-width:8.33px;"/>
            <path d="M839.14,1510.36c-11.375,6.568 -20.611,22.564 -20.611,35.7c0,13.135 9.236,18.468 20.611,11.9c11.376,-6.568 20.612,-22.565 20.612,-35.7c-0,-13.136 -9.236,-18.468 -20.612,-11.9Z" style="fill:#df2205;stroke:#000;stroke-width:8.33px;"/>
            <path d="M921.586,2248.16l0,47.6l-700.788,-404.6l0,-47.6l700.788,404.6Z" style="fill:#a6a8ab;stroke:#000;stroke-width:8.33px;"/>
            <path d="M962.809,2224.36l-0,47.6l-41.223,23.8l0,-47.6l41.223,-23.8Z" style="fill:#808184;stroke:#000;stroke-width:8.33px;"/>
            <path d="M1086.48,2343.36l0,47.6l-123.668,-71.4l-0,-47.6l123.668,71.4Z" style="fill:#a6a8ab;stroke:#000;stroke-width:8.33px;"/>
            <path d="M1910.93,1867.36l-0,47.6l-824.457,476l0,-47.6l824.457,-476Z" style="fill:#808184;stroke:#000;stroke-width:8.33px;"/>
            <path id="primary-color-lighter8" serif:id="primary-color-lighter" d="M1168.92,1200.96l-0,142.8l-41.223,71.4l-41.223,-23.8l0,-142.8l82.446,-47.6Z" style="fill:#62b54a;stroke:#000;stroke-width:8.33px;"/>
        </g>
    </g>
    <defs>
        <linearGradient id="_Linear2" x1="0" y1="0" x2="1" y2="0.0126933" gradientUnits="userSpaceOnUse" gradientTransform="matrix(349.719,-3.62519,0,285.6,832.312,1244.61)"><stop offset="0" style="stop-color:#a6a8ab;stop-opacity:1"/><stop offset="1" style="stop-color:#808184;stop-opacity:1"/></linearGradient>
    </defs>
</svg>
