<?xml version="1.0" encoding="UTF-8" standalone="no"?>
<!DOCTYPE svg PUBLIC "-//W3C//DTD SVG 1.1//EN" "http://www.w3.org/Graphics/SVG/1.1/DTD/svg11.dtd">
<svg width="100%" height="100%" viewBox="0 0 2014 2710" version="1.1" xmlns="http://www.w3.org/2000/svg" xmlns:xlink="http://www.w3.org/1999/xlink" xml:space="preserve" xmlns:serif="http://www.serif.com/" style="fill-rule:evenodd;clip-rule:evenodd;stroke-linecap:round;stroke-linejoin:round;stroke-miterlimit:1.5;">
    <rect id="novaterraprime_tile_9" x="0.617" y="0" width="2012.61" height="2709.69" style="fill:none;"/>
    <clipPath id="_clip1">
        <rect x="0.617" y="0" width="2012.61" height="2709.69"/>
    </clipPath>
    <g clip-path="url(#_clip1)">
        <g id="tile9">
            <g id="tilebase">
                <path d="M2006.67,1942.85l-0,189.322l-1000.29,577.517l-0,-189.322l1000.29,-577.517Z" style="fill:#808184;stroke:#000;stroke-width:12.5px;"/>
                <path d="M1006.39,2519.41l-0,189.799l-999.463,-577.04l0,-189.799l999.463,577.04Z" style="fill:#a6a8ab;stroke:#000;stroke-width:12.5px;"/>
                <path d="M1007.21,1365.52l999.711,577.183l-999.711,577.184l-999.711,-577.184l999.711,-577.183Z" style="fill:#d0d2d3;stroke:#000;stroke-width:12.5px;"/>
            </g>
            <g transform="matrix(0.866025,0.5,-4.80741e-17,1,-2753.76,10277.2)">
                <g transform="matrix(155.283,0,0,155.283,4207.11,-9794.53)">
                </g>
                <text x="3309.69px" y="-9794.53px" style="font-family:'Arial-BoldMT', 'Arial', sans-serif;font-weight:700;font-size:155.283px;">gitterra.com</text>
            </g>
            <g>
                <path d="M670.013,1629.49c-0.005,-19.657 1.228,-38.6 3.699,-56.672l63.599,26.346c7.398,-36.257 21.242,-66.855 40.828,-90.244l-38.619,-81.56c20.35,-19.805 44.569,-33.787 71.895,-41.509l51.323,74.226c30.049,-5.269 63.47,-1.958 98.568,9.764l8.983,-68.252c33.712,13.768 67.962,33.542 101.674,58.702l8.983,78.624c35.098,28.806 68.519,64.087 98.568,104.052l51.323,-14.962c27.326,39.275 51.545,81.223 71.895,124.525l-38.62,36.966c19.587,46.006 33.431,92.59 40.828,137.388l63.599,47.092c2.49,21.085 3.723,41.603 3.7,61.393c-55.523,-31.837 -143.366,-82.511 -239.719,-138.19c0.001,-0.255 0.002,-0.51 0.002,-0.766c-0,-70.992 -49.915,-157.447 -111.396,-192.944c-61.481,-35.496 -111.396,-6.677 -111.396,64.315c-0,0.178 0,0.356 0.001,0.535c-98.778,-57.174 -187.433,-108.533 -239.718,-138.829Z" style="fill:#a6a8ab;stroke:#000;stroke-width:8.33px;"/>
                <path d="M511.036,1663.13l118.604,-72.258l40.173,39.18l-94.554,62.671l-64.223,-29.593Z" style="fill:#d0d2d3;stroke:#000;stroke-width:8.33px;"/>
                <path d="M700.686,1553.63l153.645,-85.101l8.407,50.131l-63.485,44.734l-98.567,-9.764Z" style="fill:#d0d2d3;stroke:#000;stroke-width:8.33px;"/>
                <path d="M1210.19,2129.16l162.052,-93.561l0,-62.605l-162.052,93.561l-0,62.605Z" style="fill:#808184;stroke:#000;stroke-width:8.33px;"/>
                <path d="M1140.68,1846.09l162.053,-93.561l-71.895,-124.525l-164.408,94.248l74.25,123.838Z" style="fill:#d0d2d3;stroke:#000;stroke-width:8.33px;"/>
                <path d="M649.362,1479.41l162.053,-93.561l51.323,74.226l-162.052,93.561l-51.324,-74.226Z" style="fill:#d0d2d3;stroke:#000;stroke-width:8.33px;"/>
                <path d="M909.877,1553.82l162.086,-93.536l-101.674,-58.702l-162.052,93.561l101.64,58.677Z" style="fill:#d0d2d3;stroke:#000;stroke-width:8.33px;"/>
                <path d="M918.894,1632.47l162.052,-93.561l-8.983,-78.624l-162.052,93.561l8.983,78.624Z" style="fill:#808184;stroke:#000;stroke-width:8.33px;"/>
                <path d="M1017.46,1736.52l162.053,-93.561l-98.568,-104.052l-162.052,93.561l98.567,104.052Z" style="fill:#d0d2d3;stroke:#000;stroke-width:8.33px;"/>
                <path d="M1017.46,1736.52l162.053,-93.561l51.323,-14.962l-160.427,91.949l-52.949,16.574Z" style="fill:#d0d2d3;stroke:#000;stroke-width:8.33px;"/>
                <path d="M1102.06,1883.05l162.052,-93.561l40.828,137.388l-162.052,93.561l-40.828,-137.388Z" style="fill:#808184;stroke:#000;stroke-width:8.33px;"/>
                <path d="M1208.1,2067.76l162.745,-95.758l-66.558,-47.234l-161.886,93.181l65.699,49.811Z" style="fill:#d0d2d3;stroke:#000;stroke-width:8.33px;"/>
                <path d="M749.15,1862.26l161.779,-93.611l-80.192,-50.777l-127.748,86.418l46.161,57.97Z" style="fill:#808184;stroke:#000;stroke-width:8.33px;"/>
                <path d="M507.96,1723.05c-0.004,-19.657 1.229,-38.6 3.7,-56.672l63.599,26.346c7.398,-36.257 21.241,-66.855 40.828,-90.244l-38.619,-81.56c20.35,-19.805 44.568,-33.787 71.894,-41.509l51.324,74.226c30.049,-5.269 63.47,-1.958 98.567,9.764l8.984,-68.252c33.711,13.767 67.962,33.542 101.674,58.702l8.983,78.624c35.098,28.806 68.519,64.087 98.567,104.052l51.324,-14.962c27.326,39.275 51.545,81.223 71.894,124.525l-38.619,36.966c19.587,46.006 33.43,92.59 40.828,137.388l63.599,47.092c2.49,21.085 3.723,41.603 3.7,61.393c-55.523,-31.837 -143.366,-82.511 -239.719,-138.19c0.001,-0.255 0.002,-0.51 0.002,-0.766c-0,-70.992 -49.915,-157.447 -111.396,-192.944c-61.482,-35.496 -111.396,-6.677 -111.396,64.315c-0,0.178 -0,0.356 0,0.535c-98.777,-57.174 -187.433,-108.533 -239.718,-138.829Z" style="fill:#a6a8ab;stroke:#000;stroke-width:8.33px;"/>
            </g>
            <g>
                <path d="M805.946,2074.68c-0.003,-11.502 0.743,-22.586 2.236,-33.161l38.443,15.416c4.471,-21.215 12.839,-39.12 24.678,-52.806l-23.343,-47.725c12.3,-11.589 26.939,-19.771 43.456,-24.289l31.023,43.433c18.163,-3.083 38.364,-1.146 59.579,5.713l5.43,-39.937c20.377,8.056 41.08,19.627 61.457,34.349l5.43,46.007c21.215,16.856 41.416,37.501 59.579,60.887l31.023,-8.755c16.517,22.981 31.156,47.527 43.456,72.865l-23.343,21.631c11.839,26.921 20.207,54.179 24.678,80.393l38.443,27.556c1.505,12.338 2.25,24.344 2.236,35.924c-33.561,-18.629 -86.657,-48.281 -144.898,-80.862c0.001,-0.149 0.001,-0.299 0.001,-0.448c0,-41.542 -30.171,-92.131 -67.333,-112.901c-37.163,-20.771 -67.334,-3.908 -67.334,37.633c0,0.104 0,0.209 0.001,0.313c-59.706,-33.455 -113.294,-63.508 -144.898,-81.236Z" style="fill:#a6a8ab;stroke:#000;stroke-width:8.33px;"/>
                <path d="M709.853,2094.37l71.69,-42.282l24.282,22.926l-57.153,36.672l-38.819,-17.316Z" style="fill:#d0d2d3;stroke:#000;stroke-width:8.33px;"/>
                <path d="M824.486,2030.29l92.872,-49.796l5.081,29.334l-38.373,26.176l-59.58,-5.714Z" style="fill:#d0d2d3;stroke:#000;stroke-width:8.33px;"/>
                <path d="M1132.45,2367.06l97.952,-54.747l0,-36.633l-97.952,54.747l-0,36.633Z" style="fill:#808184;stroke:#000;stroke-width:8.33px;"/>
                <path d="M1090.44,2201.42l97.952,-54.748l-43.456,-72.865l-99.377,55.149l44.881,72.464Z" style="fill:#d0d2d3;stroke:#000;stroke-width:8.33px;"/>
                <path d="M793.464,1986.86l97.952,-54.747l31.023,43.433l-97.953,54.747l-31.022,-43.433Z" style="fill:#d0d2d3;stroke:#000;stroke-width:8.33px;"/>
                <path d="M950.932,2030.4l97.973,-54.733l-61.457,-34.349l-97.952,54.747l61.436,34.335Z" style="fill:#d0d2d3;stroke:#000;stroke-width:8.33px;"/>
                <path d="M956.382,2076.43l97.953,-54.748l-5.43,-46.007l-97.953,54.748l5.43,46.007Z" style="fill:#808184;stroke:#000;stroke-width:8.33px;"/>
                <path d="M1015.96,2137.31l97.952,-54.747l-59.579,-60.887l-97.953,54.748l59.58,60.886Z" style="fill:#d0d2d3;stroke:#000;stroke-width:8.33px;"/>
                <path d="M1015.96,2137.31l97.952,-54.747l31.023,-8.755l-96.97,53.804l-32.005,9.698Z" style="fill:#d0d2d3;stroke:#000;stroke-width:8.33px;"/>
                <path d="M1067.1,2223.05l97.953,-54.748l24.678,80.393l-97.952,54.747l-24.679,-80.392Z" style="fill:#808184;stroke:#000;stroke-width:8.33px;"/>
                <path d="M1131.19,2331.14l98.371,-56.033l-40.231,-27.639l-97.852,54.525l39.712,29.147Z" style="fill:#d0d2d3;stroke:#000;stroke-width:8.33px;"/>
                <path d="M853.781,2210.89l97.787,-54.776l-48.472,-29.713l-77.218,50.568l27.903,33.921Z" style="fill:#808184;stroke:#000;stroke-width:8.33px;"/>
                <path d="M707.993,2129.43c-0.002,-11.503 0.743,-22.587 2.237,-33.162l38.442,15.416c4.472,-21.215 12.839,-39.12 24.679,-52.806l-23.344,-47.725c12.301,-11.589 26.94,-19.771 43.457,-24.289l31.022,43.433c18.163,-3.082 38.365,-1.145 59.58,5.714l5.43,-39.938c20.377,8.056 41.079,19.627 61.456,34.35l5.43,46.007c21.215,16.855 41.417,37.5 59.58,60.886l31.022,-8.755c16.517,22.981 31.156,47.527 43.457,72.866l-23.344,21.631c11.84,26.92 20.207,54.178 24.679,80.392l38.442,27.556c1.505,12.338 2.251,24.344 2.236,35.924c-33.56,-18.629 -86.657,-48.281 -144.898,-80.862c0.001,-0.149 0.001,-0.298 0.001,-0.448c0,-41.541 -30.171,-92.131 -67.333,-112.901c-37.162,-20.771 -67.333,-3.908 -67.333,37.634c-0,0.104 -0,0.208 0,0.312c-59.706,-33.455 -113.294,-63.508 -144.898,-81.235Z" style="fill:#a6a8ab;stroke:#000;stroke-width:8.33px;"/>
            </g>
            <g>
                <path d="M1787.31,1895.16l78.976,45.597l-78.976,45.597l-78.976,-45.597l78.976,-45.597Z" style="fill:#62b54a;stroke:#000;stroke-width:4.17px;"/>
                <path d="M1787.31,1667.18l39.488,22.799l-39.488,22.798l-39.488,-22.798l39.488,-22.799Z" style="fill:#62b54a;stroke:#000;stroke-width:4.17px;"/>
                <path d="M1794.18,1936.1c0.073,0.398 0.111,0.807 0.111,1.226c-0,3.794 -3.132,6.875 -6.99,6.875c-3.858,-0 -6.99,-3.081 -6.99,-6.875c0,-0.419 0.038,-0.828 0.111,-1.226l0,-118.861l13.758,0l0,118.861Z" style="fill:#c06100;stroke:#000;stroke-width:4.17px;"/>
                <path d="M1787.31,1712.77l0,136.791l-39.488,-22.798l0,-136.791l39.488,22.798Z" style="fill:#4e913b;stroke:#000;stroke-width:4.17px;"/>
                <path d="M1787.31,1712.77l0,136.791l39.488,-22.798l0,-136.791l-39.488,22.798Z" style="fill:#3b6d2c;stroke:#000;stroke-width:4.17px;"/>
            </g>
            <g>
                <path d="M468.176,2037.96l78.977,45.597l-78.977,45.597l-78.976,-45.597l78.976,-45.597Z" style="fill:#62b54a;stroke:#000;stroke-width:4.17px;"/>
                <path d="M468.176,1809.98l39.488,22.799l-39.488,22.798l-39.488,-22.798l39.488,-22.799Z" style="fill:#62b54a;stroke:#000;stroke-width:4.17px;"/>
                <path d="M475.055,2078.9c0.073,0.398 0.111,0.807 0.111,1.226c0,3.794 -3.132,6.875 -6.99,6.875c-3.857,-0 -6.989,-3.081 -6.989,-6.875c-0,-0.419 0.038,-0.828 0.11,-1.226l0,-118.861l13.758,0l0,118.861Z" style="fill:#c06100;stroke:#000;stroke-width:4.17px;"/>
                <path d="M468.176,1855.57l0,136.791l-39.488,-22.798l0,-136.791l39.488,22.798Z" style="fill:#4e913b;stroke:#000;stroke-width:4.17px;"/>
                <path d="M468.176,1855.57l0,136.791l39.488,-22.798l0,-136.791l-39.488,22.798Z" style="fill:#3b6d2c;stroke:#000;stroke-width:4.17px;"/>
            </g>
            <g>
                <path d="M1663.64,1823.76l78.976,45.597l-78.976,45.597l-78.976,-45.597l78.976,-45.597Z" style="fill:#62b54a;stroke:#000;stroke-width:4.17px;"/>
                <path d="M1663.64,1595.78l39.488,22.799l-39.488,22.798l-39.488,-22.798l39.488,-22.799Z" style="fill:#62b54a;stroke:#000;stroke-width:4.17px;"/>
                <path d="M1670.52,1864.7c0.073,0.398 0.111,0.807 0.111,1.226c-0,3.794 -3.132,6.875 -6.99,6.875c-3.858,-0 -6.99,-3.081 -6.99,-6.875c0,-0.419 0.038,-0.828 0.111,-1.226l-0,-118.861l13.758,0l-0,118.861Z" style="fill:#c06100;stroke:#000;stroke-width:4.17px;"/>
                <path d="M1663.64,1641.37l-0,136.791l-39.488,-22.798l-0,-136.791l39.488,22.798Z" style="fill:#4e913b;stroke:#000;stroke-width:4.17px;"/>
                <path d="M1663.64,1641.37l-0,136.791l39.488,-22.798l-0,-136.791l-39.488,22.798Z" style="fill:#3b6d2c;stroke:#000;stroke-width:4.17px;"/>
            </g>
            <g>
                <path d="M344.508,1966.56l78.976,45.597l-78.976,45.597l-78.976,-45.597l78.976,-45.597Z" style="fill:#62b54a;stroke:#000;stroke-width:4.17px;"/>
                <path d="M344.508,1738.58l39.488,22.799l-39.488,22.798l-39.488,-22.798l39.488,-22.799Z" style="fill:#62b54a;stroke:#000;stroke-width:4.17px;"/>
                <path d="M351.387,2007.5c0.073,0.398 0.111,0.807 0.111,1.226c-0,3.794 -3.132,6.875 -6.99,6.875c-3.858,-0 -6.99,-3.081 -6.99,-6.875c0,-0.419 0.038,-0.828 0.111,-1.226l0,-118.861l13.758,0l-0,118.861Z" style="fill:#c06100;stroke:#000;stroke-width:4.17px;"/>
                <path d="M344.508,1784.17l-0,136.791l-39.488,-22.798l-0,-136.791l39.488,22.798Z" style="fill:#4e913b;stroke:#000;stroke-width:4.17px;"/>
                <path d="M344.508,1784.17l-0,136.791l39.488,-22.798l-0,-136.791l-39.488,22.798Z" style="fill:#3b6d2c;stroke:#000;stroke-width:4.17px;"/>
            </g>
            <g>
                <path d="M1539.97,1752.36l78.977,45.597l-78.977,45.597l-78.976,-45.597l78.976,-45.597Z" style="fill:#62b54a;stroke:#000;stroke-width:4.17px;"/>
                <path d="M1539.97,1524.38l39.488,22.799l-39.488,22.798l-39.488,-22.798l39.488,-22.799Z" style="fill:#62b54a;stroke:#000;stroke-width:4.17px;"/>
                <path d="M1546.85,1793.3c0.073,0.398 0.111,0.807 0.111,1.226c0,3.794 -3.132,6.875 -6.99,6.875c-3.857,-0 -6.989,-3.081 -6.989,-6.875c-0,-0.419 0.038,-0.828 0.111,-1.226l-0,-118.861l13.757,0l0,118.861Z" style="fill:#c06100;stroke:#000;stroke-width:4.17px;"/>
                <path d="M1539.97,1569.97l0,136.791l-39.488,-22.798l0,-136.791l39.488,22.798Z" style="fill:#4e913b;stroke:#000;stroke-width:4.17px;"/>
                <path d="M1539.97,1569.97l0,136.791l39.488,-22.798l0,-136.791l-39.488,22.798Z" style="fill:#3b6d2c;stroke:#000;stroke-width:4.17px;"/>
            </g>
            <g>
                <path d="M220.839,1895.16l78.977,45.597l-78.977,45.597l-78.976,-45.597l78.976,-45.597Z" style="fill:#62b54a;stroke:#000;stroke-width:4.17px;"/>
                <path d="M220.839,1667.18l39.489,22.799l-39.489,22.798l-39.488,-22.798l39.488,-22.799Z" style="fill:#62b54a;stroke:#000;stroke-width:4.17px;"/>
                <path d="M227.718,1936.1c0.073,0.398 0.111,0.807 0.111,1.226c0,3.794 -3.132,6.875 -6.99,6.875c-3.857,-0 -6.989,-3.081 -6.989,-6.875c-0,-0.419 0.038,-0.828 0.111,-1.226l-0,-118.861l13.757,0l0,118.861Z" style="fill:#c06100;stroke:#000;stroke-width:4.17px;"/>
                <path d="M220.839,1712.77l0,136.791l-39.488,-22.798l0,-136.791l39.488,22.798Z" style="fill:#4e913b;stroke:#000;stroke-width:4.17px;"/>
                <path d="M220.839,1712.77l0,136.791l39.489,-22.798l-0,-136.791l-39.489,22.798Z" style="fill:#3b6d2c;stroke:#000;stroke-width:4.17px;"/>
            </g>
            <path id="primary-color-lighter" d="M1333.86,2105.36c45.503,-26.271 119.389,-26.271 164.892,-0c45.503,26.271 45.503,68.929 -0,95.2c-45.503,26.271 -119.389,26.271 -164.892,-0c-45.503,-26.271 -45.503,-68.929 0,-95.2Z" style="fill:#62b54a;stroke:#000;stroke-width:8.33px;"/>
            <path id="primary-color-lighter1" serif:id="primary-color-lighter" d="M1333.86,2105.36l70.159,30.474l12.287,-25.313l12.286,25.313l70.16,-30.474l-52.784,40.506l43.844,7.094l-43.844,7.093l52.784,40.507l-70.16,-30.475l-12.286,25.313l-12.287,-25.313l-70.159,30.475l52.784,-40.507l-43.844,-7.093l43.844,-7.094l-52.784,-40.506Z" style="fill:#62b54a;stroke:#000;stroke-width:8.33px;"/>
        </g>
    </g>
</svg>
