<?xml version="1.0" encoding="UTF-8" standalone="no"?>
<!DOCTYPE svg PUBLIC "-//W3C//DTD SVG 1.1//EN" "http://www.w3.org/Graphics/SVG/1.1/DTD/svg11.dtd">
<svg width="100%" height="100%" viewBox="0 0 2014 2710" version="1.1" xmlns="http://www.w3.org/2000/svg" xmlns:xlink="http://www.w3.org/1999/xlink" xml:space="preserve" xmlns:serif="http://www.serif.com/" style="fill-rule:evenodd;clip-rule:evenodd;stroke-linecap:round;stroke-linejoin:round;stroke-miterlimit:1.5;">
    <rect id="novaterraprime_tile_18" x="0.65" y="0.006" width="2012.61" height="2709.69" style="fill:none;"/>
    <clipPath id="_clip1">
        <rect x="0.65" y="0.006" width="2012.61" height="2709.69"/>
    </clipPath>
    <g clip-path="url(#_clip1)">
        <g id="tile_18">
            <g id="tilebase">
                <path d="M2006.71,1942.85l0,189.322l-1000.29,577.517l0,-189.322l1000.29,-577.517Z" style="fill:#808184;stroke:#000;stroke-width:12.5px;"/>
                <path d="M1006.42,2519.42l0,189.799l-999.462,-577.04l0,-189.799l999.462,577.04Z" style="fill:#a6a8ab;stroke:#000;stroke-width:12.5px;"/>
                <path d="M1007.25,1365.53l999.711,577.184l-999.711,577.183l-999.711,-577.183l999.711,-577.184Z" style="fill:#d0d2d3;stroke:#000;stroke-width:12.5px;"/>
            </g>
            <g transform="matrix(0.866025,0.5,-4.80741e-17,1,-2753.75,10277.1)">
                <g transform="matrix(155.283,0,0,155.283,4207.15,-9794.53)">
                </g>
                <text x="3309.72px" y="-9794.52px" style="font-family:'Arial-BoldMT', 'Arial', sans-serif;font-weight:700;font-size:155.283px;">gitterra.com</text>
            </g>
            <path d="M543.798,1594.78l228.514,131.933l-228.514,131.932l-228.514,-131.932l228.514,-131.933Z" style="fill:#d0d2d3;stroke:#000;stroke-width:12.5px;"/>
            <path d="M543.798,1858.65l0,297.154l-284.76,-164.407l56.246,-264.679l228.514,131.932Z" style="fill:#a6a8ab;stroke:#000;stroke-width:12.5px;"/>
            <path d="M543.798,1858.65l0,297.154l277.679,-173.647l-49.165,-255.439l-228.514,131.932Z" style="fill:#808184;stroke:#000;stroke-width:12.5px;"/>
            <path d="M963.4,2006.65l-0,216.199l-82.517,47.641l0,-216.199l82.517,-47.641Z" style="fill:#808184;stroke:#000;stroke-width:12.5px;"/>
            <path d="M785.27,1915.3l-0,194.197l-82.517,47.641l0,-194.197l82.517,-47.641Z" style="fill:#808184;stroke:#000;stroke-width:12.5px;"/>
            <path d="M617.248,1865.68l397.118,230.045l-0,260.394l-50.047,-28.895c0,0 0,-79.734 0,-134.843c0,-31.766 -16.947,-61.119 -44.457,-77.002c-0.026,-0.015 -0.052,-0.03 -0.078,-0.045c-8.442,-4.874 -18.842,-4.874 -27.284,0c-8.441,4.874 -13.641,13.881 -13.641,23.628l-0,130.179l-60.138,-34.721c-0,0 -0,-58.125 -0,-105.935c-0,-38.22 -20.391,-73.537 -53.49,-92.647c-0.001,-0 -0.002,-0.001 -0.003,-0.001c-12.722,-7.346 -28.397,-7.346 -41.12,-0c-12.722,7.345 -20.56,20.92 -20.56,35.611c0,42 0,86.994 0,86.994l-86.3,-49.826l-0,-242.936Z" style="fill:#a6a8ab;stroke:#000;stroke-width:12.5px;"/>
            <path d="M699.764,1818.04l397.118,229.276l-82.516,47.641l-397.118,-229.276l82.516,-47.641Z" style="fill:#d0d2d3;stroke:#000;stroke-width:12.5px;"/>
            <path d="M1096.88,2047.32l0,261.163l-82.516,47.641l-0,-261.163l82.516,-47.641Z" style="fill:#808184;stroke:#000;stroke-width:12.5px;"/>
            <path d="M481.918,2034.04c4.053,2.34 6.55,6.664 6.55,11.345c-0,20.996 -0,78.47 -0,78.47l-29.873,-17.247c0,-0 0,-38.978 0,-64.463c0,-4.449 2.374,-8.56 6.227,-10.785c3.853,-2.225 8.601,-2.225 12.454,-0c1.641,0.947 3.216,1.857 4.642,2.68Z"/>
            <path d="M494.554,1880.94c6.534,3.772 10.559,10.744 10.559,18.289c0,19.707 0,56.377 0,56.377l-23.809,-13.746c0,0 0,-35.801 0,-55.666c0,-2.661 1.42,-5.121 3.726,-6.452c2.305,-1.331 5.145,-1.331 7.45,0c0.691,0.399 1.386,0.8 2.074,1.198Z"/>
            <path d="M464.616,1863.65c6.534,3.772 10.559,10.744 10.559,18.289c0,19.707 0,56.378 0,56.378l-23.809,-13.747c0,0 0,-35.801 0,-55.665c0,-2.662 1.42,-5.122 3.725,-6.453c2.306,-1.33 5.146,-1.33 7.451,0c0.691,0.4 1.386,0.801 2.074,1.198Z"/>
            <path d="M352.543,1798.95c6.534,3.772 10.559,10.744 10.559,18.289c0,19.707 0,56.377 0,56.377l-23.809,-13.746c0,0 0,-35.801 0,-55.666c0,-2.661 1.42,-5.121 3.726,-6.452c2.305,-1.331 5.145,-1.331 7.45,0c0.691,0.399 1.386,0.8 2.074,1.198Z"/>
            <path d="M1022.69,2050.99l0,-254.24" style="fill:none;stroke:#000;stroke-width:12.5px;"/>
            <path id="primary-color-darker" d="M1196.43,1739.64l-0,103.372l-104.301,60.218l-0,-103.372l104.301,-60.218Z" style="fill:#fe4646;stroke:#000;stroke-width:12.5px;"/>
            <path id="primary-color-darker1" serif:id="primary-color-darker" d="M1126.99,1736.53l0,103.372l-104.301,60.218l0,-103.372l104.301,-60.218Z" style="fill:#fe4646;stroke:#000;stroke-width:12.5px;"/>
        </g>
    </g>
</svg>
