<?xml version="1.0" encoding="UTF-8" standalone="no"?>
<!DOCTYPE svg PUBLIC "-//W3C//DTD SVG 1.1//EN" "http://www.w3.org/Graphics/SVG/1.1/DTD/svg11.dtd">
<svg width="100%" height="100%" viewBox="0 0 2014 2711" version="1.1" xmlns="http://www.w3.org/2000/svg" xmlns:xlink="http://www.w3.org/1999/xlink" xml:space="preserve" xmlns:serif="http://www.serif.com/" style="fill-rule:evenodd;clip-rule:evenodd;stroke-linecap:round;stroke-linejoin:round;stroke-miterlimit:1.5;">
    <rect id="novaterraprime_tile_14" x="0.49" y="0.571" width="2012.61" height="2709.69" style="fill:none;"/>
    <clipPath id="_clip1">
        <rect x="0.49" y="0.571" width="2012.61" height="2709.69"/>
    </clipPath>
    <g clip-path="url(#_clip1)">
        <g id="tile14">
            <g id="tilebase">
                <path d="M2006.55,1943.42l0,189.322l-1000.29,577.517l0,-189.322l1000.29,-577.517Z" style="fill:#808184;stroke:#000;stroke-width:12.5px;"/>
                <path d="M1006.26,2519.98l0,189.8l-999.462,-577.04l0,-189.799l999.462,577.039Z" style="fill:#a6a8ab;stroke:#000;stroke-width:12.5px;"/>
                <path d="M1007.09,1366.09l999.711,577.183l-999.711,577.184l-999.711,-577.184l999.711,-577.183Z" style="fill:#d0d2d3;stroke:#000;stroke-width:12.5px;"/>
            </g>
            <g transform="matrix(0.866025,0.5,-4.80741e-17,1,-2753.77,10277.2)">
                <g transform="matrix(155.283,0,0,155.283,4206.99,-9793.96)">
                </g>
                <text x="3309.56px" y="-9793.96px" style="font-family:'Arial-BoldMT', 'Arial', sans-serif;font-weight:700;font-size:155.283px;">gitterra.com</text>
            </g>
            <path d="M1457.4,1558.53l288.56,166.6l-164.891,95.2l-288.56,-166.6l164.891,-95.2Z" style="fill:#d0d2d3;stroke:#000;stroke-width:12.5px;"/>
            <path id="primary-color" d="M1579.77,1754.16l-192.372,-109.16l64.422,-116.318l188.256,113.491l-60.306,111.987" style="fill:#ff8559;stroke:#000;stroke-width:12.5px;"/>
            <path d="M1745.96,1582.33l206.114,119l-206.114,119l-206.114,-119l206.114,-119Z" style="fill:#d0d2d3;stroke:#000;stroke-width:12.5px;"/>
            <path d="M1745.96,1820.33l0,238l-206.114,-119l-0,-238l206.114,119Z" style="fill:#a6a8ab;stroke:#000;stroke-width:12.5px;"/>
            <path d="M1416.17,2010.73l-0,190.4l-123.669,-71.4l0,-190.4l123.669,71.4Z" style="fill:#a6a8ab;stroke:#000;stroke-width:12.5px;"/>
            <path d="M1228.38,2140.3l-0,142.8l-77.857,-44.951l-0,-142.8l77.857,44.951Z" style="fill:#a6a8ab;stroke:#000;stroke-width:12.5px;"/>
            <path d="M339.792,1865.28l-0,142.8l-160.303,-92.55l0,-142.8l160.303,92.55Z" style="fill:#a6a8ab;stroke:#000;stroke-width:12.5px;"/>
            <path d="M1581.07,1820.33l-0,95.2l-288.56,-166.6l0,-95.2l288.56,166.6Z" style="fill:#a6a8ab;stroke:#000;stroke-width:12.5px;"/>
            <path d="M1745.96,1820.33l0,238l206.114,-119l0,-238l-206.114,119Z" style="fill:#808184;stroke:#000;stroke-width:12.5px;"/>
            <path d="M1416.17,2010.73l-0,190.4l288.559,-166.6l0,-190.4l-288.559,166.6Z" style="fill:#808184;stroke:#000;stroke-width:12.5px;"/>
            <path d="M1228.38,2140.3l-0,142.8l164.891,-95.2l-0,-142.8l-164.891,95.2Z" style="fill:#808184;stroke:#000;stroke-width:12.5px;"/>
            <path d="M339.792,1865.28l-0,142.8l164.891,-95.2l0,-142.8l-164.891,95.2Z" style="fill:#808184;stroke:#000;stroke-width:12.5px;"/>
            <path d="M1581.07,1772.73l123.668,71.4l-288.559,166.6l-123.669,-71.4l288.56,-166.6Z" style="fill:#d0d2d3;stroke:#000;stroke-width:12.5px;"/>
            <path d="M1315.41,2000.15l77.857,44.951l-164.891,95.2l-77.857,-44.951l164.891,-95.2Z" style="fill:#d0d2d3;stroke:#000;stroke-width:12.5px;"/>
            <path d="M344.38,1677.53l160.303,92.55l-164.891,95.2l-160.303,-92.55l164.891,-95.2Z" style="fill:#d0d2d3;stroke:#000;stroke-width:12.5px;"/>
            <path d="M1748.26,1773.88l-130.276,-75.159l128.844,-213.309l1.432,288.468Z" style="fill:#ff8559;stroke:#000;stroke-width:12.5px;"/>
            <path d="M1748.82,1773.54l130.276,-75.159l-128.845,-213.31l-1.431,288.469Z" style="fill:#b05839;stroke:#000;stroke-width:12.5px;"/>
            <path id="primary-color-darker" d="M1401.06,1970.97l260.374,-152.109l-22.906,-120.613l-256.258,156.439l18.79,116.283" style="fill:#b05839;stroke:#000;stroke-width:12.5px;"/>
            <path id="primary-color1" serif:id="primary-color" d="M1400.48,1970.82l-18.235,-115.703l-22.767,92.422l41.002,23.281Z" style="fill:#ff8559;stroke:#000;stroke-width:12.5px;"/>
            <path d="M393.122,1889.74c3.188,-1.841 7.117,-1.841 10.306,-0c3.188,1.841 5.153,5.243 5.153,8.925c-0,25.603 -0,69.701 -0,69.701l-28.871,16.669l-0,-72.068c-0,-9.582 5.111,-18.435 13.409,-23.226c0.001,-0 0.002,-0.001 0.003,-0.001Z"/>
            <path d="M1190.47,2173.67c-3.189,-1.841 -7.118,-1.841 -10.306,-0c-3.189,1.841 -5.153,5.243 -5.153,8.925c-0,25.603 -0,69.701 -0,69.701l28.871,16.669c-0,-0 -0,-46.926 -0,-72.068c-0,-9.581 -5.112,-18.435 -13.409,-23.225c-0.001,-0.001 -0.002,-0.002 -0.003,-0.002Z"/>
            <path d="M436.604,1853.62c2.206,-1.273 4.924,-1.273 7.13,0c2.206,1.274 3.565,3.628 3.565,6.175c-0,16.032 -0,41.982 -0,41.982l-17.917,10.344l0,-45.997c0,-5.157 2.752,-9.923 7.218,-12.502c0.002,-0 0.003,-0.001 0.004,-0.002Z"/>
            <path d="M1458.8,2029.28c2.206,-1.274 4.924,-1.274 7.13,0c2.206,1.274 3.565,3.627 3.565,6.175c-0,16.031 -0,41.982 -0,41.982l-17.916,10.344c-0,-0 -0,-30.769 -0,-45.997c-0,-5.158 2.751,-9.923 7.218,-12.502c0.001,-0.001 0.002,-0.001 0.003,-0.002Z"/>
            <path d="M308.424,1889.38c-2.206,-1.274 -4.924,-1.274 -7.13,-0.001c-2.206,1.274 -3.565,3.628 -3.565,6.175c-0,16.032 -0,41.982 -0,41.982l17.916,10.344c-0,0 -0,-30.769 -0,-45.997c-0,-5.157 -2.752,-9.923 -7.218,-12.502c-0.001,-0 -0.002,-0.001 -0.003,-0.001Z"/>
            <path d="M1423.72,1748.15c-2.206,-1.274 -4.924,-1.274 -7.13,-0c-2.206,1.274 -3.565,3.627 -3.565,6.175c-0,16.031 -0,41.982 -0,41.982l17.916,10.344c-0,-0 -0,-30.769 -0,-45.997c-0,-5.158 -2.752,-9.923 -7.218,-12.502c-0.001,-0.001 -0.002,-0.001 -0.003,-0.002Z"/>
            <path d="M284.362,1875.49c-2.206,-1.274 -4.924,-1.274 -7.13,-0c-2.206,1.273 -3.565,3.627 -3.565,6.174c0,16.032 0,41.982 0,41.982l17.917,10.344c-0,0 -0,-30.768 -0,-45.996c-0,-5.158 -2.752,-9.924 -7.218,-12.502c-0.001,-0.001 -0.003,-0.002 -0.004,-0.002Z"/>
            <path d="M470.494,1834.05c2.206,-1.273 4.924,-1.273 7.13,0c2.207,1.274 3.565,3.628 3.565,6.175c0,16.032 0,41.982 0,41.982l-17.916,10.344l0,-45.997c0,-5.157 2.752,-9.923 7.218,-12.502c0.001,-0 0.002,-0.001 0.003,-0.002Z"/>
            <path d="M1492.69,2009.72c2.206,-1.273 4.924,-1.273 7.13,0c2.206,1.274 3.565,3.628 3.565,6.175c-0,16.032 -0,41.982 -0,41.982l-17.917,10.344l0,-45.997c0,-5.157 2.752,-9.923 7.218,-12.502c0.001,-0.001 0.002,-0.001 0.004,-0.002Z"/>
            <path d="M1526.51,1990.18c2.206,-1.273 4.924,-1.273 7.13,0c2.206,1.274 3.565,3.628 3.565,6.175c0,16.032 0,41.982 0,41.982l-17.916,10.344c0,-0 0,-30.769 0,-45.997c0,-5.157 2.752,-9.923 7.218,-12.502c0.001,-0.001 0.002,-0.001 0.003,-0.002Z"/>
            <path d="M1353.53,2112.04c2.206,-1.274 4.924,-1.274 7.13,0c2.206,1.274 3.565,3.628 3.565,6.175c-0,16.032 -0,41.982 -0,41.982l-17.916,10.344l-0,-45.997c-0,-5.158 2.751,-9.923 7.218,-12.502c0.001,-0.001 0.002,-0.001 0.003,-0.002Z"/>
            <path d="M1328.08,2126.73c2.206,-1.273 4.924,-1.273 7.13,0c2.206,1.274 3.565,3.628 3.565,6.175c-0,16.032 -0,41.982 -0,41.982l-17.917,10.344l0,-45.997c0,-5.157 2.752,-9.923 7.218,-12.502c0.002,-0 0.003,-0.001 0.004,-0.002Z"/>
            <path d="M1789.09,1842.12c2.206,-1.274 4.924,-1.274 7.13,-0c2.206,1.273 3.565,3.627 3.565,6.174c-0,16.032 -0,41.982 -0,41.982l-17.917,10.344l0,-45.996c0,-5.158 2.752,-9.924 7.218,-12.502c0.001,-0.001 0.003,-0.002 0.004,-0.002Z"/>
            <path d="M1816.09,1826.53c2.206,-1.273 4.924,-1.273 7.13,0c2.206,1.274 3.565,3.628 3.565,6.175c0,16.032 0,41.982 0,41.982l-17.916,10.344c-0,-0 -0,-30.769 -0,-45.997c-0,-5.157 2.751,-9.923 7.218,-12.502c0.001,-0 0.002,-0.001 0.003,-0.002Z"/>
            <path d="M1913.17,1770.48c2.206,-1.274 4.924,-1.274 7.13,-0c2.206,1.273 3.565,3.627 3.565,6.174c-0,16.032 -0,41.982 -0,41.982l-17.917,10.344l0,-45.997c0,-5.157 2.752,-9.923 7.218,-12.502c0.001,-0 0.002,-0.001 0.004,-0.001Z"/>
            <path d="M1820.29,1930.68c2.206,-1.274 4.924,-1.274 7.13,-0c2.206,1.274 3.565,3.627 3.565,6.175c-0,16.031 -0,41.982 -0,41.982l-17.917,10.344c0,-0 0,-30.769 0,-45.997c0,-5.158 2.752,-9.923 7.218,-12.502c0.001,-0.001 0.003,-0.001 0.004,-0.002Z"/>
            <path d="M1919.12,1873.62c2.206,-1.274 4.924,-1.274 7.13,-0c2.206,1.274 3.565,3.627 3.565,6.175c0,16.031 0,41.982 0,41.982l-17.916,10.344c-0,-0 -0,-30.769 -0,-45.997c-0,-5.158 2.751,-9.923 7.218,-12.502c0.001,-0.001 0.002,-0.001 0.003,-0.002Z"/>
            <path d="M1892.33,1889.09c2.207,-1.274 4.924,-1.274 7.13,0c2.207,1.274 3.565,3.628 3.565,6.175c0,16.032 0,41.982 0,41.982l-17.916,10.344c0,-0 0,-30.769 0,-45.997c0,-5.158 2.752,-9.923 7.218,-12.502c0.001,-0.001 0.002,-0.001 0.003,-0.002Z"/>
            <path d="M1648.92,1919.51c2.206,-1.273 4.924,-1.273 7.13,0c2.206,1.274 3.565,3.628 3.565,6.175c-0,16.032 -0,41.982 -0,41.982l-17.917,10.344c0,-0 0,-30.769 0,-45.997c0,-5.157 2.752,-9.923 7.218,-12.502c0.001,-0 0.002,-0.001 0.004,-0.002Z"/>
            <path d="M215.354,1835.65c-2.206,-1.274 -4.924,-1.274 -7.13,-0c-2.206,1.273 -3.565,3.627 -3.565,6.174c-0,16.032 -0,41.982 -0,41.982l17.916,10.344c0,0 0,-30.769 0,-45.997c0,-5.157 -2.751,-9.923 -7.218,-12.502c-0.001,-0 -0.002,-0.001 -0.003,-0.001Z"/>
            <path d="M1330.65,1694.41c-2.206,-1.274 -4.924,-1.274 -7.13,0c-2.206,1.274 -3.565,3.627 -3.565,6.175c-0,16.031 -0,41.982 -0,41.982l17.916,10.344c-0,-0 -0,-30.769 -0,-45.997c-0,-5.158 -2.752,-9.923 -7.218,-12.502c-0.001,-0.001 -0.002,-0.001 -0.003,-0.002Z"/>
            <path d="M1358.22,1710.33c-2.206,-1.273 -4.924,-1.273 -7.13,0c-2.206,1.274 -3.565,3.628 -3.565,6.175c0,16.032 0,41.982 0,41.982l17.917,10.344c-0,-0 -0,-30.769 -0,-45.997c-0,-5.157 -2.752,-9.923 -7.218,-12.502c-0.001,-0 -0.003,-0.001 -0.004,-0.002Z"/>
        </g>
    </g>
</svg>
