<?xml version="1.0" encoding="UTF-8" standalone="no"?>
<!DOCTYPE svg PUBLIC "-//W3C//DTD SVG 1.1//EN" "http://www.w3.org/Graphics/SVG/1.1/DTD/svg11.dtd">
<svg width="100%" height="100%" viewBox="0 0 2013 2710" version="1.1" xmlns="http://www.w3.org/2000/svg" xmlns:xlink="http://www.w3.org/1999/xlink" xml:space="preserve" xmlns:serif="http://www.serif.com/" style="fill-rule:evenodd;clip-rule:evenodd;stroke-linecap:round;stroke-linejoin:round;stroke-miterlimit:1.5;">
    <rect id="novaterraprime_tile_13" x="0.204" y="0.165" width="2012.61" height="2709.69" style="fill:none;"/>
    <clipPath id="_clip1">
        <rect x="0.204" y="0.165" width="2012.61" height="2709.69"/>
    </clipPath>
    <g clip-path="url(#_clip1)">
        <g id="tile13">
            <g id="tilebase">
                <path d="M2006.26,1943.01l0,189.322l-1000.29,577.518l0,-189.322l1000.29,-577.518Z" style="fill:#808184;stroke:#000;stroke-width:12.5px;"/>
                <path d="M1005.97,2519.58l0,189.799l-999.462,-577.04l-0,-189.799l999.462,577.04Z" style="fill:#a6a8ab;stroke:#000;stroke-width:12.5px;"/>
                <path d="M1006.8,1365.69l999.711,577.184l-999.711,577.183l-999.711,-577.183l999.711,-577.184Z" style="fill:#d0d2d3;stroke:#000;stroke-width:12.5px;"/>
            </g>
            <g transform="matrix(0.866025,0.5,-4.80741e-17,1,-2753.81,10277.4)">
                <g transform="matrix(155.283,0,0,155.283,4206.7,-9794.37)">
                </g>
                <text x="3309.28px" y="-9794.37px" style="font-family:'Arial-BoldMT', 'Arial', sans-serif;font-weight:700;font-size:155.283px;">gitterra.com</text>
            </g>
            <path d="M1498.89,1866.72l84.694,48.898l-371.175,214.298l-84.694,-48.898l371.175,-214.298Z" style="fill:#d0d2d3;stroke:#000;stroke-width:12.5px;"/>
            <path d="M1583.59,1915.62l0,158.604l-379.754,219.251l0,-158.604l379.754,-219.251Z" style="fill:#808184;stroke:#000;stroke-width:12.5px;"/>
            <path d="M845.128,2135.36l-0,158.3l-246.21,-142.15l0,-158.3l246.21,142.15Z" style="fill:#a6a8ab;stroke:#000;stroke-width:12.5px;"/>
            <path d="M616.361,1964.87c30.36,-17.528 67.765,-17.528 98.125,-0c79.77,46.055 228.779,132.086 228.779,132.086l-98.137,56.659c-0,0 -151.039,-87.202 -230.394,-133.018c-9.787,-5.65 -15.816,-16.093 -15.816,-27.394c0,-11.301 6.029,-21.743 15.816,-27.394c0.542,-0.313 1.085,-0.626 1.627,-0.939Z" style="fill:#d0d2d3;stroke:#000;stroke-width:12.5px;"/>
            <path d="M802.673,2289.03l-0,-245.753l479.217,0l0,245.753c0,49.167 -107.365,89.085 -239.608,89.085c-132.244,0 -239.609,-39.918 -239.609,-89.085Z" style="fill:url(#_Linear2);stroke:#000;stroke-width:12.5px;"/>
            <ellipse cx="1042.28" cy="2043.27" rx="239.609" ry="89.085" style="fill:#d0d2d3;stroke:#000;stroke-width:12.5px;"/>
            <path d="M1042.47,2199.42c9.881,0 17.89,8.01 17.89,17.891l0,110.601l-36.163,-0c-0,-0 -0,-75.285 -0,-110.601c-0,-9.881 8.009,-17.891 17.89,-17.891c0.128,0 0.255,0 0.383,0Z"/>
            <path d="M1185.48,2170.43c5.475,-1.93 11.546,-1.084 16.284,2.27c4.738,3.353 7.555,8.798 7.555,14.603c0,37.428 0,103.214 0,103.214l-36.164,12.75c0,0 0,-83.42 0,-115.829c0,-7.588 4.786,-14.35 11.942,-16.873c0.127,-0.045 0.255,-0.09 0.383,-0.135Z"/>
            <path d="M895.641,2164.96c-5.474,-1.93 -11.545,-1.084 -16.284,2.269c-4.738,3.354 -7.555,8.798 -7.555,14.603c0,37.428 0,103.214 0,103.214l36.164,12.751c0,-0 0,-83.42 0,-115.83c0,-7.587 -4.786,-14.349 -11.942,-16.872c-0.127,-0.045 -0.255,-0.09 -0.383,-0.135Z"/>
            <path d="M1333.11,2096.7c2.281,-1.316 5.091,-1.316 7.372,0c2.281,1.317 3.686,3.751 3.686,6.385c-0,23.88 -0,72.912 -0,72.912l-19.629,11.333c-0,-0 -0,-53.245 -0,-75.788c-0,-6.122 3.266,-11.779 8.568,-14.84c0.001,-0 0.002,-0.001 0.003,-0.002Z"/>
            <path d="M1439.58,2035.23c2.28,-1.317 5.091,-1.317 7.372,0c2.28,1.317 3.686,3.751 3.686,6.385c-0,23.88 -0,72.912 -0,72.912l-19.629,11.333c-0,-0 -0,-53.245 -0,-75.788c-0,-6.122 3.266,-11.779 8.568,-14.84c0.001,-0.001 0.002,-0.001 0.003,-0.002Z"/>
            <path d="M757.397,2133.83c-2.281,-1.317 -5.092,-1.317 -7.372,0c-2.281,1.317 -3.686,3.751 -3.686,6.385l-0,72.912l19.629,11.333l-0,-75.788c-0,-6.122 -3.267,-11.779 -8.568,-14.84c-0.001,-0.001 -0.002,-0.001 -0.003,-0.002Z"/>
            <path d="M1488.43,2007.03c2.281,-1.317 5.091,-1.317 7.372,-0c2.281,1.317 3.686,3.75 3.686,6.384c0,23.881 0,72.912 0,72.912l-19.629,11.333c0,0 0,-53.244 0,-75.787c0,-6.122 3.266,-11.78 8.568,-14.841c0.001,-0 0.002,-0.001 0.003,-0.001Z"/>
            <path d="M708.55,2105.63c-2.281,-1.317 -5.091,-1.317 -7.372,-0c-2.281,1.317 -3.686,3.75 -3.686,6.384c-0,23.881 -0,72.912 -0,72.912l19.629,11.333c-0,0 -0,-53.244 -0,-75.787c-0,-6.122 -3.266,-11.779 -8.568,-14.841c-0.001,-0 -0.002,-0.001 -0.003,-0.001Z"/>
            <path d="M1537.41,1978.75c2.281,-1.317 5.091,-1.317 7.372,0c2.281,1.317 3.686,3.751 3.686,6.385c-0,23.88 -0,72.912 -0,72.912l-19.629,11.333c-0,-0 -0,-53.245 -0,-75.788c-0,-6.122 3.266,-11.779 8.568,-14.84c0.001,-0.001 0.002,-0.001 0.003,-0.002Z"/>
            <path d="M659.568,2077.35c-2.28,-1.317 -5.091,-1.317 -7.372,0c-2.28,1.317 -3.686,3.751 -3.686,6.385c0,23.88 0,72.912 0,72.912l19.629,11.333c0,-0 0,-53.245 0,-75.788c0,-6.122 -3.266,-11.779 -8.568,-14.84c-0.001,-0.001 -0.002,-0.001 -0.003,-0.002Z"/>
            <path id="primary-color" d="M884.751,2043.27c0,-86.943 70.587,-157.53 157.531,-157.53c86.943,-0 157.53,70.587 157.53,157.53c-0,24.082 -70.587,43.633 -157.53,43.633c-86.944,-0 -157.531,-19.551 -157.531,-43.633Z" style="fill:#ff4139;stroke:#000;stroke-width:12.5px;"/>
        </g>
    </g>
    <defs>
        <linearGradient id="_Linear2" x1="0" y1="0" x2="1" y2="0" gradientUnits="userSpaceOnUse" gradientTransform="matrix(330.291,3.93204,-3.93204,330.291,876.672,2224.79)"><stop offset="0" style="stop-color:#a6a8ab;stop-opacity:1"/><stop offset="1" style="stop-color:#808184;stop-opacity:1"/></linearGradient>
    </defs>
</svg>
