<?xml version="1.0" encoding="UTF-8" standalone="no"?>
<!DOCTYPE svg PUBLIC "-//W3C//DTD SVG 1.1//EN" "http://www.w3.org/Graphics/SVG/1.1/DTD/svg11.dtd">
<svg width="100%" height="100%" viewBox="0 0 2014 2061" version="1.1" xmlns="http://www.w3.org/2000/svg" xmlns:xlink="http://www.w3.org/1999/xlink" xml:space="preserve" xmlns:serif="http://www.serif.com/" style="fill-rule:evenodd;clip-rule:evenodd;stroke-linecap:round;stroke-linejoin:round;stroke-miterlimit:1.5;">
    <rect id="novaterraprime_tile_5" x="0.705" y="0.916" width="2012.61" height="2059.25" style="fill:none;"/>
    <clipPath id="_clip1">
        <rect x="0.705" y="0.916" width="2012.61" height="2059.25"/>
    </clipPath>
    <g clip-path="url(#_clip1)">
        <g id="tile5">
            <path d="M955.842,821.071c-0,17.233 -11.376,34.465 -34.128,47.6c-45.503,26.272 -119.388,26.272 -164.891,0c-22.751,-13.135 -34.127,-30.367 -34.127,-47.6l-0,-475.818l233.146,0l-0,475.818Z" style="fill:#a6a8ab;stroke:#000;stroke-width:8.33px;"/>
            <path d="M756.823,297.471c45.503,-26.271 119.388,-26.271 164.891,0c45.503,26.272 45.503,68.929 0,95.2c-45.503,26.272 -119.388,26.272 -164.891,0c-45.503,-26.271 -45.503,-68.928 0,-95.2Z" style="fill:#d0d2d3;stroke:#000;stroke-width:8.33px;"/>
            <path d="M781.14,311.511c32.082,-18.523 84.176,-18.523 116.258,-0c32.082,18.522 32.082,48.599 -0,67.121c-32.082,18.523 -84.176,18.523 -116.258,0c-32.083,-18.522 -32.083,-48.599 -0,-67.121Z" style="fill:#a6a8ab;"/>
            <clipPath id="_clip2">
                <path d="M781.14,311.511c32.082,-18.523 84.176,-18.523 116.258,-0c32.082,18.522 32.082,48.599 -0,67.121c-32.082,18.523 -84.176,18.523 -116.258,0c-32.083,-18.522 -32.083,-48.599 -0,-67.121Z"/>
            </clipPath>
            <g clip-path="url(#_clip2)">
                <path d="M781.14,347.738c32.082,-18.523 84.176,-18.523 116.258,-0c32.082,18.522 32.082,48.599 -0,67.121c-32.082,18.523 -84.176,18.523 -116.258,0c-32.083,-18.522 -32.083,-48.599 -0,-67.121Z" style="fill:#d0d2d3;stroke:#000;stroke-width:8.33px;"/>
            </g>
            <path d="M781.14,311.511c32.082,-18.523 84.176,-18.523 116.258,-0c32.082,18.522 32.082,48.599 -0,67.121c-32.082,18.523 -84.176,18.523 -116.258,0c-32.083,-18.522 -32.083,-48.599 -0,-67.121Z" style="fill:none;stroke:#000;stroke-width:8.33px;"/>
            <path d="M875.508,324.149l-0,-121.878l174.859,0l-0,496.923c-0,12.924 -8.532,25.848 -25.596,35.7c-17.063,9.852 -39.448,14.777 -61.834,14.777c-2.367,0 -4.735,-0.055 -7.096,-0.165l0,-375.045c-19.964,-0.931 -39.479,-5.802 -54.738,-14.612c-17.064,-9.852 -25.595,-22.776 -25.595,-35.7Z" style="fill:#a6a8ab;stroke:#000;stroke-width:8.33px;"/>
            <path d="M901.103,166.571c34.127,-19.703 89.541,-19.703 123.668,0c34.128,19.704 34.128,51.697 0,71.4c-34.127,19.704 -89.541,19.704 -123.668,0c-34.127,-19.703 -34.127,-51.696 -0,-71.4Z" style="fill:#d0d2d3;"/>
            <clipPath id="_clip3">
                <path d="M901.103,166.571c34.127,-19.703 89.541,-19.703 123.668,0c34.128,19.704 34.128,51.697 0,71.4c-34.127,19.704 -89.541,19.704 -123.668,0c-34.127,-19.703 -34.127,-51.696 -0,-71.4Z"/>
            </clipPath>
            <g clip-path="url(#_clip3)">
                <path d="M919.222,177.033c24.127,-13.93 63.303,-13.93 87.43,-0c24.127,13.929 24.127,36.548 0,50.477c-24.127,13.93 -63.303,13.93 -87.43,0c-24.126,-13.929 -24.126,-36.548 0,-50.477Z" style="fill:#a6a8ab;"/>
                <clipPath id="_clip4">
                    <path d="M919.222,177.033c24.127,-13.93 63.303,-13.93 87.43,-0c24.127,13.929 24.127,36.548 0,50.477c-24.127,13.93 -63.303,13.93 -87.43,0c-24.126,-13.929 -24.126,-36.548 0,-50.477Z"/>
                </clipPath>
                <g clip-path="url(#_clip4)">
                    <path d="M919.222,222.608c24.127,-13.929 63.303,-13.929 87.43,0c24.127,13.93 24.127,36.548 0,50.478c-24.127,13.929 -63.303,13.929 -87.43,-0c-24.126,-13.93 -24.126,-36.548 0,-50.478Z" style="fill:#d0d2d3;stroke:#000;stroke-width:8.33px;"/>
                </g>
                <path d="M919.222,177.033c24.127,-13.93 63.303,-13.93 87.43,-0c24.127,13.929 24.127,36.548 0,50.477c-24.127,13.93 -63.303,13.93 -87.43,0c-24.126,-13.929 -24.126,-36.548 0,-50.477Z" style="fill:none;stroke:#000;stroke-width:8.33px;"/>
            </g>
            <path d="M901.103,166.571c34.127,-19.703 89.541,-19.703 123.668,0c34.128,19.704 34.128,51.697 0,71.4c-34.127,19.704 -89.541,19.704 -123.668,0c-34.127,-19.703 -34.127,-51.696 -0,-71.4Z" style="fill:none;stroke:#000;stroke-width:8.33px;"/>
            <g id="tilebase">
                <path d="M2006.2,1290.75l0,189.322l-1000.29,577.517l0,-189.322l1000.29,-577.517Z" style="fill:#808184;stroke:#000;stroke-width:12.5px;"/>
                <path d="M1005.91,1867.31l0,189.799l-999.462,-577.04l-0,-189.799l999.462,577.04Z" style="fill:#a6a8ab;stroke:#000;stroke-width:12.5px;"/>
                <path d="M1006.74,713.418l999.711,577.183l-999.711,577.184l-999.711,-577.184l999.711,-577.183Z" style="fill:#d0d2d3;stroke:#000;stroke-width:12.5px;"/>
            </g>
            <path d="M1746.17,1249.47l-0,47.6l-206.114,-119l-0,-47.6l206.114,119Z" style="fill:#a6a8ab;stroke:#000;stroke-width:8.33px;"/>
            <path d="M1828.62,1249.47l-783.233,452.2l2.85,1.646l-41.222,23.8l-167.742,-96.846l41.223,-23.8l123.668,71.4l742.011,-428.4l-247.337,-142.8l41.223,-23.8l288.559,166.6Z" style="fill:#d0d2d3;stroke:#000;stroke-width:8.33px;"/>
            <path d="M674.378,1011.66l-0,47.413l-453.451,261.8l-0,-47.413l453.451,-261.8Z" style="fill:#808184;stroke:#000;stroke-width:8.33px;"/>
            <path d="M180.35,1249.47l-0.323,-0.186l40.9,-23.614l0.323,0.187l494.674,-285.6l40.899,23.613l-494.674,285.6l535.897,309.4l-40.9,23.614l-535.896,-309.4l-0.323,0.186l-40.9,-23.613l0.323,-0.187Z" style="fill:#d0d2d3;stroke:#000;stroke-width:8.33px;"/>
            <path d="M962.937,1083.62l0,524.346l-371.005,-214.2l-0,-524.346l371.005,214.2Z" style="fill:#a6a8ab;stroke:#000;stroke-width:8.33px;"/>
            <path d="M1581.28,725.871l0,525.093l-618.342,357l0,-525.093l618.342,-357Z" style="fill:#808184;stroke:#000;stroke-width:8.33px;"/>
            <path id="primary-color-darker" d="M962.937,1081.38l-82.445,-284.108l618.342,-357l82.445,285.6l-618.342,355.508Z" style="fill:#3b6d2c;stroke:#000;stroke-width:8.33px;"/>
            <path id="primary-color" d="M880.492,797.271l-206.114,-119l-82.446,191.147l371.005,214.2l-82.445,-286.347Z" style="fill:#4e913b;stroke:#000;stroke-width:8.33px;"/>
            <path id="primary-color-lighter" d="M1292.72,321.271l206.114,119l-618.342,357l-206.114,-119l618.342,-357Z" style="fill:#62b54a;stroke:#000;stroke-width:8.33px;"/>
            <path d="M775.424,1165.01c13.998,8.083 22.622,23.019 22.622,39.183c-0,78.527 -0,307.078 -0,307.078l-41.223,-23.8c0,0 0,-244.874 0,-314.774c0,-3.801 2.028,-7.313 5.319,-9.213c3.291,-1.9 7.346,-1.9 10.638,0c0.872,0.503 1.755,1.013 2.644,1.526Z"/>
            <path d="M853.722,1162.62c2.197,1.268 3.55,3.612 3.55,6.149c-0,38.11 -0,329.101 -0,329.101l-18.003,-10.395c-0,0 -0,-256.082 -0,-319.246c-0,-2.878 1.535,-5.538 4.028,-6.977c2.492,-1.439 5.563,-1.439 8.056,0c0.842,0.486 1.643,0.949 2.369,1.368Z"/>
            <path d="M670.828,1057.02c2.196,1.268 3.55,3.612 3.55,6.149c-0,38.11 -0,329.1 -0,329.1l-18.004,-10.394l0,-319.246c0,-2.878 1.536,-5.538 4.028,-6.977c2.493,-1.439 5.564,-1.439 8.056,0c0.843,0.486 1.644,0.949 2.37,1.368Z"/>
            <path d="M894.945,1186.42c2.196,1.268 3.55,3.612 3.55,6.149c-0,38.11 -0,329.101 -0,329.101l-18.003,-10.395c-0,0 -0,-256.082 -0,-319.246c-0,-2.878 1.535,-5.538 4.028,-6.977c2.492,-1.439 5.563,-1.439 8.056,0c0.842,0.486 1.643,0.949 2.369,1.368Z"/>
            <path d="M712.05,1080.82c2.197,1.268 3.55,3.612 3.55,6.149c0,38.11 0,329.1 0,329.1l-18.003,-10.394l0,-319.246c0,-2.878 1.536,-5.538 4.028,-6.977c2.493,-1.439 5.564,-1.439 8.056,0c0.843,0.486 1.644,0.949 2.369,1.368Z"/>
            <g>
                <path d="M1033.02,1345.17c-7.09,-6.245 -11.325,-16.866 -11.325,-31.066c-0,-33.472 23.534,-74.234 52.521,-90.97c11.629,-6.714 22.38,-8.548 31.087,-6.175c3.768,1.027 7.153,2.841 10.06,5.389l12.093,6.478c0.474,0.236 0.94,0.485 1.398,0.75c9.507,5.489 15.391,17.253 15.391,33.989c-0,33.472 -23.534,74.235 -52.522,90.97c-12.1,6.987 -23.25,8.689 -32.135,5.866c-3.466,-1.1 -6.586,-2.89 -9.284,-5.322l-8.508,-4.878c-3.257,-1.076 -6.204,-2.765 -8.776,-5.031Z" style="fill:#a6a8ab;stroke:#000;stroke-width:8.33px;"/>
                <path d="M1091.72,1233.25c28.988,-16.736 52.522,-3.148 52.522,30.323c-0,33.472 -23.534,74.235 -52.522,90.97c-28.987,16.736 -52.521,3.149 -52.521,-30.323c-0,-33.472 23.534,-74.234 52.521,-90.97Z" style="fill:#808184;stroke:#000;stroke-width:8.33px;"/>
                <path d="M1086.28,1337.22c-1.321,1.321 -3.175,1.433 -5.454,1.433c-0.453,-0 -0.027,0.27 -0.194,0.45c-0.161,0.174 -1.591,-0 -1.882,-0l-5.648,-0c-1.474,-0 -1.543,-0.297 -3.974,-0.837c-0.195,-0.044 -0.709,0.127 -0.836,-0c-0.58,-0.58 -1.381,-0.837 -2.301,-1.673c-0.679,-0.618 -0.785,-1.796 -1.255,-2.301c-0.726,-0.781 -1.113,-1.02 -1.673,-1.883c-1.698,-2.616 -2.301,-3.794 -2.301,-7.32c-0,-0.384 -0.248,-2.263 -0,-2.51c0.924,-0.925 1.232,-2.697 2.092,-3.556c0.34,-0.341 0.058,-1.36 0.418,-1.673c1.37,-1.191 2.752,-2.015 4.183,-3.347c0.313,-0.291 0.099,-1.186 0.418,-1.464c1.342,-1.167 1.312,-3.939 2.51,-5.647c0.551,-0.785 1.309,-4.077 0.628,-5.439c-0.632,-1.263 -2.725,-2.371 -3.765,-3.974c-1.065,-1.64 -2.177,-3.584 -3.347,-4.601c-0.577,-0.502 -0.062,-1.286 -0.836,-1.673c-0.187,-0.094 0.093,-0.441 -0,-0.628c-0.248,-0.494 -0.521,-1.829 -1.046,-2.092c-0.154,-0.077 -0,-2.036 -0,-2.3c-0,-2.714 0.218,-5.428 1.673,-6.693c0.182,-0.158 -0.158,-0.679 0,-0.837c0.455,-0.455 0.963,-2.468 1.464,-2.719c1.339,-0.669 1.793,-2.752 3.138,-3.974c1.895,-1.724 2.533,-3.822 4.392,-5.438c0.236,-0.206 0.062,-0.961 0.209,-1.255c0.333,-0.665 0.763,-1.354 1.255,-1.883c0.206,-0.222 1.382,-0.254 1.464,-0.418c0.506,-1.012 1.696,-0.86 2.51,-1.674c0.196,-0.195 1.142,0.018 1.255,-0.209c0.446,-0.89 3.589,-1.266 4.811,-1.673c0.204,-0.068 1.6,0.147 1.673,0c0.545,-1.089 2.643,-0.066 3.765,-0.627c1.361,-0.681 3.402,-0.806 5.036,-0.806c0.453,0 0.027,-0.27 0.193,-0.449c0.162,-0.175 1.592,-0 1.883,-0c1.782,-0 3.394,-0.21 5.229,-0.21l10.458,0c0.611,0 3.377,-0.387 3.765,0c1.327,1.328 1.812,3.361 2.928,4.393c0.17,0.157 0.043,1.089 0.209,1.255c0.209,0.208 0.85,2.202 1.046,2.301c0.613,0.306 0.403,0.611 0.837,1.045c0.112,0.113 -0.126,0.774 -0,0.837c1.206,0.603 0.841,5.752 -0,6.902c-0.192,0.262 -0.104,1.357 -0.21,1.674c-0.804,2.414 0.955,5.32 -0.836,7.111c-0.148,0.148 -0.441,-0.093 -0.628,0c-0.557,0.279 -0.919,1.288 -1.255,1.673c-0.325,0.375 -1.099,0.443 -1.464,0.837c-0.704,0.762 -1.636,0.135 -2.091,1.046c-0.089,0.177 -2.614,0.397 -2.929,0.627c-1.26,0.922 -4.247,-0.501 -5.229,0.628c-1.098,1.262 -3.176,0.875 -4.601,2.301c-0.148,0.147 0.093,0.44 -0,0.627c-0.178,0.356 -1.351,1.094 -1.674,1.255c-0.081,0.041 -0.897,1.734 -1.045,1.883c-0.621,0.62 -0.419,2.808 -0.419,3.974c0,0.194 -0.14,1.323 0,1.464c0.284,0.284 1.447,-0.035 1.674,0.418c0.427,0.855 1.133,1.134 1.673,1.673c0.275,0.276 1.76,0.087 2.091,0.419c0.78,0.779 2.312,2.323 2.929,3.555c0.458,0.918 0.124,4.562 -0.209,5.229c-0.296,0.591 -0.656,2.162 -1.255,2.72c-0.355,0.329 -0.888,0.308 -1.255,0.627c-0.159,0.138 0.128,0.5 -0,0.627c-0.531,0.531 -1.143,1.513 -1.883,1.883c-0.125,0.063 0.112,0.724 0,0.837c-0.55,0.549 -0.135,1.18 -0.627,1.882c-0.996,1.419 -2.584,3.671 -5.438,2.719c-3.857,-1.285 -5.82,-6.049 -7.739,-8.785c-0.307,-0.436 -1.473,-3.756 -0.628,-4.601c0.488,-0.488 1.185,-0.767 1.673,-1.255c0.66,-0.66 0.857,-2.52 1.674,-2.928c0.243,-0.122 1.286,-0.763 1.286,-1.031c-0,-3.9 -1.049,-5.986 -1.049,-9.642c-0,-0.614 -1.48,-3.354 -0.656,-4.178c0.256,-0.255 0.789,-0.161 1.046,-0.418c0.293,-0.293 0.125,-0.961 0.418,-1.255c0.629,-0.629 1.254,-1.254 1.883,-1.883c0.257,-0.257 1.534,-0.35 1.673,-0.627c0.232,-0.465 1.717,-2.113 2.092,-2.301c1.1,-0.55 1.113,-0.904 1.882,-1.673c0.564,-0.564 1.266,-0.231 1.674,-1.046c0.148,-0.298 2.15,0.18 2.509,0c1.778,-0.889 5.078,-2.045 6.484,-3.347c0.178,-0.164 0.291,-1.4 0.419,-1.464c1.429,-0.714 0.776,-3.405 -0,-4.601c-0.37,-0.57 0.094,-1.695 -0.209,-2.301c-0.155,-0.309 -1.423,-0.723 -1.883,-1.046c-0.493,-0.346 -2.512,0 -3.137,0c-3.487,0 -5.49,0.296 -8.367,1.255c-0.203,0.068 -1.6,-0.146 -1.673,0c-0.584,1.167 -3.388,0.083 -3.974,1.255c-0.04,0.081 -0.875,0 -1.046,0c-0.577,0 -2.208,0.078 -2.719,0.418c-2.102,1.402 -4.633,1.287 -6.275,2.929c-0.147,0.147 -0.96,-0.171 -1.046,-0c-0.323,0.647 -1.264,0.813 -1.673,1.255c-0.346,0.374 -1.558,0.045 -1.882,0.418c-1.407,1.617 -3.211,3.211 -4.602,4.602c-0.933,0.932 -0.837,2.941 -0.837,4.81c0,0.315 -0.2,1.682 0,1.883c0.791,0.79 2.076,2.815 2.72,3.137c1.226,0.613 2.707,1.231 3.346,2.51c0.096,0.191 1.028,0.173 1.255,0.418c0.559,0.605 1.375,1.943 2.092,2.301c0.152,0.076 0.111,1.268 0.209,1.464c0.276,0.553 0.925,3.078 1.464,3.347c0.171,0.085 0,2.424 0,2.719c0,2.592 -0.466,4.23 -1.673,5.438c-0.309,0.309 -0.1,1.169 -0.419,1.464c-1.067,0.988 -1.888,3.012 -2.928,3.974c-0.322,0.298 -0.062,1.573 -0.418,1.883c-1.003,0.871 -1.371,2.329 -2.301,3.137c-0.279,0.243 -0.053,2.119 -0.418,2.301c-1.42,0.71 -2.314,7.419 -0,8.576c0.441,0.22 -0.012,1.023 0.209,1.464c0.22,0.441 1.248,0.62 1.673,1.046c0.862,0.861 1.377,1.478 2.092,2.3c0.291,0.335 1.358,-0.106 1.673,0.209c0.417,0.418 1.047,0.629 1.464,1.046c0.356,0.356 1.774,-0.156 2.092,0.209c0.754,0.868 2.086,0.834 3.346,1.465c0.338,0.168 -0.033,0.627 0.628,0.627" style="fill:#a6a8ab;stroke:#000;stroke-width:8.33px;"/>
                <path d="M1093.23,1339.94c-1.321,1.32 -3.174,1.432 -5.454,1.432c-0.453,0 -0.027,0.27 -0.193,0.45c-0.162,0.175 -1.592,-0 -1.883,-0l-5.647,-0c-1.475,-0 -1.543,-0.296 -3.974,-0.837c-0.195,-0.043 -0.709,0.128 -0.837,0c-0.579,-0.579 -1.38,-0.836 -2.301,-1.673c-0.678,-0.617 -0.785,-1.796 -1.254,-2.301c-0.727,-0.78 -1.114,-1.019 -1.674,-1.882c-1.698,-2.616 -2.301,-3.795 -2.301,-7.321c0,-0.383 -0.247,-2.262 0,-2.51c0.925,-0.924 1.233,-2.696 2.092,-3.556c0.341,-0.34 0.059,-1.36 0.418,-1.673c1.37,-1.191 2.752,-2.015 4.184,-3.346c0.312,-0.291 0.098,-1.187 0.418,-1.465c1.342,-1.167 1.311,-3.939 2.51,-5.647c0.551,-0.785 1.308,-4.076 0.627,-5.438c-0.631,-1.264 -2.724,-2.371 -3.765,-3.974c-1.064,-1.64 -2.176,-3.584 -3.346,-4.602c-0.577,-0.502 -0.062,-1.286 -0.837,-1.673c-0.187,-0.094 0.094,-0.44 0,-0.627c-0.247,-0.495 -0.52,-1.829 -1.046,-2.092c-0.154,-0.077 0,-2.037 0,-2.301c0,-2.713 0.218,-5.428 1.674,-6.693c0.181,-0.158 -0.159,-0.678 -0,-0.837c0.454,-0.454 0.962,-2.468 1.464,-2.719c1.338,-0.669 1.792,-2.751 3.137,-3.974c1.896,-1.723 2.534,-3.822 4.393,-5.438c0.235,-0.205 0.061,-0.96 0.209,-1.255c0.332,-0.664 0.763,-1.354 1.255,-1.882c0.206,-0.222 1.382,-0.254 1.464,-0.419c0.506,-1.012 1.696,-0.859 2.51,-1.673c0.195,-0.196 1.141,0.018 1.255,-0.209c0.445,-0.891 3.589,-1.266 4.811,-1.674c0.203,-0.067 1.6,0.147 1.673,0c0.544,-1.088 2.642,-0.066 3.765,-0.627c1.361,-0.681 3.401,-0.805 5.035,-0.805c0.453,-0 0.027,-0.27 0.194,-0.45c0.161,-0.175 1.591,0 1.882,0c1.782,0 3.394,-0.209 5.229,-0.209l10.458,-0c0.612,-0 3.378,-0.388 3.765,-0c1.328,1.327 1.813,3.36 2.928,4.392c0.17,0.157 0.043,1.089 0.21,1.255c0.208,0.209 0.849,2.203 1.045,2.301c0.613,0.306 0.403,0.612 0.837,1.046c0.112,0.112 -0.125,0.774 0,0.836c1.207,0.604 0.841,5.752 0,6.903c-0.192,0.262 -0.103,1.356 -0.209,1.673c-0.805,2.415 0.954,5.321 -0.837,7.112c-0.148,0.147 -0.44,-0.094 -0.627,-0c-0.557,0.278 -0.92,1.287 -1.255,1.673c-0.326,0.374 -1.1,0.442 -1.464,0.837c-0.705,0.761 -1.636,0.134 -2.092,1.045c-0.088,0.177 -2.613,0.398 -2.928,0.628c-1.261,0.921 -4.248,-0.501 -5.229,0.627c-1.098,1.263 -3.176,0.875 -4.602,2.301c-0.148,0.148 0.094,0.44 0,0.628c-0.178,0.355 -1.35,1.093 -1.673,1.255c-0.081,0.04 -0.897,1.734 -1.046,1.882c-0.62,0.621 -0.418,2.809 -0.418,3.974c-0,0.195 -0.141,1.324 -0,1.464c0.284,0.284 1.447,-0.035 1.673,0.418c0.428,0.856 1.134,1.134 1.673,1.674c0.276,0.275 1.76,0.086 2.092,0.418c0.779,0.779 2.312,2.323 2.928,3.556c0.459,0.917 0.125,4.561 -0.209,5.229c-0.295,0.59 -0.655,2.161 -1.255,2.719c-0.354,0.33 -0.888,0.308 -1.255,0.627c-0.159,0.139 0.128,0.5 0,0.628c-0.531,0.531 -1.143,1.513 -1.882,1.882c-0.126,0.063 0.112,0.725 -0,0.837c-0.55,0.55 -0.135,1.18 -0.628,1.882c-0.996,1.42 -2.584,3.671 -5.438,2.72c-3.857,-1.286 -5.819,-6.05 -7.739,-8.785c-0.306,-0.436 -1.472,-3.757 -0.627,-4.602c0.488,-0.488 1.185,-0.767 1.673,-1.255c0.659,-0.659 0.857,-2.52 1.673,-2.928c0.244,-0.122 1.287,-0.762 1.287,-1.03c-0,-3.901 -1.05,-5.987 -1.05,-9.642c0,-0.615 -1.479,-3.355 -0.655,-4.178c0.255,-0.256 0.789,-0.162 1.046,-0.419c0.293,-0.293 0.124,-0.961 0.418,-1.255c0.629,-0.628 1.254,-1.254 1.882,-1.882c0.258,-0.258 1.535,-0.35 1.674,-0.628c0.232,-0.464 1.717,-2.113 2.091,-2.3c1.101,-0.551 1.114,-0.905 1.883,-1.674c0.564,-0.564 1.266,-0.231 1.673,-1.046c0.149,-0.297 2.151,0.18 2.51,0c1.778,-0.888 5.077,-2.045 6.484,-3.346c0.177,-0.164 0.29,-1.4 0.418,-1.464c1.429,-0.715 0.777,-3.405 0,-4.602c-0.369,-0.569 0.094,-1.694 -0.209,-2.301c-0.154,-0.308 -1.422,-0.722 -1.882,-1.045c-0.494,-0.347 -2.513,-0 -3.138,-0c-3.486,-0 -5.49,0.296 -8.366,1.255c-0.204,0.067 -1.6,-0.147 -1.673,-0c-0.584,1.167 -3.389,0.083 -3.975,1.255c-0.04,0.08 -0.875,-0 -1.045,-0c-0.577,-0 -2.209,0.078 -2.719,0.418c-2.103,1.401 -4.634,1.287 -6.275,2.928c-0.148,0.148 -0.961,-0.17 -1.046,0c-0.324,0.648 -1.264,0.813 -1.673,1.255c-0.347,0.375 -1.558,0.045 -1.883,0.418c-1.406,1.618 -3.21,3.211 -4.601,4.602c-0.933,0.933 -0.837,2.941 -0.837,4.811c-0,0.314 -0.201,1.682 -0,1.882c0.79,0.79 2.076,2.816 2.719,3.138c1.226,0.613 2.707,1.231 3.347,2.51c0.095,0.19 1.028,0.173 1.255,0.418c0.558,0.604 1.375,1.942 2.091,2.301c0.152,0.076 0.111,1.267 0.209,1.464c0.277,0.553 0.926,3.077 1.465,3.346c0.17,0.086 -0,2.425 -0,2.719c-0,2.593 -0.466,4.231 -1.674,5.439c-0.308,0.308 -0.099,1.169 -0.418,1.464c-1.068,0.987 -1.888,3.012 -2.928,3.974c-0.322,0.298 -0.062,1.572 -0.419,1.882c-1.002,0.872 -1.371,2.329 -2.3,3.138c-0.28,0.243 -0.054,2.118 -0.419,2.3c-1.42,0.71 -2.313,7.419 0,8.576c0.441,0.221 -0.011,1.023 0.209,1.464c0.221,0.441 1.248,0.621 1.674,1.046c0.861,0.862 1.376,1.479 2.091,2.301c0.291,0.334 1.358,-0.106 1.674,0.209c0.417,0.417 1.047,0.629 1.464,1.046c0.355,0.355 1.773,-0.157 2.091,0.209c0.755,0.867 2.086,0.834 3.347,1.464c0.337,0.169 -0.033,0.628 0.627,0.628" style="fill:#808184;stroke:#000;stroke-width:8.33px;"/>
            </g>
            <g>
                <path d="M1436.77,1106.11c-7.09,-6.246 -11.325,-16.867 -11.325,-31.066c-0,-33.472 23.534,-74.235 52.521,-90.97c11.629,-6.714 22.38,-8.548 31.087,-6.176c3.768,1.027 7.153,2.842 10.06,5.39l12.093,6.478c0.474,0.235 0.94,0.485 1.398,0.749c9.507,5.489 15.391,17.254 15.391,33.99c-0,33.471 -23.534,74.234 -52.522,90.97c-12.1,6.986 -23.251,8.688 -32.135,5.866c-3.466,-1.101 -6.586,-2.89 -9.284,-5.323l-8.508,-4.877c-3.257,-1.077 -6.204,-2.766 -8.776,-5.031Z" style="fill:#a6a8ab;stroke:#000;stroke-width:8.33px;"/>
                <path d="M1495.48,994.183c28.988,-16.736 52.522,-3.148 52.522,30.324c-0,33.471 -23.534,74.234 -52.522,90.97c-28.987,16.736 -52.521,3.148 -52.521,-30.324c-0,-33.471 23.534,-74.234 52.521,-90.97Z" style="fill:#808184;stroke:#000;stroke-width:8.33px;"/>
                <path d="M1490.03,1098.15c-1.321,1.321 -3.175,1.433 -5.454,1.433c-0.453,0 -0.027,0.27 -0.194,0.45c-0.161,0.174 -1.591,-0 -1.882,-0l-5.648,-0c-1.474,-0 -1.543,-0.297 -3.974,-0.837c-0.195,-0.043 -0.709,0.128 -0.836,0c-0.58,-0.579 -1.381,-0.836 -2.301,-1.673c-0.679,-0.617 -0.785,-1.796 -1.255,-2.301c-0.726,-0.78 -1.113,-1.019 -1.673,-1.882c-1.698,-2.616 -2.301,-3.795 -2.301,-7.321c-0,-0.384 -0.248,-2.262 -0,-2.51c0.924,-0.924 1.232,-2.696 2.091,-3.556c0.341,-0.34 0.059,-1.36 0.419,-1.673c1.369,-1.191 2.752,-2.015 4.183,-3.347c0.313,-0.29 0.099,-1.186 0.418,-1.464c1.342,-1.167 1.312,-3.939 2.51,-5.647c0.551,-0.785 1.309,-4.077 0.628,-5.438c-0.632,-1.264 -2.725,-2.372 -3.765,-3.974c-1.065,-1.641 -2.177,-3.584 -3.347,-4.602c-0.577,-0.502 -0.062,-1.286 -0.836,-1.673c-0.187,-0.094 0.093,-0.441 -0,-0.628c-0.248,-0.494 -0.521,-1.829 -1.046,-2.091c-0.154,-0.077 -0,-2.037 -0,-2.301c-0,-2.713 0.218,-5.428 1.673,-6.693c0.182,-0.158 -0.158,-0.678 0,-0.837c0.455,-0.455 0.963,-2.468 1.464,-2.719c1.339,-0.669 1.793,-2.751 3.138,-3.974c1.895,-1.723 2.533,-3.822 4.392,-5.438c0.236,-0.205 0.062,-0.96 0.209,-1.255c0.332,-0.665 0.763,-1.354 1.255,-1.883c0.206,-0.221 1.382,-0.253 1.464,-0.418c0.506,-1.012 1.696,-0.859 2.51,-1.673c0.196,-0.196 1.142,0.018 1.255,-0.209c0.446,-0.891 3.589,-1.266 4.811,-1.674c0.204,-0.068 1.6,0.147 1.673,0c0.545,-1.089 2.643,-0.066 3.765,-0.627c1.361,-0.681 3.402,-0.805 5.036,-0.805c0.453,-0 0.027,-0.27 0.193,-0.45c0.162,-0.175 1.592,-0 1.883,-0c1.782,-0 3.394,-0.209 5.229,-0.209l10.458,-0c0.611,-0 3.377,-0.388 3.765,-0c1.327,1.327 1.812,3.36 2.928,4.392c0.17,0.157 0.043,1.089 0.209,1.255c0.208,0.208 0.85,2.203 1.046,2.301c0.613,0.306 0.403,0.612 0.837,1.046c0.112,0.112 -0.126,0.774 -0,0.836c1.206,0.604 0.841,5.752 -0,6.903c-0.192,0.262 -0.104,1.356 -0.21,1.673c-0.804,2.414 0.955,5.32 -0.836,7.111c-0.148,0.148 -0.441,-0.093 -0.628,0c-0.557,0.279 -0.919,1.288 -1.255,1.674c-0.325,0.374 -1.099,0.442 -1.464,0.836c-0.704,0.762 -1.636,0.135 -2.091,1.046c-0.089,0.177 -2.614,0.397 -2.929,0.628c-1.26,0.921 -4.247,-0.502 -5.229,0.627c-1.098,1.263 -3.176,0.875 -4.601,2.301c-0.148,0.148 0.093,0.44 -0,0.627c-0.178,0.356 -1.351,1.094 -1.674,1.255c-0.081,0.041 -0.897,1.734 -1.045,1.883c-0.621,0.62 -0.419,2.809 -0.419,3.974c0,0.194 -0.14,1.323 0,1.464c0.284,0.284 1.447,-0.035 1.674,0.418c0.427,0.856 1.133,1.134 1.673,1.674c0.275,0.275 1.76,0.086 2.091,0.418c0.78,0.779 2.312,2.323 2.929,3.556c0.458,0.917 0.124,4.561 -0.209,5.229c-0.296,0.59 -0.656,2.161 -1.255,2.719c-0.355,0.329 -0.888,0.308 -1.255,0.627c-0.159,0.139 0.127,0.5 -0,0.628c-0.531,0.53 -1.143,1.512 -1.883,1.882c-0.125,0.063 0.112,0.725 0,0.837c-0.55,0.55 -0.135,1.18 -0.627,1.882c-0.996,1.42 -2.584,3.671 -5.439,2.719c-3.856,-1.285 -5.819,-6.049 -7.738,-8.784c-0.307,-0.437 -1.473,-3.757 -0.628,-4.602c0.488,-0.488 1.185,-0.767 1.673,-1.255c0.66,-0.659 0.857,-2.52 1.674,-2.928c0.243,-0.122 1.286,-0.762 1.286,-1.03c-0,-3.901 -1.049,-5.987 -1.049,-9.642c-0,-0.615 -1.48,-3.355 -0.656,-4.179c0.256,-0.255 0.789,-0.161 1.046,-0.418c0.293,-0.293 0.125,-0.961 0.418,-1.255c0.629,-0.629 1.254,-1.254 1.883,-1.882c0.257,-0.258 1.534,-0.35 1.673,-0.628c0.232,-0.464 1.717,-2.113 2.092,-2.301c1.1,-0.55 1.113,-0.904 1.882,-1.673c0.564,-0.564 1.266,-0.231 1.674,-1.046c0.148,-0.297 2.15,0.18 2.509,0c1.778,-0.889 5.078,-2.045 6.484,-3.346c0.178,-0.164 0.291,-1.4 0.419,-1.464c1.429,-0.715 0.776,-3.405 -0,-4.602c-0.37,-0.569 0.094,-1.695 -0.209,-2.301c-0.155,-0.309 -1.423,-0.723 -1.883,-1.046c-0.493,-0.346 -2.512,0 -3.137,0c-3.487,0 -5.49,0.297 -8.367,1.255c-0.203,0.068 -1.6,-0.146 -1.673,0c-0.584,1.168 -3.388,0.084 -3.974,1.255c-0.04,0.081 -0.875,0 -1.046,0c-0.577,0 -2.208,0.078 -2.719,0.419c-2.102,1.401 -4.633,1.286 -6.275,2.928c-0.147,0.147 -0.96,-0.171 -1.046,-0c-0.323,0.648 -1.264,0.813 -1.673,1.255c-0.346,0.374 -1.558,0.045 -1.882,0.418c-1.407,1.618 -3.211,3.211 -4.602,4.602c-0.933,0.932 -0.837,2.941 -0.837,4.811c0,0.314 -0.2,1.681 0,1.882c0.79,0.79 2.076,2.816 2.72,3.137c1.225,0.613 2.707,1.232 3.346,2.51c0.095,0.191 1.028,0.173 1.255,0.419c0.559,0.604 1.375,1.942 2.092,2.3c0.152,0.076 0.111,1.268 0.209,1.465c0.276,0.553 0.925,3.077 1.464,3.346c0.171,0.086 -0,2.425 -0,2.719c-0,2.593 -0.466,4.231 -1.673,5.438c-0.309,0.309 -0.1,1.17 -0.419,1.465c-1.067,0.987 -1.888,3.012 -2.928,3.974c-0.322,0.298 -0.062,1.572 -0.418,1.882c-1.003,0.872 -1.371,2.329 -2.301,3.138c-0.279,0.242 -0.053,2.118 -0.418,2.3c-1.42,0.71 -2.314,7.419 -0,8.576c0.441,0.22 -0.012,1.023 0.209,1.464c0.22,0.441 1.248,0.62 1.673,1.046c0.862,0.862 1.377,1.478 2.092,2.301c0.291,0.334 1.358,-0.106 1.673,0.209c0.417,0.417 1.047,0.628 1.464,1.046c0.356,0.355 1.774,-0.157 2.092,0.209c0.754,0.867 2.086,0.834 3.346,1.464c0.338,0.169 -0.033,0.627 0.628,0.627" style="fill:#a6a8ab;stroke:#000;stroke-width:8.33px;"/>
                <path d="M1496.99,1100.88c-1.321,1.321 -3.174,1.433 -5.454,1.433c-0.453,-0 -0.027,0.269 -0.193,0.449c-0.162,0.175 -1.592,0 -1.883,0l-5.647,0c-1.475,0 -1.543,-0.296 -3.974,-0.836c-0.195,-0.044 -0.709,0.127 -0.837,-0c-0.579,-0.58 -1.38,-0.837 -2.301,-1.674c-0.678,-0.617 -0.785,-1.796 -1.255,-2.3c-0.726,-0.781 -1.113,-1.02 -1.673,-1.883c-1.698,-2.616 -2.301,-3.794 -2.301,-7.321c0,-0.383 -0.247,-2.262 0,-2.509c0.925,-0.925 1.233,-2.697 2.092,-3.556c0.341,-0.341 0.059,-1.361 0.418,-1.674c1.37,-1.191 2.752,-2.014 4.184,-3.346c0.312,-0.291 0.098,-1.186 0.418,-1.464c1.342,-1.167 1.311,-3.94 2.51,-5.648c0.551,-0.784 1.308,-4.076 0.627,-5.438c-0.631,-1.263 -2.724,-2.371 -3.765,-3.974c-1.064,-1.64 -2.176,-3.584 -3.346,-4.601c-0.577,-0.502 -0.062,-1.286 -0.837,-1.674c-0.187,-0.093 0.094,-0.44 0,-0.627c-0.247,-0.495 -0.52,-1.829 -1.046,-2.092c-0.154,-0.077 0,-2.036 0,-2.301c0,-2.713 0.218,-5.427 1.674,-6.693c0.181,-0.158 -0.159,-0.678 -0,-0.836c0.454,-0.455 0.962,-2.469 1.464,-2.719c1.338,-0.67 1.792,-2.752 3.137,-3.975c1.896,-1.723 2.534,-3.821 4.393,-5.438c0.235,-0.205 0.061,-0.96 0.209,-1.255c0.332,-0.664 0.763,-1.353 1.255,-1.882c0.206,-0.222 1.382,-0.254 1.464,-0.418c0.506,-1.012 1.696,-0.86 2.51,-1.674c0.195,-0.195 1.141,0.018 1.255,-0.209c0.445,-0.891 3.589,-1.266 4.81,-1.673c0.204,-0.068 1.601,0.146 1.674,-0c0.544,-1.089 2.642,-0.066 3.765,-0.628c1.361,-0.68 3.401,-0.805 5.035,-0.805c0.453,0 0.027,-0.27 0.194,-0.45c0.161,-0.174 1.591,0 1.882,0c1.782,0 3.394,-0.209 5.229,-0.209l10.458,0c0.612,0 3.378,-0.387 3.765,0c1.327,1.327 1.813,3.36 2.928,4.393c0.17,0.157 0.043,1.088 0.21,1.255c0.208,0.208 0.849,2.202 1.045,2.3c0.613,0.307 0.403,0.612 0.837,1.046c0.112,0.112 -0.125,0.774 0,0.837c1.207,0.603 0.841,5.752 0,6.902c-0.192,0.262 -0.103,1.356 -0.209,1.673c-0.805,2.415 0.954,5.321 -0.837,7.112c-0.148,0.148 -0.44,-0.094 -0.627,-0c-0.557,0.278 -0.92,1.287 -1.255,1.673c-0.326,0.375 -1.1,0.443 -1.464,0.837c-0.705,0.761 -1.636,0.134 -2.092,1.046c-0.088,0.176 -2.613,0.397 -2.928,0.627c-1.261,0.922 -4.248,-0.501 -5.229,0.628c-1.098,1.262 -3.176,0.875 -4.602,2.3c-0.148,0.148 0.094,0.441 0,0.628c-0.178,0.355 -1.35,1.093 -1.673,1.255c-0.081,0.04 -0.897,1.734 -1.046,1.882c-0.62,0.621 -0.418,2.809 -0.418,3.974c-0,0.195 -0.141,1.324 -0,1.464c0.284,0.285 1.446,-0.034 1.673,0.419c0.428,0.855 1.134,1.133 1.673,1.673c0.276,0.276 1.76,0.087 2.092,0.418c0.779,0.78 2.312,2.324 2.928,3.556c0.459,0.917 0.125,4.562 -0.209,5.229c-0.295,0.591 -0.656,2.162 -1.255,2.719c-0.354,0.33 -0.888,0.308 -1.255,0.628c-0.159,0.138 0.128,0.499 0,0.627c-0.531,0.531 -1.143,1.513 -1.882,1.883c-0.126,0.062 0.112,0.724 -0,0.836c-0.55,0.55 -0.135,1.181 -0.628,1.883c-0.996,1.419 -2.584,3.67 -5.438,2.719c-3.857,-1.286 -5.819,-6.05 -7.739,-8.785c-0.306,-0.436 -1.472,-3.757 -0.627,-4.601c0.488,-0.489 1.185,-0.767 1.673,-1.255c0.659,-0.66 0.857,-2.52 1.673,-2.929c0.244,-0.121 1.286,-0.762 1.286,-1.03c0,-3.9 -1.049,-5.986 -1.049,-9.642c0,-0.614 -1.479,-3.354 -0.655,-4.178c0.255,-0.255 0.788,-0.161 1.046,-0.418c0.293,-0.294 0.124,-0.962 0.418,-1.255c0.629,-0.629 1.254,-1.254 1.882,-1.883c0.258,-0.257 1.535,-0.35 1.674,-0.627c0.232,-0.465 1.716,-2.114 2.091,-2.301c1.1,-0.55 1.114,-0.905 1.883,-1.673c0.564,-0.564 1.266,-0.231 1.673,-1.046c0.149,-0.298 2.151,0.179 2.51,-0c1.778,-0.889 5.077,-2.046 6.484,-3.347c0.177,-0.164 0.29,-1.4 0.418,-1.464c1.429,-0.714 0.777,-3.405 0,-4.601c-0.369,-0.57 0.094,-1.695 -0.209,-2.301c-0.154,-0.309 -1.422,-0.723 -1.882,-1.046c-0.494,-0.346 -2.513,-0 -3.138,-0c-3.486,-0 -5.49,0.296 -8.366,1.255c-0.204,0.068 -1.6,-0.147 -1.673,-0c-0.584,1.167 -3.389,0.083 -3.975,1.255c-0.04,0.08 -0.875,-0 -1.045,-0c-0.577,-0 -2.209,0.078 -2.719,0.418c-2.103,1.402 -4.634,1.287 -6.275,2.928c-0.148,0.148 -0.961,-0.17 -1.046,0c-0.324,0.648 -1.265,0.813 -1.673,1.255c-0.347,0.375 -1.558,0.045 -1.883,0.419c-1.406,1.617 -3.21,3.21 -4.601,4.601c-0.933,0.933 -0.837,2.941 -0.837,4.811c-0,0.315 -0.201,1.682 -0,1.882c0.79,0.79 2.076,2.816 2.719,3.138c1.226,0.613 2.707,1.231 3.347,2.51c0.095,0.191 1.028,0.173 1.255,0.418c0.558,0.604 1.375,1.943 2.091,2.301c0.152,0.076 0.111,1.267 0.209,1.464c0.277,0.553 0.926,3.077 1.465,3.347c0.17,0.085 -0,2.424 -0,2.719c-0,2.592 -0.466,4.23 -1.674,5.438c-0.309,0.309 -0.099,1.169 -0.418,1.464c-1.068,0.987 -1.888,3.012 -2.928,3.974c-0.322,0.298 -0.062,1.573 -0.419,1.883c-1.002,0.871 -1.371,2.328 -2.3,3.137c-0.28,0.243 -0.054,2.118 -0.419,2.301c-1.42,0.71 -2.313,7.419 0,8.575c0.441,0.221 -0.011,1.024 0.209,1.465c0.221,0.44 1.248,0.62 1.674,1.045c0.861,0.862 1.376,1.479 2.091,2.301c0.291,0.335 1.358,-0.106 1.674,0.209c0.417,0.417 1.046,0.629 1.464,1.046c0.355,0.356 1.773,-0.157 2.091,0.209c0.755,0.868 2.086,0.834 3.347,1.464c0.337,0.169 -0.033,0.628 0.627,0.628" style="fill:#808184;stroke:#000;stroke-width:8.33px;"/>
            </g>
            <g>
                <path d="M1167.23,1292.21c-16.695,-14.706 -26.667,-39.714 -26.667,-73.149c-0,-78.813 55.414,-174.793 123.668,-214.2c27.382,-15.809 52.697,-20.126 73.197,-14.54c8.873,2.418 16.843,6.691 23.689,12.69l28.473,15.253c1.117,0.554 2.215,1.142 3.294,1.765c22.385,12.924 36.239,40.626 36.239,80.032c-0,78.814 -55.414,174.794 -123.669,214.2c-28.492,16.45 -54.747,20.458 -75.667,13.812c-8.159,-2.592 -15.507,-6.804 -21.86,-12.532l-20.034,-11.485c-7.668,-2.534 -14.608,-6.512 -20.663,-11.846Z" style="fill:#a6a8ab;stroke:#000;stroke-width:8.33px;"/>
                <path d="M1305.46,1028.66c68.255,-39.406 123.669,-7.413 123.669,71.4c-0,78.814 -55.414,174.794 -123.669,214.2c-68.254,39.407 -123.668,7.414 -123.668,-71.4c-0,-78.813 55.414,-174.793 123.668,-214.2Z" style="fill:#808184;stroke:#000;stroke-width:8.33px;"/>
                <path d="M1292.64,1273.47c-3.11,3.111 -7.474,3.374 -12.842,3.374c-1.067,0 -0.063,0.635 -0.455,1.059c-0.38,0.411 -3.748,-0 -4.433,-0l-13.297,-0c-3.472,-0 -3.633,-0.698 -9.357,-1.97c-0.46,-0.102 -1.67,0.3 -1.97,-0c-1.365,-1.365 -3.251,-1.97 -5.418,-3.94c-1.598,-1.453 -1.849,-4.229 -2.955,-5.417c-1.709,-1.838 -2.621,-2.401 -3.94,-4.433c-3.998,-6.159 -5.417,-8.934 -5.417,-17.237c-0,-0.904 -0.583,-5.327 -0,-5.91c2.176,-2.177 2.901,-6.349 4.925,-8.373c0.802,-0.802 0.138,-3.203 0.985,-3.94c3.225,-2.804 6.479,-4.744 9.85,-7.88c0.736,-0.684 0.232,-2.793 0.985,-3.447c3.16,-2.748 3.087,-9.276 5.91,-13.297c1.296,-1.848 3.08,-9.599 1.477,-12.805c-1.488,-2.976 -6.415,-5.584 -8.865,-9.358c-2.507,-3.862 -5.125,-8.439 -7.88,-10.835c-1.359,-1.181 -0.146,-3.028 -1.97,-3.94c-0.44,-0.22 0.22,-1.037 0,-1.477c-0.582,-1.164 -1.225,-4.306 -2.462,-4.925c-0.363,-0.181 -0,-4.796 -0,-5.418c-0,-6.388 0.513,-12.78 3.94,-15.759c0.427,-0.372 -0.374,-1.597 -0,-1.97c1.07,-1.071 2.266,-5.812 3.447,-6.403c3.151,-1.575 4.221,-6.479 7.388,-9.357c4.463,-4.058 5.965,-8.999 10.342,-12.805c0.555,-0.483 0.145,-2.261 0.492,-2.955c0.783,-1.565 1.797,-3.187 2.955,-4.433c0.486,-0.521 3.254,-0.597 3.448,-0.985c1.191,-2.382 3.994,-2.023 5.91,-3.94c0.46,-0.46 2.688,0.042 2.955,-0.492c1.048,-2.097 8.45,-2.981 11.327,-3.94c0.48,-0.16 3.768,0.345 3.94,0c1.282,-2.564 6.222,-0.156 8.865,-1.477c3.205,-1.603 8.009,-1.897 11.857,-1.897c1.067,0 0.064,-0.635 0.456,-1.058c0.38,-0.411 3.747,-0 4.432,-0c4.196,-0 7.991,-0.493 12.312,-0.493l24.625,0c1.44,0 7.953,-0.912 8.865,0c3.125,3.125 4.268,7.912 6.895,10.342c0.4,0.371 0.101,2.564 0.493,2.955c0.49,0.491 2,5.187 2.462,5.418c1.443,0.721 0.948,1.441 1.97,2.462c0.264,0.265 -0.295,1.823 -0,1.97c2.841,1.421 1.981,13.544 -0,16.253c-0.451,0.617 -0.244,3.193 -0.492,3.94c-1.896,5.685 2.247,12.527 -1.97,16.745c-0.349,0.348 -1.037,-0.221 -1.478,-0c-1.311,0.655 -2.165,3.031 -2.955,3.94c-0.767,0.881 -2.589,1.041 -3.447,1.97c-1.659,1.793 -3.852,0.316 -4.925,2.462c-0.209,0.416 -6.154,0.936 -6.895,1.477c-2.968,2.17 -10.002,-1.18 -12.313,1.478c-2.585,2.973 -7.478,2.06 -10.835,5.417c-0.348,0.349 0.221,1.037 0,1.478c-0.418,0.837 -3.179,2.575 -3.94,2.955c-0.191,0.095 -2.113,4.083 -2.462,4.432c-1.461,1.462 -0.985,6.614 -0.985,9.358c-0,0.458 -0.331,3.116 -0,3.447c0.669,0.669 3.406,-0.082 3.94,0.985c1.007,2.014 2.669,2.669 3.94,3.94c0.649,0.649 4.144,0.204 4.925,0.985c1.835,1.835 5.444,5.47 6.895,8.373c1.08,2.159 0.293,10.74 -0.493,12.312c-0.695,1.39 -1.543,5.09 -2.955,6.402c-0.834,0.777 -2.09,0.726 -2.955,1.478c-0.374,0.326 0.301,1.176 0,1.477c-1.249,1.25 -2.69,3.562 -4.432,4.433c-0.295,0.148 0.264,1.706 -0,1.97c-1.294,1.294 -0.317,2.779 -1.478,4.432c-2.345,3.342 -6.084,8.643 -12.805,6.403c-9.08,-3.027 -13.702,-14.244 -18.222,-20.685c-0.721,-1.027 -3.467,-8.846 -1.477,-10.835c1.149,-1.149 2.79,-1.806 3.94,-2.955c1.553,-1.553 2.017,-5.934 3.94,-6.895c0.573,-0.287 3.028,-1.795 3.028,-2.425c0,-9.185 -2.47,-14.097 -2.47,-22.704c0,-1.446 -3.483,-7.898 -1.543,-9.838c0.601,-0.601 1.857,-0.38 2.462,-0.985c0.69,-0.69 0.293,-2.263 0.985,-2.955c1.48,-1.48 2.953,-2.953 4.433,-4.433c0.606,-0.606 3.613,-0.823 3.94,-1.477c0.546,-1.094 4.042,-4.976 4.924,-5.417c2.591,-1.296 2.622,-2.13 4.433,-3.94c1.328,-1.328 2.98,-0.544 3.94,-2.463c0.35,-0.701 5.063,0.423 5.91,0c4.186,-2.093 11.955,-4.816 15.267,-7.88c0.418,-0.386 0.684,-3.297 0.985,-3.447c3.365,-1.683 1.829,-8.018 0,-10.835c-0.87,-1.341 0.221,-3.991 -0.492,-5.418c-0.364,-0.727 -3.349,-1.702 -4.433,-2.462c-1.161,-0.815 -5.916,-0 -7.387,-0c-8.21,-0 -12.927,0.697 -19.7,2.955c-0.48,0.16 -3.768,-0.345 -3.94,-0c-1.374,2.748 -7.978,0.196 -9.357,2.955c-0.095,0.19 -2.061,-0 -2.463,-0c-1.358,-0 -5.2,0.183 -6.402,0.985c-4.951,3.3 -10.91,3.029 -14.775,6.895c-0.348,0.347 -2.262,-0.402 -2.463,-0c-0.762,1.525 -2.977,1.914 -3.94,2.955c-0.815,0.881 -3.668,0.106 -4.432,0.985c-3.312,3.808 -7.56,7.559 -10.835,10.835c-2.196,2.196 -1.97,6.925 -1.97,11.327c-0,0.741 -0.472,3.96 -0,4.432c1.86,1.861 4.888,6.631 6.402,7.388c2.887,1.443 6.375,2.899 7.88,5.91c0.225,0.449 2.421,0.407 2.955,0.985c1.316,1.422 3.238,4.574 4.925,5.417c0.358,0.179 0.261,2.985 0.493,3.448c0.651,1.302 2.179,7.246 3.447,7.88c0.403,0.201 0,5.708 0,6.402c0,6.104 -1.096,9.961 -3.94,12.805c-0.727,0.727 -0.234,2.753 -0.985,3.448c-2.513,2.325 -4.446,7.092 -6.895,9.357c-0.758,0.701 -0.146,3.703 -0.985,4.432c-2.36,2.053 -3.228,5.484 -5.417,7.388c-0.658,0.572 -0.126,4.988 -0.985,5.417c-3.343,1.672 -5.447,17.469 -0,20.193c1.038,0.519 -0.027,2.409 0.492,3.447c0.52,1.038 2.938,1.461 3.94,2.463c2.03,2.029 3.242,3.481 4.925,5.417c0.686,0.788 3.198,-0.25 3.94,0.493c0.983,0.982 2.465,1.48 3.448,2.462c0.837,0.837 4.176,-0.369 4.925,0.493c1.776,2.042 4.912,1.963 7.88,3.447c0.794,0.397 -0.078,1.477 1.477,1.477" style="fill:#a6a8ab;stroke:#000;stroke-width:8.33px;"/>
                <path d="M1309.01,1279.9c-3.11,3.11 -7.474,3.373 -12.842,3.373c-1.067,0 -0.064,0.635 -0.456,1.059c-0.38,0.411 -3.747,0 -4.432,0l-13.297,0c-3.473,0 -3.634,-0.698 -9.358,-1.97c-0.46,-0.102 -1.67,0.3 -1.97,0c-1.365,-1.365 -3.25,-1.97 -5.417,-3.94c-1.599,-1.453 -1.85,-4.229 -2.955,-5.417c-1.71,-1.838 -2.621,-2.401 -3.94,-4.433c-3.999,-6.159 -5.418,-8.934 -5.418,-17.237c0,-0.904 -0.583,-5.327 0,-5.91c2.177,-2.176 2.902,-6.349 4.925,-8.373c0.802,-0.802 0.138,-3.203 0.985,-3.939c3.225,-2.805 6.48,-4.745 9.85,-7.88c0.736,-0.685 0.232,-2.793 0.985,-3.448c3.16,-2.748 3.088,-9.276 5.91,-13.297c1.297,-1.848 3.081,-9.599 1.478,-12.805c-1.488,-2.976 -6.416,-5.584 -8.865,-9.358c-2.508,-3.862 -5.125,-8.439 -7.88,-10.835c-1.359,-1.181 -0.146,-3.027 -1.97,-3.939c-0.441,-0.221 0.22,-1.037 -0,-1.478c-0.582,-1.164 -1.226,-4.306 -2.463,-4.925c-0.362,-0.181 0,-4.795 0,-5.417c0,-6.389 0.514,-12.781 3.94,-15.76c0.428,-0.372 -0.373,-1.597 0,-1.97c1.071,-1.071 2.266,-5.812 3.448,-6.403c3.151,-1.575 4.221,-6.479 7.387,-9.357c4.464,-4.058 5.966,-8.999 10.343,-12.805c0.555,-0.483 0.145,-2.261 0.492,-2.955c0.782,-1.565 1.797,-3.187 2.955,-4.432c0.485,-0.522 3.254,-0.598 3.447,-0.985c1.192,-2.383 3.994,-2.024 5.91,-3.94c0.461,-0.461 2.688,0.042 2.955,-0.493c1.049,-2.097 8.451,-2.981 11.328,-3.94c0.479,-0.16 3.767,0.345 3.94,0c1.282,-2.564 6.221,-0.156 8.865,-1.477c3.204,-1.603 8.009,-1.896 11.857,-1.896c1.067,-0 0.063,-0.636 0.455,-1.059c0.38,-0.411 3.748,-0 4.433,-0c4.196,-0 7.991,-0.493 12.312,-0.493l24.625,0c1.44,0 7.952,-0.912 8.865,0c3.125,3.126 4.267,7.912 6.895,10.343c0.4,0.37 0.101,2.563 0.492,2.955c0.491,0.49 2,5.186 2.463,5.417c1.443,0.722 0.948,1.441 1.97,2.463c0.264,0.264 -0.296,1.822 -0,1.97c2.84,1.42 1.98,13.543 -0,16.252c-0.452,0.617 -0.244,3.193 -0.493,3.94c-1.895,5.685 2.247,12.528 -1.97,16.745c-0.348,0.348 -1.037,-0.221 -1.477,-0c-1.312,0.655 -2.166,3.031 -2.955,3.94c-0.767,0.881 -2.589,1.041 -3.448,1.97c-1.659,1.793 -3.852,0.316 -4.925,2.462c-0.208,0.416 -6.154,0.936 -6.895,1.478c-2.968,2.169 -10.001,-1.181 -12.312,1.477c-2.585,2.973 -7.478,2.061 -10.835,5.418c-0.348,0.348 0.22,1.037 -0,1.477c-0.419,0.837 -3.179,2.575 -3.94,2.955c-0.191,0.096 -2.113,4.083 -2.463,4.432c-1.461,1.462 -0.984,6.614 -0.984,9.358c-0,0.458 -0.331,3.117 -0,3.447c0.668,0.669 3.406,-0.082 3.939,0.985c1.007,2.014 2.669,2.669 3.94,3.94c0.649,0.649 4.144,0.204 4.925,0.985c1.835,1.835 5.444,5.471 6.895,8.373c1.08,2.159 0.294,10.741 -0.492,12.312c-0.695,1.39 -1.544,5.09 -2.955,6.403c-0.835,0.776 -2.09,0.725 -2.955,1.477c-0.375,0.326 0.301,1.176 -0,1.478c-1.25,1.249 -2.691,3.561 -4.433,4.432c-0.295,0.148 0.265,1.706 0,1.97c-1.294,1.294 -0.317,2.779 -1.477,4.432c-2.345,3.342 -6.084,8.643 -12.805,6.403c-9.081,-3.027 -13.702,-14.244 -18.222,-20.685c-0.721,-1.027 -3.467,-8.846 -1.478,-10.835c1.15,-1.149 2.791,-1.806 3.94,-2.955c1.553,-1.553 2.018,-5.934 3.94,-6.895c0.573,-0.286 3.029,-1.795 3.029,-2.425c0,-9.185 -2.47,-14.097 -2.47,-22.704c-0,-1.446 -3.484,-7.898 -1.544,-9.838c0.601,-0.601 1.857,-0.379 2.463,-0.985c0.69,-0.69 0.293,-2.263 0.985,-2.955c1.48,-1.48 2.952,-2.953 4.432,-4.432c0.606,-0.607 3.613,-0.824 3.94,-1.478c0.547,-1.094 4.042,-4.976 4.925,-5.417c2.591,-1.296 2.622,-2.13 4.432,-3.94c1.329,-1.328 2.981,-0.544 3.94,-2.463c0.351,-0.701 5.064,0.423 5.91,0c4.187,-2.093 11.956,-4.816 15.268,-7.88c0.417,-0.386 0.683,-3.296 0.985,-3.447c3.364,-1.682 1.829,-8.018 -0,-10.835c-0.87,-1.34 0.221,-3.99 -0.493,-5.418c-0.363,-0.727 -3.349,-1.702 -4.432,-2.462c-1.162,-0.815 -5.916,0 -7.388,0c-8.209,0 -12.927,0.697 -19.699,2.955c-0.48,0.16 -3.768,-0.345 -3.94,-0c-1.375,2.748 -7.978,0.196 -9.358,2.955c-0.095,0.19 -2.061,-0 -2.462,-0c-1.359,-0 -5.201,0.184 -6.403,0.985c-4.95,3.3 -10.909,3.03 -14.775,6.895c-0.347,0.347 -2.261,-0.402 -2.462,-0c-0.763,1.525 -2.977,1.914 -3.94,2.955c-0.816,0.881 -3.668,0.106 -4.433,0.985c-3.311,3.808 -7.559,7.56 -10.834,10.835c-2.197,2.196 -1.97,6.925 -1.97,11.327c-0,0.741 -0.473,3.96 -0,4.433c1.86,1.86 4.887,6.63 6.402,7.387c2.887,1.443 6.374,2.899 7.88,5.91c0.224,0.449 2.421,0.408 2.955,0.985c1.316,1.423 3.237,4.574 4.925,5.417c0.357,0.179 0.261,2.985 0.492,3.448c0.652,1.303 2.18,7.246 3.448,7.88c0.402,0.201 -0,5.708 -0,6.402c-0,6.104 -1.096,9.962 -3.94,12.805c-0.727,0.727 -0.234,2.753 -0.985,3.448c-2.514,2.325 -4.447,7.092 -6.895,9.357c-0.758,0.701 -0.146,3.703 -0.985,4.433c-2.36,2.052 -3.228,5.483 -5.418,7.387c-0.657,0.572 -0.125,4.988 -0.985,5.417c-3.343,1.672 -5.447,17.469 0,20.193c1.039,0.519 -0.026,2.409 0.493,3.447c0.519,1.038 2.938,1.461 3.94,2.463c2.029,2.029 3.241,3.481 4.925,5.417c0.685,0.788 3.198,-0.25 3.94,0.493c0.982,0.982 2.465,1.48 3.447,2.462c0.837,0.837 4.176,-0.369 4.925,0.493c1.777,2.042 4.912,1.963 7.88,3.447c0.795,0.397 -0.078,1.478 1.478,1.478" style="fill:#808184;stroke:#000;stroke-width:8.33px;"/>
            </g>
            <path id="primary-color-darker1" serif:id="primary-color-darker" d="M1196.23,566.586l-29.349,-101.136l220.116,-127.084l29.348,101.667l-220.115,126.553Z" style="fill:#3b6d2c;stroke:#000;stroke-width:8.33px;"/>
            <path id="primary-color1" serif:id="primary-color" d="M1166.88,465.45l-73.372,-42.361l-29.349,68.044l132.07,76.25l-29.349,-101.933Z" style="fill:#4e913b;stroke:#000;stroke-width:8.33px;"/>
            <path id="primary-color-lighter1" serif:id="primary-color-lighter" d="M1313.62,296.005l73.372,42.361l-220.116,127.084l-73.372,-42.361l220.116,-127.084Z" style="fill:#62b54a;stroke:#000;stroke-width:8.33px;"/>
            <path d="M756.823,1582.67l0,47.6l-576.796,-333.013l0,-47.6l576.796,333.013Z" style="fill:#a6a8ab;stroke:#000;stroke-width:8.33px;"/>
            <path d="M798.046,1558.87l-0,47.6l-41.223,23.8l0,-47.6l41.223,-23.8Z" style="fill:#808184;stroke:#000;stroke-width:8.33px;"/>
            <path d="M1004.16,1725.47l0,47.6l-164.891,-95.2l-0,-47.6l164.891,95.2Z" style="fill:#a6a8ab;stroke:#000;stroke-width:8.33px;"/>
            <path d="M1828.62,1249.47l0,47.6l-824.456,476l0,-47.6l824.456,-476Z" style="fill:#808184;stroke:#000;stroke-width:8.33px;"/>
            <path id="primary-color-lighter2" serif:id="primary-color-lighter" d="M1121.77,807.762l-47.279,-27.297c-0,0 -27.131,-2.727 -29.109,40.706l41.312,23.649l26.608,-23.903l8.468,-13.155Z" style="fill:#62b54a;stroke:#000;stroke-width:8.33px;"/>
            <path id="primary-color-lighter3" serif:id="primary-color-lighter" d="M1286.52,712.647l-47.28,-27.297c0,0 -27.13,-2.728 -29.109,40.705l41.312,23.65l26.609,-23.903l8.468,-13.155Z" style="fill:#62b54a;stroke:#000;stroke-width:8.33px;"/>
            <path id="primary-color-lighter4" serif:id="primary-color-lighter" d="M1452.57,616.779l-47.28,-27.297c-0,-0 -27.13,-2.728 -29.109,40.705l41.312,23.65l26.608,-23.904l8.469,-13.154Z" style="fill:#62b54a;stroke:#000;stroke-width:8.33px;"/>
            <path d="M1109.66,807.762c3.749,-2.163 8.366,-2.163 12.114,0c3.749,2.164 6.057,6.164 6.057,10.492c0,39.688 0,121.817 0,121.817l-41.222,23.8c-0,0 -0,-74.868 -0,-116.184c-0,-16.47 8.786,-31.689 23.05,-39.923c0,-0.001 0.001,-0.001 0.001,-0.002Z" style="fill:#a6a8ab;stroke:#000;stroke-width:8.33px;"/>
            <path d="M1274.55,712.562c3.748,-2.163 8.366,-2.163 12.114,0c3.748,2.164 6.057,6.164 6.057,10.492c-0,39.688 -0,121.817 -0,121.817l-41.223,23.8c-0,0 -0,-74.868 -0,-116.184c-0,-16.47 8.786,-31.689 23.05,-39.923c0,-0.001 0.001,-0.001 0.002,-0.002Z" style="fill:#a6a8ab;stroke:#000;stroke-width:8.33px;"/>
            <path d="M1439.44,617.362c3.748,-2.163 8.366,-2.163 12.114,0c3.748,2.164 6.057,6.164 6.057,10.492c-0,39.688 -0,121.817 -0,121.817l-41.223,23.8l0,-116.184c0,-16.47 8.787,-31.689 23.05,-39.923c0.001,-0.001 0.001,-0.001 0.002,-0.002Z" style="fill:#a6a8ab;stroke:#000;stroke-width:8.33px;"/>
            <path d="M1086.61,844.971l-0,118.9l-41.223,-88.855l-0,-53.845l41.223,23.8Z" style="fill:#808184;stroke:#000;stroke-width:8.33px;"/>
            <path d="M1251.5,749.771l-0,118.9l-41.223,-88.855l0,-53.845l41.223,23.8Z" style="fill:#808184;stroke:#000;stroke-width:8.33px;"/>
            <path d="M1416.39,654.571l0,118.9l-41.223,-88.855l0,-53.845l41.223,23.8Z" style="fill:#808184;stroke:#000;stroke-width:8.33px;"/>
            <path d="M1109.33,844.068c-5.291,3.055 -8.55,8.7 -8.55,14.809c-0,23.064 -0,78.541 -0,78.541l14.718,-8.498l0,-81.672c0,-1.39 -0.742,-2.675 -1.946,-3.37c-1.204,-0.696 -2.688,-0.696 -3.892,-0c-0.11,0.063 -0.22,0.126 -0.33,0.19Z"/>
            <path d="M1273.75,746.129c-5.291,3.054 -8.55,8.7 -8.55,14.809c0,23.064 0,78.54 0,78.54l14.719,-8.497c-0,-0 -0,-61.016 -0,-81.672c-0,-1.391 -0.742,-2.675 -1.947,-3.371c-1.204,-0.695 -2.688,-0.695 -3.892,0c-0.109,0.063 -0.219,0.127 -0.33,0.191Z"/>
            <path d="M1439.94,651.157c-5.291,3.055 -8.55,8.7 -8.55,14.809c0,23.064 0,78.541 0,78.541l14.719,-8.498c-0,0 -0,-61.016 -0,-81.671c-0,-1.391 -0.742,-2.676 -1.947,-3.371c-1.204,-0.695 -2.688,-0.695 -3.892,-0c-0.109,0.063 -0.219,0.127 -0.33,0.19Z"/>
            <g transform="matrix(0.866025,0.5,-4.80741e-17,1,-2752.86,10273.8)">
                <g transform="matrix(155.283,0,0,155.283,4213.79,-10442.5)">
                </g>
                <text x="3316.36px" y="-10442.5px" style="font-family:'Arial-BoldMT', 'Arial', sans-serif;font-weight:700;font-size:155.283px;">gitterra.com</text>
            </g>
        </g>
    </g>
</svg>
